<?xml version="1.0" standalone="no"?>
<!DOCTYPE svg PUBLIC "-//W3C//DTD SVG 1.1//EN" "http://www.w3.org/Graphics/SVG/1.1/DTD/svg11.dtd" >
<svg xmlns="http://www.w3.org/2000/svg">
<metadata></metadata>
<defs>
<font id="fregatitalic" horiz-adv-x="1011" >
<font-face units-per-em="2048" ascent="1638" descent="-410" />
<missing-glyph horiz-adv-x="701" />
<glyph horiz-adv-x="0" />
<glyph horiz-adv-x="682" />
<glyph unicode=" "  horiz-adv-x="701" />
<glyph unicode="&#x09;" horiz-adv-x="701" />
<glyph unicode="&#xa0;" horiz-adv-x="701" />
<glyph unicode="!" horiz-adv-x="450" d="M30 98q9 53 42 83t89 30q43 0 65.5 -13.5t26 -38.5t-1.5 -61q-10 -59 -38 -88.5t-92 -29.5q-111 0 -91 118zM140 375l101 923q3 32 21 57t46.5 38.5t62.5 13.5q57 0 82.5 -28t13.5 -81l-228 -923q-9 -42 -57 -42q-24 0 -33.5 10.5t-8.5 31.5z" />
<glyph unicode="&#x22;" horiz-adv-x="619" d="M144 986l119 353q30 77 124 72q50 -4 65.5 -35t-10.5 -78l-185 -327q-14 -27 -30 -37t-47 -7q-23 2 -34 18t-2 41zM412 986l118 353q30 77 125 72q50 -4 64.5 -35t-10.5 -78l-185 -327q-13 -26 -30 -36.5t-46 -7.5q-24 2 -34.5 18t-1.5 41z" />
<glyph unicode="#" horiz-adv-x="1191" d="M33.5 472q0.5 14 6.5 32q23 66 82 66h171l102 295h-171q-57 0 -33 66q8 29 28.5 48t53.5 19h169l124 352q20 59 86.5 59t46.5 -59l-125 -352h291l125 352q20 59 86 59t46 -59l-124 -352h170q57 0 34 -67q-23 -66 -82 -66h-168l-103 -295h168q59 0 37 -66q-25 -67 -83 -67 h-170l-137 -385q-19 -58 -86 -58q-66 0 -46 58l136 385h-291l-136 -385q-20 -58 -86 -58t-46 58l136 385h-171q-21 0 -31 10.5t-9.5 24.5zM425 570h291l101 295h-289z" />
<glyph unicode="$" horiz-adv-x="1109" d="M-2 385q4 31 29 49t59 18q74 0 67 -71q-8 -69 21 -123.5t83.5 -87.5t127.5 -46l99 550q-32 9 -56.5 16t-54.5 17.5t-52.5 21.5t-47 25t-42.5 30.5t-34.5 36.5t-26.5 44t-16.5 52t-6 61.5t7.5 71.5q15 87 60 158t108.5 116.5t138 72.5t154.5 34l12 68q10 60 81 60 q65 0 55 -60l-11 -68q161 -16 252 -98t91 -239q0 -40 -19 -60t-64 -19q-19 0 -34.5 5.5t-27.5 20.5t-14 39q-2 46 -19.5 82.5t-46.5 60t-65 38.5t-80 22l-84 -486q38 -10 68.5 -19.5t66.5 -22.5t62 -27t56 -33t48 -40t37 -48.5t24.5 -58t10 -69t-7.5 -81.5 q-16 -98 -65 -177.5t-119 -130.5t-153 -80.5t-174 -35.5l-14 -81q-10 -60 -78.5 -60t-58.5 60l17 84q-84 11 -152.5 39.5t-120.5 77t-76.5 123t-14.5 168.5zM329 1057q-8 -44 4 -81t40.5 -63.5t61.5 -44.5t77 -33l80 452q-97 -13 -170.5 -72t-92.5 -158zM521 122 q115 13 201.5 81t106.5 180q8 44 -1 81.5t-28.5 63.5t-51.5 48t-63 35.5t-71 26.5z" />
<glyph unicode="%" horiz-adv-x="1335" d="M129.5 16.5q-3.5 12.5 14.5 35.5l961 1298q44 59 101 59q14 0 24.5 -2.5t17.5 -9t5 -18.5t-14 -29l-962 -1298q-43 -58 -101 -58q-19 0 -31 5t-15.5 17.5zM170.5 995q-13.5 62 0.5 147q22 130 97 205.5t203 75.5q66 0 111 -21t67 -58t28.5 -89t-5.5 -113 q-24 -131 -99 -206t-202 -75q-85 0 -136 36t-64.5 98zM293 1142q-31 -185 96 -185q31 0 57 11.5t43 29.5t29.5 43.5t19.5 49t12 51.5q31 185 -96 185q-32 0 -57.5 -11.5t-42.5 -29.5t-30 -43.5t-19.5 -49.5t-11.5 -51zM712 263q23 130 96.5 204.5t202.5 74.5t176.5 -74.5 t24.5 -204.5q-24 -131 -98.5 -206t-200.5 -75t-175 75t-26 206zM826 198.5q0 -29.5 8 -58t32 -45.5t63 -17q38 0 68 17t48 45.5t29 58t18 64.5q30 183 -96 183q-39 0 -69 -16.5t-48.5 -45t-29 -58t-16.5 -63.5q-7 -35 -7 -64.5z" />
<glyph unicode="&#x26;" horiz-adv-x="1262" d="M40.5 251.5q-15.5 69.5 1.5 160.5q7 42 24 82.5t39.5 75t53.5 68t63.5 61.5t71.5 55t75.5 49t78.5 44q-33 92 -46.5 160.5t-1.5 134.5q10 56 42 110t77 94.5t103.5 65.5t118.5 25q136 0 206 -75.5t45 -213.5q-31 -181 -356 -353q72 -173 233 -400q83 132 121 289 q6 25 29 40t55 15q23 0 37.5 -7.5t20.5 -22t2 -35.5q-50 -218 -182 -393q18 -23 47.5 -61.5t48 -62t41 -53t39.5 -52.5q13 -18 2.5 -32t-31 -23t-44.5 -11q-76 -8 -103 30q-19 24 -61 78t-50 65q-189 -171 -395 -171q-74 0 -139.5 15t-122.5 47t-92.5 82t-51 119.5zM231 412 q-22 -126 44 -201t189 -75q164 0 300 131q-177 255 -266 455q-51 -28 -92 -57t-78.5 -67t-62 -85.5t-34.5 -100.5zM555.5 1038.5q9.5 -51.5 32.5 -119.5q208 117 229 239q11 60 -16.5 99.5t-86.5 39.5q-43 0 -77.5 -23t-54 -57.5t-26.5 -76.5q-10 -50 -0.5 -101.5z" />
<glyph unicode="'" horiz-adv-x="350" d="M144 986l119 353q24 72 124 72q49 0 64.5 -33t-9.5 -80l-185 -327q-16 -27 -32 -37t-45 -7q-24 2 -34.5 17.5t-1.5 41.5z" />
<glyph unicode="(" horiz-adv-x="501" d="M58 299q4 112 24 229q17 94 42.5 183.5t63.5 181t86 176.5t110.5 169.5t136.5 159.5q38 35 83 21q25 -7 29 -27t-15 -42q-285 -364 -365 -822q-80 -457 74 -825q11 -21 1 -40t-37 -27q-21 -6 -43 -1.5t-33 20.5q-59 95 -96 202t-51 218.5t-10 223.5z" />
<glyph unicode=")" horiz-adv-x="501" d="M-147 -337.5q-3 19.5 15 40.5q285 369 365 825q80 452 -76 822q-10 21 -0.5 41.5t38.5 27.5q21 7 42 2t30 -23q59 -94 97 -200.5t52.5 -217t11 -223t-23.5 -229.5q-43 -240 -152.5 -463.5t-291.5 -409.5q-16 -16 -38.5 -20.5t-38.5 1.5q-27 7 -30 26.5z" />
<glyph unicode="*" horiz-adv-x="932" d="M144.5 1049q-11.5 28 8.5 67t51 52t65 -6l239 -122l13 285q2 27 14.5 47t33.5 30.5t47 10.5q41 0 57.5 -24t4.5 -64l-86 -285l283 122q39 17 65.5 4t30.5 -52q7 -38 -14 -65.5t-60 -35.5l-293 -54l158 -210q23 -29 14.5 -61t-46 -56t-67 -17t-43.5 44l-96 250l-183 -250 q-26 -37 -58 -44t-61 17q-28 25 -25.5 56.5t34.5 62.5l236 208l-272 54q-39 8 -50.5 36z" />
<glyph unicode="+" horiz-adv-x="1119" d="M92 705q15 70 77 70h357l62 357q10 63 80 63q31 0 48.5 -15t11.5 -48l-62 -357h357q64 0 49 -70q-11 -71 -74 -71h-358l-62 -357q-5 -33 -28 -47.5t-54 -14.5t-47.5 14.5t-11.5 47.5l63 357h-358q-61 0 -50 71z" />
<glyph unicode="," horiz-adv-x="473" d="M-46 -209l120 353q27 77 127 73q47 -5 61 -36t-11 -77l-182 -324q-15 -28 -31.5 -38t-47.5 -9q-23 2 -33 17.5t-3 40.5z" />
<glyph unicode="-" horiz-adv-x="686" d="M84 536q12 73 75 73h381q33 0 44 -21t6 -52q-5 -29 -24 -49.5t-52 -20.5h-382q-60 0 -48 70z" />
<glyph unicode="." horiz-adv-x="490" d="M48 104q10 59 39.5 88.5t94.5 29.5q68 0 87.5 -29t9.5 -89q-11 -62 -41 -93t-97.5 -31t-85.5 31t-7 93z" />
<glyph unicode="/" horiz-adv-x="946" d="M-145 -328.5q-3 12.5 13 35.5l1063 1643q40 59 101 59q13 0 23 -2.5t17 -8.5t5.5 -18t-12.5 -30l-1067 -1643q-38 -58 -100 -58q-18 0 -29 5t-14 17.5z" />
<glyph unicode="0" horiz-adv-x="1133" d="M77.5 465q1.5 110 24.5 240q130 724 614 724q106 0 182.5 -35t121.5 -97.5t65.5 -153.5t17.5 -199.5t-27 -238.5q-28 -164 -80 -295t-127 -228.5t-178.5 -151t-228.5 -53.5q-101 0 -175.5 35t-120.5 98t-68 154t-20.5 201zM256 472q-4 -64 0.5 -112.5t18.5 -97.5 t40 -80.5t68.5 -51t100.5 -19.5t107.5 19.5t86.5 51t68.5 80t53 97.5t40.5 112.5t30.5 116t22.5 117.5q12 67 19 116t11.5 115t0.5 113t-18 96.5t-40 80.5t-69.5 51t-103.5 20q-47 0 -88 -12.5t-73.5 -32t-61 -51t-50 -64.5t-40.5 -77.5t-32 -84t-25.5 -90.5t-20.5 -90.5 t-17 -89.5q-11 -65 -18 -117t-11 -116z" />
<glyph unicode="1" horiz-adv-x="678" d="M140 1134q-3 53 65 88l321 163q19 11 45 20.5t43 7.5q37 -1 56 -19.5t12 -56.5l-228 -1295q-13 -74 -99 -74q-37 0 -58 17t-14 57l209 1178q-48 -32 -115 -60l-132 -66q-29 -13 -49.5 -14.5t-31.5 7.5t-16.5 20t-7.5 27z" />
<glyph unicode="2" horiz-adv-x="1045" d="M-44 100q13 73 88 141q58 56 145.5 121.5t169 118t169 115.5t154 119t115 124.5t60.5 135.5q8 37 6.5 74.5t-8.5 72t-26 64.5t-46 52t-69.5 34.5t-95.5 12.5q-69 0 -128 -21.5t-97.5 -56t-62.5 -69.5t-35 -70q-20 -74 -92 -74q-82 0 -65 74q20 83 69.5 152t116.5 114.5 t147.5 71t164.5 25.5q105 0 187 -26.5t136.5 -77.5t75 -130.5t3.5 -181.5q-15 -84 -55.5 -160.5t-99 -138.5t-126.5 -116.5t-147.5 -106.5t-151.5 -97.5t-149 -99t-131 -101.5q-14 -12 -12 -26t23 -14h654q37 0 48.5 -22t5.5 -55q-12 -78 -80 -78h-785q-45 0 -64 29.5 t-12 70.5z" />
<glyph unicode="3" horiz-adv-x="1030" d="M-8 243q-18 72 50 102q28 15 59.5 8.5t42.5 -35.5q9 -32 19.5 -56t31 -52t47.5 -46.5t71 -30.5t99 -12q129 0 227 88t125 231q6 41 7 75.5t-8.5 61.5t-21.5 48.5t-32 37t-41 26.5t-48.5 17.5t-53 10t-55.5 3.5t-56.5 -1t-54.5 -5q-39 -3 -61.5 18.5t-18.5 58t38 68.5 l310 299q46 44 113 87v7h-522q-66 0 -54 79q16 74 80 74h686q38 0 51 -21.5t6 -52.5q-5 -36 -40 -67l-456 -405q-11 -13 -7 -18.5t13 -5.5q66 5 129.5 -5t120 -39t96 -72.5t56 -110.5t2.5 -148q-12 -65 -37 -127t-70.5 -125t-106 -110.5t-149 -77.5t-192.5 -30 q-326 0 -395 253z" />
<glyph unicode="4" horiz-adv-x="1113" d="M10 368q-3 16 0 36q6 36 26 62l715 865q78 90 168 90q61 0 88 -17.5t19 -70.5l-153 -862h121q62 0 50 -69q-5 -30 -24.5 -51.5t-52.5 -21.5h-120l-48 -273q-13 -76 -96 -76q-87 0 -75 76l48 273h-614q-23 0 -36 11.5t-16 27.5zM201 471h502l134 761q-62 -87 -119 -158 l-383 -460q-69 -86 -134 -143z" />
<glyph unicode="5" horiz-adv-x="1067" d="M32 237q-19 71 50 102q31 15 62 8t40 -38q9 -27 17.5 -46.5t22.5 -44t34 -42t47 -33t65 -23t84 -7.5q131 0 230.5 88.5t123.5 229.5q10 60 8.5 105.5t-17 80t-36.5 58t-52 39t-63.5 22.5t-69.5 9q-59 1 -134 -12t-126 -28q-92 -29 -137 7.5t-20 118.5l150 471 q18 56 49.5 79.5t83.5 23.5h546q38 0 52 -22t8 -54q-5 -32 -27 -54.5t-60 -22.5h-467q-19 0 -30 -5.5t-15.5 -14t-10.5 -26.5l-97 -306q-7 -29 5.5 -38.5t44.5 -2.5q65 15 108.5 21.5t100.5 6.5q40 0 79 -5t78 -16t72 -28.5t63.5 -43t51 -58.5t34.5 -75t14.5 -93.5 t-8.5 -113.5q-12 -66 -36.5 -128.5t-70 -126.5t-106 -111.5t-149 -77.5t-193.5 -30q-326 0 -399 257z" />
<glyph unicode="6" horiz-adv-x="1099" d="M66.5 425.5q2.5 61.5 10.5 121t23 121.5q30 125 96 245.5t161.5 224t225 180.5t274.5 109q46 10 73.5 -1t40.5 -45q8 -21 5.5 -36t-15 -26t-27 -16.5t-30.5 -7.5q-112 -17 -221 -76.5t-192 -141.5t-142.5 -179t-79.5 -189h6q65 92 172.5 147t214.5 55q65 0 120 -16.5 t95 -46.5t69 -72.5t43 -94t17.5 -111t-8.5 -124.5q-25 -138 -103 -245.5t-191.5 -165.5t-243.5 -58q-75 0 -136 16.5t-103.5 47t-74 71t-48.5 91.5t-25.5 106t-6 116.5zM240.5 364.5q1.5 -40.5 8.5 -78t26 -70t45 -57t66.5 -38.5t90.5 -14q93 0 167 47t119 122.5t62 171.5 q29 162 -30 244.5t-197 82.5q-49 0 -94.5 -15t-81.5 -41t-66.5 -59t-52 -70.5t-36 -74.5t-20.5 -71q-8 -39 -6.5 -79.5z" />
<glyph unicode="7" horiz-adv-x="918" d="M144 18.5q0 14.5 11 37.5l655 1164q16 30 -15 30h-569q-66 0 -54 79q16 76 83 76h701q71 0 57 -64q-2 -28 -19 -58l-649 -1227q-38 -76 -130 -76q-18 0 -32.5 3.5t-26.5 12t-12 23z" />
<glyph unicode="8" horiz-adv-x="1111" d="M43.5 260.5q-5.5 66.5 6.5 143.5q22 127 105 218.5t207 137.5q-77 45 -112 123t-17 178q30 167 152 266.5t322 99.5q133 0 218 -47t115.5 -128.5t11.5 -190.5q-18 -99 -81.5 -177.5t-156.5 -123.5q108 -46 159 -137.5t29 -218.5q-17 -96 -61.5 -176t-113.5 -139t-166 -92 t-213 -33q-94 0 -168 21.5t-122 60.5t-78.5 93.5t-36 121zM222.5 317q1.5 -36 8.5 -69.5t26 -63.5t46 -52.5t69 -36t94 -13.5q62 0 116 19t92 49.5t67.5 71t46.5 81.5t24 84q8 34 5 70t-11.5 70.5t-29 64.5t-47.5 53t-67 36.5t-88 13.5q-56 0 -108 -19t-91 -50t-70 -71.5 t-50 -83t-27 -84.5q-7 -34 -5.5 -70zM393 1059q-7 -39 3 -78.5t35.5 -72t70 -53t100.5 -20.5q55 0 106.5 20.5t88.5 53t61.5 72t32.5 78.5q4 24 4.5 46.5t-4 46t-13.5 44t-25.5 39t-39.5 31.5t-56.5 21t-74.5 8q-57 0 -104 -15t-78 -38t-54 -55t-35 -63t-18 -65z" />
<glyph unicode="9" horiz-adv-x="1097" d="M141 812q-4 69 8 147q24 139 104.5 247t196.5 165.5t247 57.5q90 0 159.5 -27t112.5 -75.5t69.5 -113t33 -142.5t-0.5 -161t-27 -171q-29 -124 -98 -247t-167.5 -228t-231 -183.5t-277.5 -110.5q-46 -11 -71 0t-38 46q-17 37 4.5 58.5t56.5 27.5q122 22 234 84t195 145.5 t142 178t84 187.5l-6 2q-43 -63 -108 -109t-137 -69t-144 -23q-77 0 -139.5 23t-104 64.5t-67.5 99.5t-30 127zM316 829.5q9 -59.5 35 -103t78 -69t125 -25.5q83 0 156.5 48t120 121.5t62.5 155.5q6 48 6 96t-15.5 92.5t-40.5 78.5t-69.5 54t-101.5 20q-92 0 -167.5 -46 t-121 -122t-62.5 -173q-14 -68 -5 -127.5z" />
<glyph unicode=":" horiz-adv-x="490" d="M48 104q10 59 39.5 88.5t94.5 29.5q68 0 87.5 -29t9.5 -89q-11 -62 -41 -93t-97.5 -31t-85.5 31t-7 93zM191 919q11 60 41 89.5t95 29.5q68 0 87 -29.5t7 -89.5q-4 -30 -12.5 -51.5t-24 -39t-41 -26.5t-60.5 -9q-66 0 -84 31.5t-8 94.5z" />
<glyph unicode=";" horiz-adv-x="471" d="M-49.5 -232q-0.5 10 3.5 23l119 353q26 77 126 73q48 -5 62 -36t-12 -77l-182 -324q-15 -28 -31 -38t-46 -9q-12 1 -21 5.5t-13.5 12t-5 17.5zM169 919q11 60 41 89.5t96.5 29.5t85.5 -29.5t8 -89.5q-10 -61 -40.5 -93.5t-96.5 -32.5q-68 0 -86 31.5t-8 94.5z" />
<glyph unicode="&#x3c;" horiz-adv-x="980" d="M2 524q6 41 28 64.5t70 45.5l797 354q19 7 32.5 10t26 0.5t17.5 -15.5t2 -37q-11 -81 -78 -97l-680 -311q-10 -4 -12 -14t6 -14l572 -311q31 -18 41 -38t1 -59q-8 -44 -31 -52.5t-59 10.5l-673 352q-42 21 -55.5 45.5t-4.5 66.5z" />
<glyph unicode="=" horiz-adv-x="1117" d="M65 536q11 70 73 70h854q61 0 50 -70q-16 -70 -77 -70h-852q-64 0 -48 70zM122.5 873.5q11.5 70.5 74.5 70.5h853q61 0 49.5 -70.5t-73.5 -70.5h-854q-61 0 -49.5 70.5z" />
<glyph unicode="&#x3e;" horiz-adv-x="980" d="M-12 102q6 39 23.5 59t55.5 38l680 311q10 4 11.5 14t-5.5 14l-573 311q-60 15 -42 97q4 24 13.5 37t22.5 15.5t25.5 -0.5t28.5 -10l674 -354q27 -15 41.5 -29t19 -33t0.5 -48q-4 -22 -11.5 -38t-19.5 -29t-28.5 -23.5t-40.5 -21.5l-796 -352q-43 -19 -63.5 -10.5 t-15.5 52.5z" />
<glyph unicode="?" horiz-adv-x="948" d="M138.5 1164.5q-2.5 17.5 2 31t12.5 22.5q39 45 80.5 79.5t93.5 62.5t116 43.5t139 17.5q70 2 135 -13t118 -47.5t89.5 -79t51 -111t1.5 -138.5q-6 -40 -19.5 -76t-34 -67t-41 -56.5t-50 -51.5t-52.5 -44t-56 -42q-16 -12 -45 -32.5t-43 -30.5t-37.5 -29t-36 -32 t-29.5 -33.5t-27.5 -41t-21.5 -47.5t-18 -58q-4 -13 -15 -23t-23.5 -14.5t-25.5 -4.5q-25 0 -43 10.5t-14 35.5q6 41 16.5 77t23.5 64t32.5 55.5t38 48.5t44.5 45.5t48 43.5t53.5 46.5t55.5 49.5q105 94 124 203q12 66 -3 116t-50 79t-79 43.5t-95 14.5q-167 0 -305 -141 q-22 -24 -47.5 -26t-48.5 20q-12 13 -14.5 30.5zM245 98q6 37 19 60.5t41 38t70 14.5q44 0 66.5 -13.5t26 -38.5t-1.5 -61q-10 -58 -38.5 -88t-92.5 -30t-82 29.5t-8 88.5z" />
<glyph unicode="@" horiz-adv-x="1500" d="M92 703q27 151 106.5 286.5t191.5 233t254 155t289 57.5q129 0 239 -46.5t184.5 -128t106.5 -200t8 -253.5q-33 -197 -163 -357q-41 -50 -90 -85.5t-98.5 -52.5t-98.5 -17q-59 0 -96 34t-38 92q-21 -27 -50.5 -51.5t-62.5 -41.5t-68.5 -27t-67.5 -10q-86 0 -140.5 34.5 t-73.5 94.5t-12 137t40 167q58 157 190.5 253.5t280.5 96.5h111q71 0 96 -32.5t2 -114.5l-98 -335q-1 -4 -4 -13q-5 -15 -7.5 -23.5t-6.5 -24.5t-5 -25.5t-1.5 -23t3 -21.5t9 -16t16.5 -12t25 -4q40 0 88 28.5t88 80.5q85 114 108 257q20 114 -5 210.5t-85.5 162t-151.5 102 t-199 36.5q-96 0 -190 -30.5t-174 -87t-145 -131t-109.5 -166t-61.5 -188.5q-22 -133 5 -245.5t94.5 -190.5t170.5 -121.5t228 -43.5q198 0 420 95q36 13 52.5 1.5t17.5 -43.5q2 -26 -12 -49.5t-40 -34.5q-229 -97 -459 -97q-153 0 -279 53.5t-209 148t-117 231.5t-6 296z M561.5 552q-1.5 -37 7 -64t31.5 -44t61 -17q44 0 91 23.5t85 68.5q26 29 46.5 68t30 66t25.5 80l51 173q6 22 1 29t-26 7h-92q-41 0 -79.5 -14.5t-68 -38t-55 -55.5t-43.5 -64.5t-31 -66.5q-15 -40 -24 -77t-10.5 -74z" />
<glyph unicode="A" horiz-adv-x="1141" d="M-66 12q-1 4 -1 8q0 15 13 38l650 1281q39 74 122 74q86 0 94 -74l203 -1281q1 -8 1 -15q0 -61 -74 -61q-48 0 -73 15.5t-32 58.5l-50 354h-492l-174 -354q-27 -39 -54.5 -56.5t-74.5 -17.5q-23 0 -37.5 7t-20.5 23zM362 542h406l-61 427q-5 31 -9 67.5t-5.5 60t-4.5 69 t-4 62.5q-55 -147 -110 -259z" />
<glyph unicode="B" horiz-adv-x="1167" d="M56 114q-1 8 -1 16q0 26 7 54l183 1036q7 41 19.5 72t34 58t58 41t85.5 14h372q80 0 146 -21.5t113 -63.5t67 -108q12 -39 11 -83q0 -31 -5 -66q-22 -120 -96 -201.5t-191 -114.5q121 -35 175 -129q37 -66 38 -152q0 -37 -7 -77q-22 -127 -94.5 -216t-175 -131 t-227.5 -42h-373q-49 0 -80.5 14.5t-43.5 40t-15 59.5zM228 205q-1 -9 -1 -16q0 -19 7 -30q10 -15 39 -15h311q116 0 203 66.5t108 184.5q6 36 6 68q0 87 -49 137q-67 68 -201 68h-340zM335 803h297q299 0 341 243q4 25 4 47q-1 27 -7 51q-12 42 -44 67.5t-75 38t-96 12.5 h-286q-19 0 -32 -6.5t-20 -20t-11 -35.5z" />
<glyph unicode="C" horiz-adv-x="1189" d="M71 500q2 94 21 203q17 92 41.5 174.5t59.5 156t79 134.5t99.5 109.5t120 82t142 51.5t165.5 18q67 0 126 -14t107 -40.5t84.5 -66t60 -89t31.5 -110.5q5 -33 5 -69q0 -30 -3 -61q-2 -34 -26.5 -52t-61.5 -21q-76 0 -76 61v17q0 58 -12 108q-14 58 -45 104.5t-85.5 73.5 t-128.5 27q-72 0 -134 -19.5t-108.5 -52t-85 -80t-65 -97.5t-48.5 -112.5t-35 -116.5t-24 -116q-11 -63 -17 -117t-6 -116q0 -3 1 -6q0 -58 8 -106q9 -50 31 -97.5t57 -79.5t90 -51t127 -19q74 0 138 26t111.5 72.5t82 104.5t56.5 126q10 31 35.5 46t60.5 14 q35 -2 53.5 -20.5t8.5 -54.5q-25 -95 -77.5 -177t-125 -142t-167 -94.5t-198.5 -34.5q-102 0 -182 24t-135.5 69.5t-91.5 109t-51 145.5q-13 72 -13 154v21z" />
<glyph unicode="D" horiz-adv-x="1216" d="M56 114q-1 7 -1 15q0 27 7 55l183 1036q7 41 19 71.5t34 58t58 41.5t86 14h274q95 0 173 -24.5t132.5 -69.5t93 -108t55 -139t18.5 -164q0 -10 1 -20q0 -78 -17 -162q-18 -103 -55.5 -202.5t-98.5 -194t-137.5 -165t-181 -113.5t-222.5 -43h-282q-50 0 -81.5 15 t-43.5 40.5t-14 58.5zM237 207q-2 -12 -2 -21q0 -15 6 -23q10 -12 40 -12h198q91 0 168.5 31t134.5 84t101.5 126.5t72 154t44.5 171.5q10 62 12 120q1 15 1 30q0 42 -5 81q-7 54 -23 100.5t-43.5 85.5t-64.5 66t-88.5 42t-114.5 15h-199q-30 0 -43.5 -13t-19.5 -45z" />
<glyph unicode="E" horiz-adv-x="1036" d="M56 114q-1 8 -1 16q0 26 7 54l183 1036q7 41 19.5 72t34 58t58 41t85.5 14h604q57 0 57 -53q0 -11 -3 -25q-5 -33 -25 -55t-58 -22h-544q-29 0 -43 -12.5t-20 -42.5l-69 -390h473q55 0 55 -53q0 -10 -2 -22q-15 -73 -78 -73h-473l-79 -446q-6 -31 4 -43.5t40 -12.5h544 q57 0 57 -53q0 -12 -3 -26q-12 -76 -80 -76h-604q-49 0 -80.5 14.5t-43.5 40t-15 59.5z" />
<glyph unicode="F" horiz-adv-x="1017" d="M40 58l205 1162q7 41 19 71.5t34 58t58 41.5t86 14h604q36 1 48 -21q8 -14 8 -34q0 -10 -2 -21q-5 -34 -25 -56.5t-58 -22.5h-544q-29 0 -43 -12.5t-20 -42.5l-73 -420h471q55 0 55 -53q0 -10 -2 -21q-5 -32 -23.5 -53.5t-54.5 -21.5h-472l-100 -568q-15 -76 -100 -76 q-37 0 -58 18q-15 13 -15 37q0 10 2 21z" />
<glyph unicode="G" horiz-adv-x="1245" d="M74 464v20q0 102 18 219q20 108 50.5 202t74 176t102 145.5t129.5 109t159.5 69.5t191.5 24q110 0 198 -37.5t146 -116.5t69 -191v-11q0 -38 -19 -62q-22 -27 -59 -27q-18 0 -30 1.5t-23.5 6t-19 12.5t-13 21t-8.5 32q-7 50 -27 93t-52.5 76t-80 52t-105.5 19 q-64 0 -120 -14.5t-99.5 -42t-81 -62t-65.5 -80t-50.5 -91.5t-39 -100.5t-28 -102t-21.5 -101.5q-10 -59 -14 -116q-3 -34 -3 -69q0 -24 1 -48q3 -59 14.5 -110.5t35.5 -98t59.5 -79.5t88.5 -52t120 -19q66 0 125.5 25t105.5 67.5t83 99t60.5 119t34.5 128.5q4 24 -3.5 33 t-23.5 9h-268q-54 0 -54 48q0 10 2 22q11 68 76 68h305q74 0 106.5 -17t38.5 -59q1 -11 1 -25q0 -35 -10 -85q-17 -90 -51.5 -173t-88.5 -155t-122.5 -125t-157 -83.5t-187.5 -30.5q-114 0 -202.5 35t-144.5 98.5t-88.5 153t-34.5 200.5z" />
<glyph unicode="H" horiz-adv-x="1205" d="M38 56l227 1281q4 28 21 46t36.5 24t43.5 6q36 0 57 -17.5t14 -58.5l-90 -514h603l90 514q7 41 34 58.5t64 17.5q74 0 74 -57q0 -9 -2 -19l-226 -1281q-13 -74 -99 -74q-37 0 -58 17t-15 57l109 612h-602l-108 -612q-13 -74 -98 -74q-37 0 -59 17q-17 13 -18 39q0 9 2 18 z" />
<glyph unicode="I" horiz-adv-x="431" d="M40 58l225 1281q6 39 34 56.5t65 17.5q36 0 57 -17q16 -13 16 -38q0 -9 -2 -19l-224 -1281q-15 -76 -100 -76q-37 0 -58 18q-15 13 -15 37q0 10 2 21z" />
<glyph unicode="J" horiz-adv-x="758" d="M-76 32q-4 10 -4 21q0 16 6 35q9 34 34 51.5t56 7.5q78 -25 126 -25q51 0 91 9.5t69 29t50 44t36 61.5t24.5 74.5t18.5 88.5l161 910q7 39 35.5 56.5t65.5 17.5q36 0 56 -17q15 -13 15 -38q0 -9 -2 -19l-158 -906q-14 -77 -39 -143.5t-65 -125.5t-91.5 -100.5t-121 -65.5 t-151.5 -24q-80 0 -172 26q-32 10 -40 32z" />
<glyph unicode="K" horiz-adv-x="1061" d="M40 58l225 1279q6 40 35 58t66 18q35 0 55.5 -18t13.5 -58l-100 -575l621 596q30 32 60 45q20 8 44 8q13 0 26 -2q42 -5 46 -35v-7q0 -28 -36 -67l-456 -425l312 -785q14 -33 13 -55t-15.5 -34t-43.5 -17q-19 -3 -34 -3q-68 0 -87 49l-279 717l-209 -197l-86 -492 q-7 -40 -34.5 -58t-64 -18t-58.5 18q-16 14 -16 40q0 8 2 18z" />
<glyph unicode="L" horiz-adv-x="910" d="M56 114q-1 8 -1 17q0 26 7 53l203 1155q3 20 13.5 35.5t25 23.5t30 11.5t32.5 3.5q36 0 57 -17t14 -57l-198 -1128q-6 -31 4 -43.5t40 -12.5h456q37 0 49 -22q8 -14 8 -32q0 -11 -3 -23q-12 -78 -81 -78h-515q-50 0 -82 15t-44 40.5t-15 58.5z" />
<glyph unicode="M" horiz-adv-x="1350" d="M40 58l225 1279q7 38 34.5 57t66.5 19q41 0 62.5 -17.5t35.5 -58.5l229 -667l463 667q31 41 58 58.5t69 17.5q38 0 58 -19q15 -14 15 -39q0 -9 -2 -18l-224 -1279q-8 -42 -30.5 -59t-57.5 -17q-73 0 -73 56q0 8 2 18l191 1076q-56 -98 -74 -123l-326 -463 q-48 -73 -103 -73q-31 0 -50.5 19t-32.5 54l-160 463q-13 40 -31 123l-190 -1076q-12 -74 -95 -74q-36 0 -52 17q-11 11 -11 34q0 11 3 25z" />
<glyph unicode="N" horiz-adv-x="1233" d="M36 42l229 1297q6 37 37.5 55.5t72.5 18.5q37 0 60 -14t34 -47l446 -1117q2 52 10.5 133.5t18.5 137.5l148 846q4 19 17 33t31 21t38 7q32 0 50 -14q14 -11 14 -32q0 -7 -1 -15l-230 -1298q-5 -37 -35 -54.5t-72 -17.5q-76 0 -99 60l-439 1106q-3 -100 -23 -213 l-159 -893q-10 -60 -84 -60q-31 0 -50 14q-15 11 -15 33q0 6 1 13z" />
<glyph unicode="O" horiz-adv-x="1296" d="M72 464v5q0 108 20 234q29 163 86.5 294t144 228.5t207.5 150.5t269 53q118 0 208 -34.5t145.5 -98t86.5 -153.5t31 -200.5t-21 -239.5q-29 -163 -86.5 -294.5t-144 -228.5t-207.5 -150t-267 -53q-117 0 -207 34.5t-145.5 98t-87.5 154t-32 200.5zM275 703 q-21 -123 -22 -220q0 -372 313 -372q396 0 499 592q22 124 22 222q0 372 -312 372q-70 0 -131 -19.5t-107 -52t-85.5 -79.5t-66.5 -98t-49 -112.5t-36 -116.5t-25 -116z" />
<glyph unicode="P" horiz-adv-x="1093" d="M38 56l207 1164q7 41 19 71.5t34 58t58 41.5t86 14h317q93 0 167.5 -29t122.5 -82.5t66 -132.5q9 -41 10 -86q0 -43 -9 -89q-31 -184 -166.5 -300t-319.5 -116h-329l-92 -514q-13 -74 -98 -74q-37 0 -59 17q-16 13 -16 39q0 8 2 18zM325 716h313q119 0 201.5 74.5 t104.5 195.5q6 32 6 62q0 76 -38 132q-52 78 -165 78h-272q-30 0 -43.5 -13t-19.5 -45z" />
<glyph unicode="Q" horiz-adv-x="1296" d="M72 464v5q0 108 20 234q29 163 86.5 294t144 228.5t207.5 150.5t269 53q118 0 208 -34.5t145.5 -98t86.5 -153.5t31 -200.5t-21 -239.5q-39 -222 -133 -385.5t-241 -250.5l119 -197q19 -32 -7 -53.5t-66 -21.5q-22 0 -33.5 1t-29.5 6t-31.5 17.5t-23.5 33.5l-79 149 q-87 -25 -180 -25q-117 0 -207 35t-145.5 98.5t-87 153t-32.5 200.5zM273 703q-21 -122 -21 -219q0 -373 314 -373q46 0 96 10l-68 126q-14 28 4.5 49t50.5 27q31 6 52.5 -1.5t31 -19t22.5 -33.5l52 -87q192 139 258 521q22 124 22 222q0 372 -312 372q-70 0 -131.5 -19.5 t-108 -52t-85.5 -79.5t-66.5 -98t-49.5 -112.5t-36 -116.5t-25 -116z" />
<glyph unicode="R" horiz-adv-x="1153" d="M40 58l205 1162q7 41 19.5 72t34.5 58t58.5 41t86.5 14h316q94 0 168.5 -26.5t123.5 -76t68 -126.5q10 -41 10 -86q0 -41 -8 -86q-27 -153 -128.5 -242.5t-254.5 -119.5q41 -21 71.5 -57t47.5 -74t33 -92q11 -35 31.5 -110.5t38 -131.5t39.5 -108q13 -35 1.5 -55 t-47.5 -28q-16 -3 -30 -3q-18 0 -36 5q-30 9 -43 30q-20 28 -35 60.5t-26 68.5t-19 66.5t-17.5 72.5t-17.5 69q-37 138 -102 194.5t-188 56.5h-133l-96 -548q-15 -76 -98 -76q-37 0 -59 18q-16 13 -16 37q0 10 2 21zM331 751h255q43 0 82.5 5.5t78 18t71 33t59.5 47.5 t45.5 65t27.5 84q5 31 5 59q0 75 -39 125q-54 70 -169 70h-270q-20 0 -33 -5.5t-20.5 -18t-11.5 -34.5z" />
<glyph unicode="S" horiz-adv-x="1129" d="M-4 385q6 31 33.5 49t62.5 18q42 0 60 -19.5t15 -51.5q-3 -21 -3 -40q0 -55 27 -101q37 -62 110.5 -94.5t167.5 -32.5q84 0 160 30t132.5 92.5t71.5 145.5q3 19 3 37q0 31 -10 57q-16 42 -40.5 67t-72.5 48t-80 32.5t-85 23.5q-5 1 -16 4q-82 22 -124.5 35.5t-108.5 46.5 t-95.5 70.5t-47.5 101.5q-10 35 -10 75q0 34 7 71q13 75 50 139t88.5 108.5t115.5 75.5t132 45.5t137 14.5q96 0 172.5 -19t135.5 -58.5t91 -106t32 -155.5q-3 -79 -90 -79q-31 0 -53 15t-25 50q-3 57 -28.5 99.5t-67.5 67t-91.5 36.5t-105.5 12q-51 0 -101.5 -15.5 t-94.5 -44.5t-75.5 -75t-41.5 -103q-3 -16 -3 -30q0 -29 10 -54q16 -38 40 -61t71 -44t75.5 -29.5t80.5 -21.5q2 -1 3.5 -1t3 -0.5t2.5 -1.5q175 -45 247 -81q167 -83 172 -245v-15q0 -35 -7 -75q-15 -85 -55 -156t-96.5 -120t-127 -83.5t-145.5 -50.5t-152 -16 q-84 0 -157 14.5t-134 46.5t-101 79q-40 48 -58 118q-10 42 -11 88q0 32 5 67z" />
<glyph unicode="T" horiz-adv-x="986" d="M163 1327q15 78 82 78h791q57 0 57 -53q0 -11 -3 -25q-5 -33 -25 -55t-58 -22h-308l-211 -1194q-12 -74 -99 -74q-73 0 -73 55q0 9 2 19l210 1194h-311q-56 0 -56 55q0 10 2 22z" />
<glyph unicode="U" horiz-adv-x="1214" d="M100 261q-5 30 -4 64q0 51 11 110l158 904q6 39 34 56.5t65 17.5q36 0 57 -17t14 -57l-165 -931q-2 -18 -4 -35t0 -48t9 -56t25 -54t45.5 -48.5t74 -32.5t106.5 -13t111.5 13t86 33t63 48t44.5 54t28 56t16.5 48t7.5 35l165 931q6 40 33.5 57t64 17t58.5 -17 q16 -13 16 -39q0 -8 -2 -18l-159 -904q-10 -61 -29.5 -114.5t-45.5 -96.5t-58.5 -79t-70.5 -63t-79.5 -47.5t-87 -33.5t-92.5 -19t-96 -6q-80 0 -146 16t-121 50.5t-88 88.5t-45 130z" />
<glyph unicode="V" horiz-adv-x="1133" d="M171 1339q-1 8 -1 15q0 28 22 42q28 18 69 17q32 0 49 -7t25 -22t12 -45l128 -862q3 -15 12 -72.5t13.5 -94.5t7.5 -73q43 107 114 240l433 862q22 44 44.5 59t70.5 15q41 1 62 -17q10 -9 10 -23.5t-10 -33.5l-660 -1281q-21 -38 -46 -57t-60 -19q-18 0 -29.5 2t-24 9 t-20 23t-11.5 42z" />
<glyph unicode="W" horiz-adv-x="1597" d="M169 1339q-1 6 -1 12q0 29 25 44q30 18 72 18q47 0 62 -15t18 -59l50 -862q11 -161 11 -231v-11q33 108 90 242l355 862q17 39 42 56.5t66 17.5q28 0 46 -8t27 -24t10 -42l50 -862q1 -21 3.5 -61t3.5 -60.5t1.5 -60t-0.5 -60.5q22 75 90 242l355 862q19 44 41 59t70 15 q18 0 29 -3.5t17 -11.5q6 -7 6 -20q0 -16 -10 -39l-544 -1281q-22 -50 -46 -63t-74 -13q-38 0 -56 18t-21 58l-64 863q-1 22 -1 51q0 58 5 144q-48 -140 -72 -195l-367 -863q-23 -50 -47 -63t-72 -13q-40 0 -57.5 18t-18.5 58z" />
<glyph unicode="X" horiz-adv-x="1069" d="M-52 56l514 674l-247 607q-8 22 -5.5 37t15.5 23.5t28.5 12t33.5 3.5q63 0 89.5 -15t42.5 -61l169 -462l331 462q31 45 64.5 60.5t96.5 15.5q50 0 50 -27q0 -18 -23 -49l-446 -590l276 -691q7 -22 3.5 -36t-19 -22.5t-32.5 -12t-36 -3.5h-20.5t-17.5 1.5t-19 4t-16 7.5 t-17.5 13t-14.5 20t-15 28l-203 534l-394 -534q-16 -22 -30.5 -37t-24 -22t-24.5 -10.5t-21.5 -4t-25.5 -0.5t-36 4q-16 4 -29 12t-13 21q0 14 16 37z" />
<glyph unicode="Y" horiz-adv-x="996" d="M153 1331q-4 12 -4 22q0 21 18 37q27 23 66 23q43 0 64 -11t36 -54l167 -517q18 -50 26 -96q22 45 60 100l347 513q28 42 54 53.5t72 11.5q19 0 34 -4t25 -13q8 -7 8 -20v-5q-2 -17 -19 -40l-521 -733l-94 -540q-15 -76 -99 -76q-37 0 -58.5 17.5t-13.5 58.5l95 540z" />
<glyph unicode="Z" horiz-adv-x="1003" d="M-58 78q4 25 28 58l748 954q96 117 145 160h-646q-56 0 -56 57q0 10 2 22q15 76 82 76h766q37 1 49 -21q7 -13 8 -32q0 -11 -3 -23q-3 -30 -19 -52l-751 -956q-81 -101 -146 -166h642q37 0 49 -22t5 -55q-12 -78 -81 -78h-766q-58 0 -58 58q0 9 2 20z" />
<glyph unicode="[" horiz-adv-x="503" d="M-10 -226l265 1509q11 65 46.5 93.5t96.5 28.5h202q41 0 30 -53q-3 -18 -10 -31t-17 -18.5t-23 -5.5h-155q-12 0 -20 -3.5t-11.5 -10.5t-4.5 -10t-2 -11l-259 -1469q0 -6 -1.5 -14t5.5 -15t23 -7h154q41 0 30 -54q-3 -19 -9.5 -30.5t-15.5 -16.5t-23 -5h-203 q-61 0 -86 28t-12 95z" />
<glyph unicode="\" horiz-adv-x="946" d="M155 1350q-17 59 48 59q67 0 84 -59l490 -1643q10 -32 -7 -45t-48 -13q-61 0 -78 58z" />
<glyph unicode="]" horiz-adv-x="505" d="M-142 -297q13 54 50 54h154q5 0 10 1t8 2.5l6 3t4.5 4.5t3 5t2 5.5t1 5.5t1 5t0.5 4l260 1469q0 1 0.5 5t1 5.5t0.5 5.5t-1 6l-2.5 5t-4.5 4t-8 2.5t-11 1.5h-155q-38 0 -31 55q3 22 16.5 37.5t35.5 15.5h201q61 0 86 -28.5t14 -93.5l-265 -1509q-13 -67 -48 -95t-97 -28 h-199q-42 0 -33 52z" />
<glyph unicode="^" horiz-adv-x="969" d="M134 847l337 467q29 41 47 59.5t46.5 31t69.5 12.5q30 0 50 -5.5t33.5 -20.5t21.5 -30.5t20 -46.5l172 -467q26 -76 -50 -79q-28 -1 -43.5 5t-22 14.5t-16.5 31.5l-181 426q-12 27 -30 0l-333 -426q-24 -32 -41 -42t-57 -9q-77 3 -23 79z" />
<glyph unicode="_" horiz-adv-x="1069" d="M-126 -211q5 31 23 52t51 21h923q62 0 50 -73q-12 -70 -74 -70h-923q-34 0 -45 20t-5 50z" />
<glyph unicode="`" horiz-adv-x="421" d="M245 1337q-14 29 8.5 51t64.5 23q51 2 70.5 -10.5t25.5 -33.5l50 -205q3 -15 -12 -29.5t-38 -14.5q-29 -1 -43.5 6t-21.5 27z" />
<glyph unicode="a" d="M12 280v10q0 62 11 133q29 182 127.5 322t251.5 217.5t337 77.5h90q25 0 45.5 -4t34.5 -9.5t24 -15.5t16 -19t8.5 -24.5t3.5 -25.5v-8q0 -10 -1 -22q-2 -18 -3.5 -28.5t-4.5 -30.5l-103 -572q-16 -99 -16 -233q0 -38 -13.5 -54.5t-49.5 -17.5q-32 -2 -54 14t-25 46 q-4 26 -5 50t-1 34.5t1.5 37.5t1.5 33q-43 -91 -150 -155t-211 -64q-79 0 -139.5 22.5t-96.5 63.5t-57 98t-22 124zM174 343q-1 -10 0 -20q0 -35 6 -69q8 -44 28.5 -74.5t59 -49.5t92.5 -19q51 0 99.5 21.5t87.5 58.5t72.5 84t58.5 99.5t41.5 103.5t25.5 98l50 285 q2 11 2 19q0 13 -5 21q-8 12 -39 12q-102 0 -194.5 -31.5t-168.5 -90t-129.5 -149t-74.5 -202.5q-10 -52 -12 -97z" />
<glyph unicode="b" horiz-adv-x="1057" d="M38 50l229 1295q5 37 31 53.5t60 16.5q33 0 52 -16.5t13 -53.5l-80 -445q152 165 341 165q88 0 151.5 -29t98 -78t49.5 -120q13 -61 13 -126v-22q-2 -78 -19 -171q-11 -64 -28.5 -122.5t-42 -113.5t-55.5 -101.5t-71 -85.5t-86.5 -66t-103.5 -41.5t-121 -14.5 q-96 0 -168 55.5t-96 133.5l-21 -113q-12 -70 -84 -70q-64 0 -64 52q0 8 2 18zM262 383q0 -50 12 -99q12 -51 36 -88.5t69.5 -60t106.5 -22.5q46 0 85 13t68.5 35t54.5 55t42 67t31 77t23 80t17 79q7 43 11.5 80t5.5 79v14q0 34 -4 64q-5 34 -18.5 67t-35 55t-56 35.5 t-80.5 13.5q-71 0 -131.5 -28.5t-102 -78t-69 -110.5t-40.5 -130l-14 -82q-11 -61 -11 -115z" />
<glyph unicode="c" horiz-adv-x="950" d="M60 517q17 98 46 179t74 149.5t104 115t139 72.5t177 26q74 0 131 -21t90 -52.5t54 -73.5t28 -78q6 -32 6 -65v-9q0 -26 -7 -43.5t-23 -27.5t-42 -13q-37 -1 -58 13t-22 44q-3 44 -12.5 78.5t-29.5 63t-55 43.5t-84 15q-66 0 -121.5 -26t-92 -66.5t-65 -97.5t-44.5 -111 t-27 -115q-8 -50 -12 -95q-2 -29 -2 -59q0 -17 1 -35q2 -49 16 -88t37.5 -71t65 -49.5t97.5 -17.5q94 0 153 53.5t98 147.5q24 58 88 58q6 0 13 -1q38 -3 47.5 -23.5t-3.5 -61.5q-13 -36 -33 -72.5t-55.5 -78t-79.5 -72t-108.5 -51.5t-138.5 -21q-367 0 -367 365 q0 78 17 172z" />
<glyph unicode="d" horiz-adv-x="1057" d="M60 519q16 93 41 170.5t65.5 148.5t92.5 120t126 78t163 29q68 0 124.5 -22.5t93 -58.5t61.5 -84l80 445q3 13 8.5 24t14 19.5t19 14.5t23 9t26.5 3q33 -1 52 -17q14 -13 14 -36q0 -8 -1 -17l-228 -1295q-12 -70 -86 -70q-33 0 -50 17.5t-11 52.5l21 113 q-53 -78 -145 -133.5t-189 -55.5q-88 0 -153.5 28.5t-103.5 78.5t-56 120q-18 68 -19 145q0 80 17 173zM216 380q-1 -16 -1 -32q0 -18 2 -36q3 -32 10 -63.5t22 -55t35.5 -42.5t52 -28.5t71.5 -9.5q61 0 114 22.5t91 60t68 88.5t47.5 103.5t28.5 110.5l13 82q9 46 9 88 t-7.5 81t-25 71.5t-43.5 56.5t-64.5 37t-86.5 13q-63 0 -113.5 -26t-83 -65t-58.5 -96.5t-39.5 -108t-24.5 -112.5q-6 -36 -10.5 -69t-6.5 -70z" />
<glyph unicode="e" horiz-adv-x="1019" d="M51 376q-1 12 -1 23q0 56 12 115q14 87 44.5 167t79 151t110.5 123t145.5 82.5t178.5 30.5q127 0 212.5 -53.5t117.5 -149.5q19 -55 19 -120q0 -48 -10 -101q-4 -25 -9.5 -42.5t-18.5 -37t-32.5 -31.5t-52 -19.5t-76.5 -7.5h-533q-7 -45 -10 -86l-2 -38q1 -22 3 -44 q4 -40 13.5 -74.5t28 -64.5t44.5 -51t63.5 -32.5t84.5 -11.5q87 0 161.5 47.5t115.5 133.5q9 17 24 29.5t34 18t38 2.5q33 -4 45 -24t-1 -56q-37 -89 -109.5 -154.5t-160 -97t-180.5 -31.5q-77 0 -140.5 20.5t-106 57t-73.5 87.5t-43 111t-15 128zM263 626h499 q11 0 18.5 2.5t14.5 7.5t11 14.5t6 23.5q4 32 4 60q0 47 -12 84q-20 60 -71 93t-129 33q-63 0 -122.5 -28t-103 -73.5t-74 -102t-41.5 -114.5z" />
<glyph unicode="f" horiz-adv-x="636" d="M-169 -311.5q0 16.5 6 34.5q23 58 76 58h5h10q155 0 183 173l168 959h-124q-46 0 -46 43q0 10 2 21q2 18 8.5 31t21 22.5t35.5 9.5h125l15 74q53 308 342 308q20 0 41 -1q45 -4 45 -45q0 -14 -5 -33q-8 -27 -27.5 -42.5t-47.5 -15.5q-45 0 -79.5 -12.5t-54 -29.5 t-33 -43.5t-18 -44t-8.5 -41.5l-11 -74h199q47 0 47 -49q0 -7 -1 -14q-12 -64 -69 -64h-201l-168 -961q-54 -308 -350 -308q-17 0 -34 1q-25 2 -38.5 14.5t-13.5 29z" />
<glyph unicode="g" horiz-adv-x="1032" d="M16 -249q11 38 37 48.5t60 -2.5q97 -33 191 -33q36 0 71 5q134 17 211.5 105.5t101.5 227.5l9 49q-45 -65 -134 -110t-182 -45q-88 0 -154 26.5t-104 74t-59 113.5q-18 59 -18 129v14q2 78 16 166q15 91 42.5 170t71 149t99.5 120t132 78.5t165 28.5q183 0 265 -170 l18 97q12 69 84 69q65 0 65 -51q0 -8 -2 -18l-157 -892q-34 -188 -155 -315t-305 -153q-59 -7 -113 -7q-117 0 -210 34q-51 17 -51 62q0 14 5 30zM217 339q1 -27 6 -54.5t14.5 -49t25 -41t36.5 -32.5t50 -20.5t65 -7.5q60 0 111.5 20t89 52.5t66.5 77.5t46.5 93t27.5 100 l15 97q8 43 9 84v12q0 35 -5 69q-6 40 -22 73.5t-41 59.5t-63.5 40.5t-87.5 14.5q-254 0 -327 -408q-6 -32 -9.5 -60.5t-5.5 -60.5q-1 -21 -1 -40v-19z" />
<glyph unicode="h" horiz-adv-x="1034" d="M38 50l229 1295q5 37 30.5 53.5t60.5 16.5q33 0 52 -16.5t13 -53.5l-84 -476q77 99 169 150t187 51q58 0 102.5 -12.5t73.5 -34t47.5 -55t26.5 -69.5q9 -36 9 -83q0 -4 -1 -9q0 -42 -4 -82q-5 -44 -14 -99l-102 -578q-12 -68 -90 -68q-69 0 -69 51q0 8 2 17l109 622 q10 55 10 98q0 163 -149 163q-55 0 -107 -20.5t-93 -56t-74 -81.5t-54.5 -97.5t-30.5 -103.5l-92 -522q-12 -70 -91 -70q-68 0 -68 53q0 8 2 17z" />
<glyph unicode="i" horiz-adv-x="448" d="M54 48l165 942q12 69 92 69q66 0 66 -51q0 -9 -2 -18l-164 -942q-13 -68 -90 -68q-69 0 -69 51q0 8 2 17zM258 1262v14q0 18 3 40q8 47 34 73t78 26q36 0 55 -13q20 -12 23 -34q1 -9 1 -20q0 -14 -2 -32q-8 -50 -33 -78t-80 -28q-38 0 -57.5 14t-21.5 38z" />
<glyph unicode="j" horiz-adv-x="454" d="M-257 -309q-2 7 -2 15q0 17 10 37q21 45 60 45q9 0 20 -3q37 -9 56 -7q34 1 61.5 16t44 35.5t29.5 52.5t19 57.5t13 60.5l172 990q13 69 93 69q66 0 66 -51q0 -9 -2 -18l-172 -990q-12 -63 -26 -109.5t-40.5 -96t-63 -81t-93.5 -51.5t-130 -20q-39 0 -80 17 q-28 10 -35 32zM269 1316q7 48 33 73.5t79 25.5q36 0 55 -12.5t22 -34.5v-18q0 -16 -2 -34q-9 -51 -33 -77.5t-78 -26.5q-56 0 -71 26q-8 17 -8 43q0 15 3 35z" />
<glyph unicode="k" horiz-adv-x="881" d="M38 52l229 1295q6 37 30.5 53.5t57.5 16.5q34 0 54.5 -16.5t13.5 -53.5l-134 -761l464 419q56 49 102 49q14 0 26 -4q40 -13 40 -43q0 -26 -32 -55l-335 -301l223 -571q14 -35 7.5 -59t-37.5 -37q-15 -4 -31 -6q-8 -1 -17 -1q-9 1 -17 1q-18 2 -32 10.5t-20 25.5 l-197 530l-180 -163l-58 -329q-13 -72 -93 -72q-33 0 -52 16q-14 12 -14 37q0 9 2 19z" />
<glyph unicode="l" horiz-adv-x="416" d="M38 48l229 1297q5 37 31 53.5t60 16.5q33 -1 52 -17q14 -13 14 -36q0 -8 -1 -17l-228 -1297q-12 -71 -91 -71q-34 1 -54 17q-14 12 -14 35q0 9 2 19z" />
<glyph unicode="m" horiz-adv-x="1597" d="M38 48l165 931q10 69 88 69q59 0 59 -52q0 -8 -1 -17l-26 -140q57 81 116.5 130.5t116.5 69.5t124 20q56 0 102 -20t75 -52.5t45.5 -70t18.5 -75.5q72 96 164.5 157t195.5 61q54 0 96 -13.5t68 -35t43 -53t24 -62.5t8 -68v-18q0 -25 -2 -47q-3 -28 -9 -59l-114 -655 q-13 -68 -91 -68q-33 0 -52.5 15.5t-12.5 52.5l111 645q5 28 7 51.5t1.5 51t-9 48.5t-23 39.5t-41.5 28t-63 9.5q-70 0 -141.5 -42.5t-121.5 -111t-64 -143.5l-100 -576q-13 -68 -90 -68q-34 0 -54 15.5t-13 52.5l109 616q9 54 9 96q0 161 -134 161q-117 0 -211.5 -93.5 t-119.5 -225.5l-96 -554q-12 -68 -91 -68q-68 0 -68 51q0 8 2 17z" />
<glyph unicode="n" horiz-adv-x="1034" d="M38 48l167 944q10 67 86 67q61 0 61 -51q0 -7 -1 -16l-28 -153q155 220 380 220q54 0 97 -13.5t70.5 -35.5t46 -52.5t27 -62.5t10.5 -68q1 -20 2 -38q0 -13 -1 -27q-2 -30 -7 -59l-115 -655q-12 -68 -90 -68q-69 0 -69 51q0 8 2 17l113 645q6 32 6.5 61.5t-7 61t-23.5 54 t-47 37t-74 14.5q-55 0 -107 -20.5t-92.5 -56t-74 -81.5t-55 -97.5t-30.5 -103.5l-90 -514q-12 -68 -91 -68q-68 0 -68 51q0 8 2 17z" />
<glyph unicode="o" horiz-adv-x="1029" d="M60 517q21 124 62 220t105.5 170t159 113t215.5 39q365 0 365 -367q0 -79 -17 -175q-95 -537 -538 -537q-369 0 -369 365q0 78 17 172zM212 322q2 -50 15.5 -90t37.5 -73t66 -51t98 -18q67 0 123 27t93.5 68t66.5 100t45.5 114t27.5 118q7 39 11 74q2 35 4 73q0 10 1 19 q1 28 -3 54q-4 34 -13.5 66t-26.5 57.5t-40.5 45t-58 30t-77.5 10.5q-67 0 -123 -27t-93 -68.5t-66.5 -100.5t-45.5 -114t-28 -119q-8 -51 -12 -98q-2 -30 -3 -61q0 -18 1 -36z" />
<glyph unicode="p" horiz-adv-x="1059" d="M-24 -305l229 1297q10 67 88 67q61 0 61 -51q0 -8 -1 -16l-20 -113q151 186 351 186q88 0 151.5 -29t98.5 -78t50 -120q14 -61 14 -127v-22q-3 -78 -19 -170q-16 -90 -43.5 -169t-71 -149t-99 -120t-131.5 -78.5t-165 -28.5q-90 0 -155 45t-103 117l-77 -441 q-12 -68 -92 -68q-33 0 -53 15q-15 12 -15 35q0 8 2 18zM266 401q0 -43 7 -85t24 -78.5t42 -64.5t63.5 -44t85.5 -16q62 0 113 25.5t83.5 64.5t58 96t39 108t25.5 112q7 43 11.5 80t5.5 79v14q0 35 -4 64q-5 34 -18 67t-34.5 55t-56 35.5t-79.5 13.5q-69 0 -130 -30 t-103 -80t-69.5 -109.5t-38.5 -123.5l-18 -98q-7 -42 -7 -85z" />
<glyph unicode="q" horiz-adv-x="1057" d="M60 519q13 77 33 143t48.5 129t67.5 111.5t87.5 86t112 57t137.5 19.5q198 0 289 -186l18 111q12 69 86 69q63 0 63 -51q0 -8 -2 -18l-228 -1295q-12 -70 -90 -70q-68 0 -68 53q0 8 2 17l77 441q-63 -72 -145 -117t-173 -45q-88 0 -153.5 28.5t-103.5 78.5t-56 120 q-19 68 -19 145q0 80 17 173zM214 334q1 -29 6 -58.5t14 -53t24.5 -44.5t36 -35t49 -22t64.5 -8q55 0 106.5 22.5t90.5 60.5t70.5 86.5t51 99.5t28.5 102l17 100q7 47 7 92q0 3 -1 6q0 49 -16 93t-42 78t-69.5 54t-98.5 20q-63 0 -113.5 -26t-83.5 -65t-59 -96t-40 -108 t-25 -113q-6 -32 -9.5 -61t-5.5 -62q-2 -24 -2 -46v-16z" />
<glyph unicode="r" horiz-adv-x="689" d="M38 48l165 942q12 69 88 69q34 0 50.5 -15t9.5 -54l-24 -137q60 93 152 156q87 59 176 59h11q63 -2 63 -57q0 -11 -3 -25q-7 -39 -27 -54t-59 -19q-54 -3 -101 -21t-84 -46.5t-67 -65.5t-51.5 -80.5t-36 -87.5t-23.5 -91l-82 -473q-12 -68 -91 -68q-34 0 -54 16 q-14 11 -14 34q0 8 2 18z" />
<glyph unicode="s" horiz-adv-x="929" d="M18 265q0 36 21.5 59t52.5 23q25 0 41.5 -4t30 -17t14.5 -37q8 -98 62.5 -144.5t178.5 -46.5q52 0 104 21t91 63t48 95q3 14 3 28q0 91 -126 130q-33 11 -102 25t-105 23t-92 32t-82.5 51.5t-42.5 78.5q-9 29 -9 62q0 25 5 53q14 76 57 136.5t103.5 97t128.5 55.5t138 19 q157 0 241 -56t94 -177q1 -7 1 -13q0 -32 -19 -48q-22 -18 -70 -19q-73 0 -73 48q0 69 -50 105t-141 36q-23 0 -48.5 -4t-52.5 -12t-51.5 -21.5t-44.5 -31t-34.5 -42t-19.5 -52.5q-4 -25 2.5 -46t17.5 -36t32.5 -27.5t39.5 -20t47 -15t45.5 -10.5t43.5 -8q65 -11 109 -22.5 t96 -36t80.5 -57.5t42.5 -87q8 -30 9 -64q0 -28 -6 -60q-12 -67 -44.5 -122t-77.5 -91t-101.5 -60.5t-114 -35t-116.5 -10.5q-176 0 -268 78q-89 75 -89 206v9z" />
<glyph unicode="t" horiz-adv-x="701" d="M98 952v7q0 8 2 16q12 65 69 65h134l34 201q12 69 92 69q67 0 67 -52q0 -8 -2 -17l-34 -201h191q46 0 46 -44q0 -9 -2 -21q-11 -62 -67 -62h-191l-104 -590q-6 -29 -6 -57v-14q2 -36 12 -64t38 -46t71 -18q27 0 76 8q31 10 49.5 0.5t12.5 -44.5q-5 -34 -17.5 -52.5 t-42.5 -29.5q-49 -16 -95 -16q-74 0 -127 17t-82.5 46t-43 73t-13.5 91t11 106l105 590h-134q-16 0 -27 5.5t-15.5 14t-6.5 19.5z" />
<glyph unicode="u" horiz-adv-x="1034" d="M64 213q-2 20 -2 40q0 54 12 115l108 622q12 69 93 69q35 0 53 -17t11 -52l-106 -611q-9 -47 -12 -82q-1 -14 -1 -28q0 -21 2 -43q4 -36 20 -60t48 -38.5t79 -14.5q69 0 131.5 32.5t108 85t77 116.5t42.5 130l91 513q12 69 94 69q66 0 66 -51q0 -8 -2 -18l-163 -930 q-4 -26 -19 -42t-32.5 -22t-38.5 -6q-33 0 -48 15.5t-8 54.5l25 139q-157 -219 -372 -219q-84 0 -141.5 29.5t-83.5 81t-32 122.5z" />
<glyph unicode="v" horiz-adv-x="912" d="M111 981q-2 11 -2 20q0 58 77 58q42 0 56 -14t21 -55l110 -663q13 -65 16 -145q14 44 65 147l343 661q21 39 44.5 54t66.5 15q42 1 51 -19q3 -6 3 -14q0 -18 -14 -45l-492 -931q-35 -66 -103 -66t-80 66z" />
<glyph unicode="w" horiz-adv-x="1314" d="M109 981q-1 8 -1 16q0 29 18 43q23 18 65 19q42 0 54.5 -14t15.5 -55l76 -655q2 -11 2.5 -30.5t1 -40t2.5 -33.5q15 49 40 106l295 668q5 13 8.5 19.5t11 15.5t19 13t28 4t27.5 -4t15.5 -13t6.5 -17t3 -21l76 -663q6 -43 6 -108q3 11 42 112l287 647q13 28 25.5 42.5 t31 20.5t47.5 6q42 1 50 -19q2 -5 1 -12q0 -18 -15 -47l-429 -931q-10 -23 -21.5 -36.5t-27 -19.5t-37.5 -6q-31 2 -43.5 15t-17.5 47l-86 672l-309 -672q-9 -23 -22 -36.5t-28.5 -19.5t-37.5 -6q-32 2 -45 15t-18 47z" />
<glyph unicode="x" horiz-adv-x="890" d="M-64 0q-3 5 -3 12q0 18 23 48l397 496l-192 428q-9 19 -7 33.5t13.5 23.5t29 13.5t39 4.5t31.5 -0.5t22.5 -5.5t20.5 -16t15 -30l135 -337l254 337q15 19 27.5 30t27 16t24.5 5.5t32 0.5q20 0 35 -3q15 -2 25 -10q9 -7 9 -18q0 -16 -17 -36l-351 -436l231 -508 q15 -36 -9 -52t-68 -16q-39 0 -57 9t-35 45l-169 408l-312 -408q-28 -36 -49 -45t-60 -9q-50 0 -62 20z" />
<glyph unicode="y" horiz-adv-x="918" d="M-42 -309q-2 7 -2 16q0 14 6 31q8 27 25.5 40.5t35 12.5t33.5 -4q14 -3 27.5 -3t24 2t21 6.5t18.5 10t16.5 14t15 16.5t13.5 19.5t12.5 21t12.5 22.5l74 144l-180 952q-8 34 18.5 50.5t67.5 16.5q24 0 40 -6t26.5 -21.5t15.5 -39.5l112 -623q12 -70 15 -128q13 39 58 130 l321 621q18 36 42.5 51.5t61.5 15.5q42 0 65 -17q13 -9 13 -23q0 -12 -8 -27l-584 -1092q-15 -28 -25 -46t-27 -45.5t-30.5 -44.5t-33.5 -39t-39 -35t-44 -26t-51 -18q-24 -5 -52 -5q-3 0 -6 1q-32 0 -67 7q-15 3 -25.5 13t-16.5 29z" />
<glyph unicode="z" horiz-adv-x="822" d="M-60 62q7 37 26 59l572 678q53 64 111 114h-467q-48 0 -48 44q0 8 2 18q12 65 69 65h594q46 0 46 -44q0 -9 -2 -21q-4 -27 -22 -48l-582 -688q-57 -67 -107 -113h527q46 0 46 -44q0 -9 -2 -20q-12 -62 -67 -62h-650q-30 0 -40 18q-7 12 -8 28q0 8 2 16z" />
<glyph unicode="{" horiz-adv-x="559" d="M62 500q-4 27 10 53.5t39 34.5q100 30 126 176l64 366q26 148 114.5 213t241.5 62q29 0 29 -37q1 -39 -25 -62q-12 -9 -25 -9q-94 -3 -140 -45.5t-63 -137.5l-62 -355q-9 -57 -26 -97.5t-51.5 -77t-86.5 -58.5q22 -11 39 -25t27.5 -31.5t16.5 -36.5t7 -42t-1 -46t-7 -50 l-63 -355q-11 -62 -1.5 -102.5t44 -60t97.5 -20.5q28 -1 30 -38q1 -39 -24 -61q-12 -8 -25 -9q-154 0 -219.5 63.5t-39.5 211.5l65 365q6 40 6 74t-17.5 62t-53.5 41q-22 7 -26 34z" />
<glyph unicode="|" horiz-adv-x="402" d="M-24 -307l291 1652q10 64 78 64q30 0 50 -15t15 -49l-291 -1652q-7 -34 -32 -50t-55 -16q-29 0 -46 16t-10 50z" />
<glyph unicode="}" horiz-adv-x="559" d="M-140 -324.5q-5 26.5 9 53.5t37 28q93 1 139.5 44.5t63.5 138.5l62 355q16 87 53 143.5t113 87.5q-65 33 -82 90t-2 143l63 355q17 95 -14.5 137.5t-125.5 45.5q-28 0 -29 37q-1 39 25 61q12 10 25 10q153 3 219 -62t40 -213l-65 -366q-6 -39 -6.5 -73.5t17 -62.5 t52.5 -40q17 -6 24 -23.5t3 -37.5t-17 -38t-33 -23q-56 -19 -84 -64.5t-40 -112.5l-64 -365q-26 -148 -113.5 -211.5t-240.5 -63.5q-24 0 -29 26.5z" />
<glyph unicode="~" horiz-adv-x="1157" d="M78.5 621q1.5 21 17.5 38q64 66 131 103.5t134.5 45t133.5 -5t139 -45.5q49 -23 93 -34.5t94 -13.5t101.5 15.5t100.5 54.5q55 44 84 10q11 -13 10 -33.5t-15 -37.5q-65 -66 -132 -103.5t-134.5 -45t-133.5 5t-138 45.5q-49 22 -93.5 34t-94.5 14t-101.5 -15.5 t-100.5 -54.5q-56 -43 -86 -10q-11 12 -9.5 33z" />
<glyph unicode="&#xa1;" horiz-adv-x="448" d="M-36 -269l222 915q8 42 61 42q23 0 33 -10t7 -32l-98 -915q-4 -55 -38.5 -82.5t-92.5 -27.5q-117 0 -94 110zM176 927q4 23 9.5 39.5t15.5 32t24 25t35 15t49 5.5q62 0 79 -29t7 -88q-10 -58 -37.5 -87.5t-88.5 -29.5q-62 0 -82 30t-11 87z" />
<glyph unicode="&#xa2;" horiz-adv-x="948" d="M35 -330.5q-5 15.5 9 43.5l147 315q-69 42 -106 113.5t-41 166t16 213.5q17 97 45 176t72.5 147t103.5 114.5t140.5 72.5t180.5 26q14 0 34.5 -3.5t24.5 -3.5l142 311q13 28 32 40t50 12q19 0 31.5 -4.5t19 -16t-4.5 -31.5l-159 -344q38 -22 65.5 -54.5t42 -69.5 t21.5 -69.5t8 -66.5q-1 -27 -8.5 -44t-24 -26.5t-43.5 -10.5q-75 -12 -78 54q-4 93 -45 145l-350 -762q22 -6 75 -6q89 0 145.5 51t97.5 143q25 59 99 59q40 -5 50.5 -25.5t-2.5 -59.5q-14 -35 -34 -70.5t-55.5 -77.5t-79 -73t-107 -52.5t-135.5 -21.5q-58 0 -105 10 l-138 -291q-17 -37 -36.5 -47t-50.5 -10q-19 0 -31.5 6t-17.5 21.5zM222 521q-37 -234 39 -339l348 747q-6 6 -27 6q-68 0 -124.5 -26.5t-94.5 -67.5t-67.5 -97.5t-46 -110t-27.5 -112.5z" />
<glyph unicode="&#xa3;" horiz-adv-x="1153" d="M-32 24q-13 35 2 66t50 52q88 43 166 137q65 72 93 167.5t20 185.5h-90q-61 0 -50 73q15 72 76 72h48q-5 56 -7 101.5t0.5 102.5t15 106t33.5 99t57.5 94.5t86.5 80.5q123 78 299 78q92 0 158.5 -19.5t111 -60.5t65 -106t17.5 -155q2 -30 -19.5 -56t-58.5 -35 q-43 -4 -69 13.5t-23 51.5q4 116 -42.5 173t-162.5 57q-117 0 -199 -70q-21 -19 -37 -45t-26 -50.5t-16.5 -61t-9 -61t-2.5 -65.5t1 -60.5t3 -60.5t3 -51h297q30 0 40 -21t4 -51q-11 -73 -70 -73h-267q29 -103 -71 -287q-22 -41 -56.5 -77t-95.5 -88q71 19 134 19 q69 0 196.5 -30.5t186.5 -30.5q53 0 165 44q33 12 58.5 1.5t33.5 -41.5q9 -26 -2 -55t-36 -51q-102 -64 -244 -64q-51 0 -101.5 12.5t-111.5 35.5t-93 32q-77 14 -170 -5.5t-185 -62.5q-24 -12 -45 -12.5t-37.5 13.5t-23.5 39z" />
<glyph unicode="&#xa5;" horiz-adv-x="996" d="M23 309q4 28 20.5 47t44.5 19h291l21 109h-291q-28 0 -38.5 21t-5.5 49t22 47t45 19h280l-257 709q-7 25 -4.5 41t17 25t30 12.5t35.5 3.5h26t20 -1.5t19.5 -5.5t14.5 -10.5t14 -18t10 -27.5l165 -519q23 -73 26 -99q28 51 60 103l343 515q12 17 22 28t21 17.5t17.5 10.5 t20.5 5.5t20 1.5h25q20 0 34.5 -3.5t25 -12t8.5 -25.5t-18 -41l-503 -709h277q29 0 39 -18.5t5 -47.5t-22.5 -49.5t-45.5 -20.5h-289l-20 -109h289q29 0 40 -19t6 -47.5t-23 -49t-48 -20.5h-288l-32 -183q-12 -76 -97 -76q-84 0 -72 76l32 183h-290q-28 0 -37.5 20.5 t-4.5 49.5z" />
<glyph unicode="&#xa7;" horiz-adv-x="960" d="M-20 -74q4 34 21 51t55 15q39 -1 57.5 -11.5t16.5 -38.5q-3 -83 46.5 -133t134.5 -54q202 -6 239 157q7 34 -1 65.5t-25.5 54.5t-46 45t-53.5 36t-56 29q-39 17 -67.5 31.5t-61.5 33.5t-55.5 38t-44.5 42.5t-34.5 50.5t-21 58.5t-7 70t11.5 81.5q22 91 74.5 162.5 t134.5 134.5q-118 115 -82 281q35 148 157 225t296 68q135 -7 218 -85.5t77 -203.5q-1 -22 -8 -36.5t-23.5 -23t-42.5 -7.5q-39 2 -58 12.5t-19 38.5q5 83 -44.5 131.5t-135.5 52.5q-94 5 -156 -33t-81 -121q-3 -23 -3.5 -42.5t7.5 -38t17.5 -33.5t25 -30t30.5 -26.5 t34.5 -23t36 -20t35.5 -17.5q39 -17 67 -31t61 -33.5t55 -38t44.5 -42.5t35 -50.5t20.5 -58.5t6.5 -70t-10.5 -81q-22 -93 -74 -163.5t-134 -133.5q118 -115 79 -282q-34 -148 -155.5 -225t-295.5 -68q-136 8 -220 86.5t-77 203.5zM260.5 535.5q-0.5 -22.5 1.5 -40t11.5 -35 t17 -29.5t25.5 -25.5t30 -22t37 -21t39.5 -19l43.5 -19.5q12 -6 18 -8q16 -6 74 -39q97 82 120 194q7 30 8 55t-6.5 46.5t-15 37.5t-27 32t-33 26.5t-42.5 24.5t-46.5 21.5t-53.5 22.5q-3 1 -4 2q-6 3 -73 40q-94 -79 -118 -195q-6 -26 -6.5 -48.5z" />
<glyph unicode="&#xa8;" horiz-adv-x="724" d="M227 1250q-3 24 1 56q10 54 37.5 80.5t85.5 26.5q60 0 76 -25.5t6 -81.5q-8 -53 -34 -80t-86 -27q-41 0 -62 13.5t-24 37.5zM550 1306q19 107 120 107q60 0 76 -26t7 -81q-4 -26 -11.5 -44.5t-21 -33t-35.5 -22t-53 -7.5q-59 0 -74.5 26.5t-7.5 80.5z" />
<glyph unicode="&#xa9;" horiz-adv-x="1549" d="M83.5 541.5q-3.5 80.5 10.5 167.5q25 140 103 272.5t188 232t252.5 159.5t287.5 60q96 0 183 -26t155.5 -73t123 -113.5t85 -146.5t40.5 -173t-9 -192q-26 -149 -106 -283t-191.5 -231.5t-251.5 -155t-284 -57.5q-79 0 -153 19t-137 54.5t-116.5 85.5t-91 112t-61.5 135 t-27.5 153.5zM186 549q9 -78 33.5 -147t70.5 -127.5t104 -100.5t134 -66t160 -24q123 0 244 49.5t217 133t165 199t91 243.5q22 126 -5.5 241t-94.5 198.5t-170.5 133t-227.5 49.5q-118 0 -237.5 -49t-217 -131.5t-167.5 -198.5t-92 -243q-16 -82 -7 -160zM465.5 541 q-8.5 76 9.5 168q12 68 33.5 128t57 113.5t81.5 91.5t109.5 60t138.5 22q49 0 89 -11t66 -30.5t45 -42.5t28.5 -49.5t14 -50t4.5 -45.5q-2 -33 -14 -48t-44 -16q-19 -2 -33 2t-22 14t-8 26q-2 34 -9.5 60t-23 48.5t-43 34.5t-66.5 12q-61 0 -112 -28t-85 -75t-56 -101.5 t-32 -114.5q-7 -38 -8.5 -74t2 -73t16.5 -68t33.5 -55t53.5 -38t75 -14q74 0 120 41.5t77 113.5q18 48 79 42q30 -1 37.5 -17t-3.5 -46q-9 -28 -25 -56t-44 -60t-62.5 -56t-86 -40t-109.5 -16q-89 0 -151 31t-93 86t-39.5 131z" />
<glyph unicode="&#xab;" horiz-adv-x="651" d="M71 515q-11 35 11 67l199 263q19 29 62 22q38 -6 19 -44l-142 -255q-9 -18 -5 -36l50 -255q5 -38 -34 -44q-10 -2 -19.5 -1.5t-16.5 3.5t-11.5 7.5t-7.5 10.5zM333 515q-13 35 12 67l199 263q7 13 24.5 19t37.5 3q36 -6 16 -44l-138 -255q-10 -20 -7 -36l49 -255 q6 -38 -32 -44q-21 -4 -36 2t-18 18z" />
<glyph unicode="&#xac;" horiz-adv-x="1051" d="M109 904q12 80 82 80h660h26t26 -1t25.5 -3t22.5 -5.5t21 -9.5t16.5 -14t13 -19.5t7 -26t2.5 -33t-6 -41.5l-59 -347q-12 -72 -91 -72q-33 0 -52 17.5t-12 54.5l52 295q5 21 0.5 32.5t-14.5 15.5t-30 4h-636q-69 0 -54 73z" />
<glyph unicode="&#xad;" horiz-adv-x="686" d="M84 536q12 73 75 73h381q33 0 44 -21t6 -52q-5 -29 -24 -49.5t-52 -20.5h-382q-60 0 -48 70z" />
<glyph unicode="&#xae;" horiz-adv-x="1549" d="M82.5 562q-2.5 71 11.5 147q26 147 105.5 281t190.5 231t251.5 154.5t283.5 57.5q96 0 183 -26t155.5 -73t123 -113.5t85 -146.5t40.5 -173t-9 -192q-26 -149 -106 -283t-191.5 -231.5t-251.5 -155t-284 -57.5q-72 0 -139.5 15t-125 42.5t-108 67t-88.5 88.5t-67 107 t-43 123.5t-16.5 136.5zM193 709q-23 -128 4.5 -243.5t93.5 -199t169.5 -133t227.5 -49.5q98 0 196 31.5t182.5 89.5t154 134.5t117 172t65.5 197.5q22 126 -5.5 241t-94 198.5t-170 133t-226.5 49.5t-244 -49.5t-216.5 -133t-163.5 -198.5t-90 -241zM486 347l116 658 q8 46 43 78.5t90 32.5h178q110 0 172 -65t43 -174q-14 -78 -68 -134.5t-125 -74.5q58 -38 80 -151q16 -96 46 -155q13 -27 -4 -41.5t-52 -15.5q-17 -1 -29.5 0.5t-26.5 11.5t-20 30q-11 32 -22.5 88t-17.5 79q-16 62 -47.5 94t-90.5 32h-98l-53 -293q-4 -23 -24 -32.5 t-44 -9.5q-22 0 -36 9.5t-10 32.5zM670 743h153q71 0 121 36t61 102q7 42 -4.5 71t-40.5 43t-73 14h-138q-9 0 -15.5 -1.5t-11 -5t-7.5 -10t-5 -15.5z" />
<glyph unicode="&#xb0;" horiz-adv-x="647" d="M176 1176q20 110 106.5 182.5t192.5 72.5q108 0 168.5 -72t40.5 -183q-18 -104 -104.5 -178.5t-192.5 -74.5q-105 0 -167 74.5t-44 178.5zM275 1176q-11 -66 27.5 -110.5t101.5 -44.5q67 0 119.5 44t64.5 111q12 69 -25 115t-103 46q-63 0 -118 -46.5t-67 -114.5z" />
<glyph unicode="&#xb1;" horiz-adv-x="1115" d="M-18 71q5 31 24 52t52 21h855q56 0 44 -73q-14 -71 -68 -71h-855q-34 0 -46 19.5t-6 51.5zM92 701q5 29 24 49t53 20h355l60 335q10 63 84 63q29 0 46.5 -14t11.5 -49l-60 -335h357q31 0 40.5 -20t4.5 -49q-10 -71 -68 -71h-358l-58 -331q-12 -64 -80 -64q-35 0 -52 14 t-10 50l58 331h-356q-62 0 -52 71z" />
<glyph unicode="&#xb4;" horiz-adv-x="421" d="M202.5 1147q-0.5 8 4.5 15l122 205q13 21 36 33.5t72 10.5q42 -1 57 -22.5t-8 -51.5l-168 -186q-18 -21 -33.5 -27.5t-43.5 -5.5q-12 0 -21 4t-13 10.5t-4.5 14.5z" />
<glyph unicode="&#xb6;" horiz-adv-x="1153" d="M159 1074q9 52 26.5 95t41.5 75.5t53 58t63.5 43t70 29.5t75.5 18.5t77 9t78 2.5h538q26 0 34.5 -15t3.5 -38q-7 -54 -56 -54h-90l-287 -1621q-8 -46 -59 -46t-44 46l287 1621h-94l-287 -1621q-8 -46 -58 -46q-51 0 -44 46l188 1070h-148q-63 0 -116.5 7t-109 28 t-90.5 56t-51.5 95.5t-1.5 140.5zM317.5 992.5q0.5 -35.5 15.5 -61t34 -42t49.5 -26.5t63 -14t74.5 -4h141l80 453h-153q-48 0 -85.5 -5t-74 -20t-63 -39.5t-46.5 -64.5t-30 -95q-6 -46 -5.5 -81.5z" />
<glyph unicode="&#xb7;" horiz-adv-x="684" d="M243 701q6 32 14.5 54t24.5 39.5t41 26t60 8.5q71 0 92.5 -31.5t10.5 -96.5q-10 -61 -43 -94t-104 -33q-68 0 -87 32t-9 95z" />
<glyph unicode="&#xb8;" horiz-adv-x="503" d="M-115.5 -362.5q-5.5 17.5 0.5 35.5q25 47 63 30q25 -7 50 -12t59 -6.5t60 4.5t47.5 25t26.5 51q6 37 -33.5 57.5t-123.5 20.5q-19 0 -26 10t6 34l64 133h125l-52 -85q-9 -11 -6.5 -19t14.5 -8q79 0 124.5 -37t35.5 -106q-7 -55 -39.5 -94t-79 -57t-100 -24t-103.5 0.5 t-89 22.5q-18 7 -23.5 24.5z" />
<glyph unicode="&#xba;" horiz-adv-x="798" d="M159 959.5q0 52.5 8 108.5q13 75 42.5 138.5t76 115t114.5 80.5t150 29q64 0 114 -19.5t80.5 -53t48.5 -79.5t19 -99t-7 -112q-13 -71 -43 -134.5t-76 -115t-114 -81.5t-149 -30q-66 0 -117 19.5t-81 54t-48 80.5t-18 98.5zM292.5 1000q-0.5 -33 7 -67t23.5 -59t46.5 -41 t72.5 -16t78.5 16t61.5 41t44 59t30 67t16 68q7 37 8 71t-5.5 69.5t-22 61.5t-46 42.5t-74.5 16.5q-36 0 -68 -11.5t-55.5 -31.5t-42 -45t-32 -55.5t-22 -59t-13.5 -58.5q-6 -35 -6.5 -68z" />
<glyph unicode="&#xbb;" horiz-adv-x="651" d="M15 246q-4 10 8 31l136 255q9 16 6 36l-46 255q-9 38 32 44q13 2 24 0t19 -8t11 -14l106 -263q13 -31 -12 -67l-199 -262q-9 -12 -26.5 -18t-35.5 -2q-19 3 -23 13zM285 277l136 255q10 16 6 36l-46 255q-8 38 33 44t53 -22l107 -263q11 -30 -12 -67l-198 -262 q-11 -12 -28 -18t-35 -2q-39 7 -16 44z" />
<glyph unicode="&#xbf;" horiz-adv-x="948" d="M-52 -6q9 48 29 91.5t41 74t57.5 65t60.5 53.5t67 51q13 9 39 28t38 27.5t33.5 25t32.5 27.5t28 28.5t27 33.5t22 36.5t20.5 44t16.5 50.5q2 18 21 28t40 10q22 7 43 -5.5t20 -36.5q-9 -53 -26.5 -98.5t-37 -77.5t-52 -67.5t-58 -58t-68.5 -60.5t-72 -65 q-107 -89 -126 -203q-12 -65 3 -115t50 -78t79 -42t95 -14q176 0 307 138q21 21 45.5 23.5t51.5 -19.5q18 -23 14.5 -47.5t-19.5 -38.5q-77 -93 -179 -145t-250 -56q-87 -2 -164.5 23.5t-134 74t-83 125.5t-11.5 169zM460 927q4 29 12 48.5t22.5 36t39 24.5t58.5 8 t54.5 -8.5t27.5 -23.5t7.5 -36.5t-5.5 -48.5q-10 -59 -35.5 -88t-88.5 -29q-66 0 -84 29t-8 88z" />
<glyph unicode="&#xc0;" horiz-adv-x="1141" d="M-65.5 11.5q-5.5 16.5 11.5 46.5l650 1281q39 74 122 74q86 0 94 -74l203 -1281q10 -76 -73 -76q-48 0 -73 15.5t-32 58.5l-50 354h-492l-174 -354q-27 -39 -54.5 -56.5t-74.5 -17.5q-23 0 -37.5 6.5t-20 23zM362 542h406l-61 427q-5 31 -9 67.5t-5.5 60t-4.5 69t-4 62.5 q-55 -147 -110 -259zM572 1690q-14 29 8.5 50.5t64.5 23.5q51 1 70.5 -11t25.5 -33l50 -205q2 -10 -4 -20t-18.5 -17t-27.5 -7q-29 -1 -43 6t-22 26z" />
<glyph unicode="&#xc1;" horiz-adv-x="1141" d="M-65.5 11.5q-5.5 16.5 11.5 46.5l650 1281q39 74 122 74q86 0 94 -74l203 -1281q10 -76 -73 -76q-48 0 -73 15.5t-32 58.5l-50 354h-492l-174 -354q-27 -39 -54.5 -56.5t-74.5 -17.5q-23 0 -37.5 6.5t-20 23zM362 542h406l-61 427q-5 31 -9 67.5t-5.5 60t-4.5 69t-4 62.5 q-55 -147 -110 -259zM684 1515l123 205q12 21 35.5 33t72.5 11q42 -2 57 -23t-9 -51l-168 -187q-17 -20 -33 -26.5t-44 -5.5q-23 0 -33 14.5t-1 29.5z" />
<glyph unicode="&#xc2;" horiz-adv-x="1141" d="M-65.5 11.5q-5.5 16.5 11.5 46.5l650 1281q39 74 122 74q86 0 94 -74l203 -1281q10 -76 -73 -76q-48 0 -73 15.5t-32 58.5l-50 354h-492l-174 -354q-27 -39 -54.5 -56.5t-74.5 -17.5q-23 0 -37.5 6.5t-20 23zM362 542h406l-61 427q-5 31 -9 67.5t-5.5 60t-4.5 69t-4 62.5 q-55 -147 -110 -259zM479.5 1483q-2.5 18 16.5 36l181 183q10 15 23 23.5t31 12.5t44 4q40 0 58.5 -8.5t33.5 -31.5l113 -183q13 -18 2 -36t-40 -24q-41 -13 -73 25l-113 144l-163 -144q-44 -36 -88 -25q-23 6 -25.5 24z" />
<glyph unicode="&#xc3;" horiz-adv-x="1141" d="M-65.5 11.5q-5.5 16.5 11.5 46.5l650 1281q39 74 122 74q86 0 94 -74l203 -1281q10 -76 -73 -76q-48 0 -73 15.5t-32 58.5l-50 354h-492l-174 -354q-27 -39 -54.5 -56.5t-74.5 -17.5q-23 0 -37.5 6.5t-20 23zM362 542h406l-61 427q-5 31 -9 67.5t-5.5 60t-4.5 69t-4 62.5 q-55 -147 -110 -259zM442 1578q29 72 85.5 110t125.5 38q51 0 122 -36q4 -3 30.5 -20t46.5 -24.5t43 -7.5q56 0 91 64q16 27 60 24q39 0 34 -38q-15 -46 -45.5 -80.5t-65 -52t-72.5 -23.5q-78 -10 -167 40q-3 2 -11.5 7t-11 6.5t-11 6t-11.5 6l-11 5.5t-11 4.5t-11 3.5 t-11 2.5t-11.5 1t-11.5 -0.5q-52 0 -80 -55q-30 -37 -63 -29q-23 1 -32 15.5t-1 32.5z" />
<glyph unicode="&#xc4;" horiz-adv-x="1141" d="M-65.5 11.5q-5.5 16.5 11.5 46.5l650 1281q39 74 122 74q86 0 94 -74l203 -1281q10 -76 -73 -76q-48 0 -73 15.5t-32 58.5l-50 354h-492l-174 -354q-27 -39 -54.5 -56.5t-74.5 -17.5q-23 0 -37.5 6.5t-20 23zM362 542h406l-61 427q-5 31 -9 67.5t-5.5 60t-4.5 69t-4 62.5 q-55 -147 -110 -259zM490 1562q-3 24 1 57q9 53 37 80t85 27q61 0 77 -26t6 -81q-3 -21 -8 -36.5t-14 -29.5t-22 -23t-32 -14t-45 -5q-40 0 -61 13.5t-24 37.5zM812 1619q19 107 121 107q59 0 75.5 -26t6.5 -81q-4 -26 -11 -44.5t-20.5 -33.5t-35.5 -22.5t-53 -7.5 q-59 0 -75 26.5t-8 81.5z" />
<glyph unicode="&#xc5;" horiz-adv-x="1145" d="M-56 56l688 1340q-32 22 -46.5 60.5t-5.5 81.5q11 67 66.5 116.5t123.5 49.5t107 -49.5t29 -116.5q-9 -44 -36.5 -82t-64.5 -60l210 -1340q8 -41 -13.5 -58.5t-57.5 -17.5q-50 0 -74.5 16t-32.5 60l-50 350h-492l-174 -350q-19 -43 -48.5 -59.5t-76.5 -16.5q-85 0 -52 76 zM364 538h404l-61 429q-15 125 -21 259q-7 -17 -32 -79t-43 -102t-39 -78zM632 1538q-6 -32 3.5 -58t32 -40.5t54.5 -14.5q31 0 58.5 14.5t47 40.5t25.5 58q7 45 -19 79.5t-72 34.5q-47 0 -84.5 -34t-45.5 -80z" />
<glyph unicode="&#xc6;" horiz-adv-x="1685" d="M-67 18.5q1 14.5 13 37.5l797 1241q68 108 211 108h746q64 0 48 -78q-5 -32 -23.5 -55t-52.5 -23h-558l-78 -450h437q61 0 50 -71q-15 -77 -76 -77h-438l-78 -442q-6 -28 4.5 -39t39.5 -11h504q34 0 45 -24t4 -59q-11 -76 -75 -76h-566q-50 0 -81 14.5t-42.5 39.5 t-13.5 58.5t7 71.5l38 222h-435l-222 -350q-26 -43 -57.5 -59.5t-80.5 -16.5q-17 0 -31 3.5t-25.5 12t-10.5 23zM442 538h377l125 711q-35 1 -54 -10.5t-25 -26.5z" />
<glyph unicode="&#xc7;" horiz-adv-x="1197" d="M71.5 515q3.5 85 20.5 182q23 131 63 240.5t100.5 200.5t139.5 154.5t182.5 98t225.5 34.5q93 0 166.5 -23.5t121 -64t78 -97.5t42 -122t7.5 -139q-3 -28 -25 -48.5t-67 -23.5q-39 0 -59 14t-15 46q1 67 -13.5 124.5t-45.5 104.5t-85.5 74t-128.5 27q-72 0 -134 -19.5 t-108.5 -52t-85.5 -80t-65.5 -98.5t-48.5 -113.5t-35.5 -118t-24.5 -118.5q-10 -62 -16 -115.5t-6 -114.5t9.5 -110.5t31.5 -96.5t57 -79t90.5 -51t126.5 -19q74 0 138 26t111.5 72.5t82.5 103t57 122.5q8 32 32.5 48.5t62.5 16.5q41 -3 56.5 -26t9.5 -51 q-18 -61 -45.5 -116.5t-64 -106t-84 -90.5t-104 -70t-126.5 -46.5t-148 -16.5l-27 -42q-20 -27 9 -27q80 0 128.5 -37t40.5 -106q-8 -46 -33.5 -81t-61.5 -54.5t-79.5 -30.5t-87.5 -11.5t-84.5 6t-71.5 19.5q-20 7 -25.5 24.5t3.5 35.5q25 48 57 30q23 -7 49 -12t60 -6.5 t61 4.5t48 25t26 51q6 37 -33 57.5t-125 20.5q-11 0 -19 4.5t-11 14t7 25.5l50 97q-78 13 -139.5 44.5t-104 79t-69.5 109.5t-37.5 137.5t-7 160.5z" />
<glyph unicode="&#xc8;" horiz-adv-x="1036" d="M56 113.5q-3 33.5 6 70.5l183 1036q7 41 19.5 72t34 58t58 41t85.5 14h604q69 0 54 -78q-5 -33 -25 -55t-58 -22h-544q-29 0 -43 -12.5t-20 -42.5l-69 -390h473q65 0 53 -75q-15 -73 -78 -73h-473l-79 -446q-6 -31 4 -43.5t40 -12.5h544q69 0 54 -79q-12 -76 -80 -76 h-604q-49 0 -80.5 14.5t-43.5 40t-15 59zM598 1738.5q3 13.5 13.5 23.5t27 16t36.5 7q28 0 46.5 -3t28.5 -10.5t14.5 -14.5t6.5 -17l50 -204q3 -16 -11.5 -30t-38.5 -14q-19 -1 -31.5 1.5t-20 10t-12.5 20.5l-104 186q-8 15 -5 28.5z" />
<glyph unicode="&#xc9;" horiz-adv-x="1036" d="M56 113.5q-3 33.5 6 70.5l183 1036q7 41 19.5 72t34 58t58 41t85.5 14h604q69 0 54 -78q-5 -33 -25 -55t-58 -22h-544q-29 0 -43 -12.5t-20 -42.5l-69 -390h473q65 0 53 -75q-15 -73 -78 -73h-473l-79 -446q-6 -31 4 -43.5t40 -12.5h544q69 0 54 -79q-12 -76 -80 -76 h-604q-49 0 -80.5 14.5t-43.5 40t-15 59zM655 1506q-10 14 0 30l122 204q13 22 36 34t72 11q41 -2 56 -23.5t-8 -51.5l-169 -187q-17 -20 -32.5 -26.5t-43.5 -4.5q-23 0 -33 14z" />
<glyph unicode="&#xca;" horiz-adv-x="1036" d="M56 113.5q-3 33.5 6 70.5l183 1036q7 41 19.5 72t34 58t58 41t85.5 14h604q69 0 54 -78q-5 -33 -25 -55t-58 -22h-544q-29 0 -43 -12.5t-20 -42.5l-69 -390h473q65 0 53 -75q-15 -73 -78 -73h-473l-79 -446q-6 -31 4 -43.5t40 -12.5h544q69 0 54 -79q-12 -76 -80 -76 h-604q-49 0 -80.5 14.5t-43.5 40t-15 59zM493.5 1523q-2.5 18 16.5 36l181 183q15 22 37 31.5t61 9.5q21 0 35 -2.5t24.5 -7.5t17.5 -12t15 -19l113 -183q12 -18 1.5 -36t-39.5 -24q-41 -13 -73 25l-114 144l-162 -144q-44 -36 -89 -25q-22 6 -24.5 24z" />
<glyph unicode="&#xcb;" horiz-adv-x="1036" d="M56 113.5q-3 33.5 6 70.5l183 1036q7 41 19.5 72t34 58t58 41t85.5 14h604q69 0 54 -78q-5 -33 -25 -55t-58 -22h-544q-29 0 -43 -12.5t-20 -42.5l-69 -390h473q65 0 53 -75q-15 -73 -78 -73h-473l-79 -446q-6 -31 4 -43.5t40 -12.5h544q69 0 54 -79q-12 -76 -80 -76 h-604q-49 0 -80.5 14.5t-43.5 40t-15 59zM467 1660q5 26 13.5 45t22.5 33t35.5 21t51.5 7q61 0 76.5 -25.5t5.5 -80.5q-8 -54 -34 -81.5t-86 -27.5q-59 0 -76 27.5t-9 81.5zM789 1660q9 52 37.5 79t82.5 27q60 0 76 -25.5t7 -80.5q-8 -53 -35 -81t-86 -28q-58 0 -74 27 t-8 82z" />
<glyph unicode="&#xcc;" horiz-adv-x="431" d="M40 58l225 1281q6 39 34 56.5t65 17.5q36 0 57 -17t14 -57l-224 -1281q-15 -76 -100 -76q-37 0 -58 17.5t-13 58.5zM225 1730q-14 29 8.5 51t64.5 23q51 2 70.5 -10.5t25.5 -33.5l50 -205q3 -15 -12 -29.5t-38 -14.5q-29 -1 -43 6t-22 27z" />
<glyph unicode="&#xcd;" horiz-adv-x="431" d="M40 58l225 1281q6 39 34 56.5t65 17.5q36 0 57 -17t14 -57l-224 -1281q-15 -76 -100 -76q-37 0 -58 17.5t-13 58.5zM331 1536l123 204q13 22 36 34t72 11q41 -2 56.5 -23.5t-7.5 -51.5l-169 -187q-9 -10 -16 -16.5t-16 -10t-19.5 -4.5t-24.5 0q-24 0 -34 14t-1 30z" />
<glyph unicode="&#xce;" horiz-adv-x="431" d="M40 58l225 1281q6 39 34 56.5t65 17.5q36 0 57 -17t14 -57l-224 -1281q-15 -76 -100 -76q-37 0 -58 17.5t-13 58.5zM131.5 1523q-2.5 18 16.5 36l181 183q15 22 37.5 31.5t60.5 9.5q40 0 58.5 -9t33.5 -32l113 -183q13 -18 2 -36t-40 -24q-41 -13 -73 25l-113 144 l-163 -144q-44 -36 -88 -25q-23 6 -25.5 24z" />
<glyph unicode="&#xcf;" horiz-adv-x="431" d="M40 58l225 1281q6 39 34 56.5t65 17.5q36 0 57 -17t14 -57l-224 -1281q-15 -76 -100 -76q-37 0 -58 17.5t-13 58.5zM147 1660q9 53 36.5 79.5t85.5 26.5q60 0 76 -25.5t6 -80.5q-4 -26 -11 -44.5t-20 -34t-35 -23t-54 -7.5q-59 0 -75.5 27.5t-8.5 81.5zM467 1660 q10 52 38.5 79t82.5 27q59 0 75.5 -25.5t6.5 -80.5q-8 -53 -34.5 -81t-85.5 -28t-75 27t-8 82z" />
<glyph unicode="&#xd0;" horiz-adv-x="1264" d="M42 705q11 61 65 61h108l80 452q7 43 18.5 73t32.5 58t57 42t87 14h270q95 0 173.5 -25t132.5 -70.5t93 -109t56 -140.5t19.5 -165t-16.5 -183q-18 -101 -55 -199.5t-98.5 -192t-138.5 -164t-182.5 -113.5t-224.5 -43h-276q-51 0 -82 14.5t-42 39.5t-13 58.5t7 71.5 l80 458h-109q-51 0 -42 63zM283 203q-4 -27 5 -38.5t39 -11.5h199q90 0 167.5 30.5t134 82.5t101 124.5t72 152.5t43.5 169q12 74 13.5 141t-9 128t-36.5 110.5t-64.5 86.5t-96.5 56.5t-131 19.5h-199q-31 0 -44 -12.5t-17 -44.5l-77 -431h329q56 0 45 -61 q-4 -26 -19.5 -44.5t-46.5 -18.5h-329z" />
<glyph unicode="&#xd1;" horiz-adv-x="1233" d="M36 42l229 1297q6 37 37.5 55.5t72.5 18.5q37 0 60 -14t34 -47l446 -1117q2 52 10.5 133.5t18.5 137.5l148 846q4 19 17 33t31 21t38 7q32 0 50.5 -14t12.5 -47l-230 -1298q-5 -37 -35 -54.5t-72 -17.5q-76 0 -99 60l-439 1106q-3 -100 -23 -213l-159 -893 q-10 -60 -84 -60q-31 0 -50 13.5t-14 46.5zM508 1578q19 48 52.5 82t73 50t84.5 16q52 0 123 -36q7 -5 24.5 -16t29.5 -17.5t30.5 -12.5t35.5 -6q56 0 91 64q16 27 60 24q40 0 35 -38q-22 -68 -72.5 -107.5t-111.5 -48.5q-78 -10 -166 40q-3 2 -11.5 7t-11.5 6.5t-11 6 t-11 6l-11 5.5t-11 4.5t-11 3.5t-11 2.5t-11.5 1t-11.5 -0.5q-52 0 -80 -55q-30 -37 -63 -29q-23 1 -32.5 15.5t-1.5 32.5z" />
<glyph unicode="&#xd2;" horiz-adv-x="1296" d="M72.5 463.5q-0.5 110.5 19.5 239.5q29 163 86.5 294t144 228.5t207.5 150.5t269 53q118 0 208 -34.5t145.5 -98t86.5 -153.5t31 -200.5t-21 -239.5q-29 -163 -86.5 -294.5t-144 -228.5t-207.5 -150t-267 -53q-117 0 -207 34.5t-145.5 98t-87 153.5t-32 200.5zM275 703 q-103 -592 291 -592q396 0 499 592q104 594 -290 594q-70 0 -131 -19.5t-107 -52t-85.5 -79.5t-66.5 -98t-49 -112.5t-36 -116.5t-25 -116zM655 1730q-15 29 8 51t64 23q52 2 71.5 -10.5t24.5 -33.5l50 -205q3 -15 -12 -29.5t-38 -14.5q-14 -1 -24.5 0.5t-18.5 5.5t-13 10 t-8 17z" />
<glyph unicode="&#xd3;" horiz-adv-x="1296" d="M72.5 463.5q-0.5 110.5 19.5 239.5q29 163 86.5 294t144 228.5t207.5 150.5t269 53q118 0 208 -34.5t145.5 -98t86.5 -153.5t31 -200.5t-21 -239.5q-29 -163 -86.5 -294.5t-144 -228.5t-207.5 -150t-267 -53q-117 0 -207 34.5t-145.5 98t-87 153.5t-32 200.5zM275 703 q-103 -592 291 -592q396 0 499 592q104 594 -290 594q-70 0 -131 -19.5t-107 -52t-85.5 -79.5t-66.5 -98t-49 -112.5t-36 -116.5t-25 -116zM766 1555l123 205q8 14 18 22.5t33.5 15.5t57.5 6q41 -1 56 -22.5t-8 -51.5l-169 -186q-17 -21 -32.5 -27.5t-43.5 -5.5 q-24 0 -34 14.5t-1 29.5z" />
<glyph unicode="&#xd4;" horiz-adv-x="1296" d="M72.5 463.5q-0.5 110.5 19.5 239.5q29 163 86.5 294t144 228.5t207.5 150.5t269 53q118 0 208 -34.5t145.5 -98t86.5 -153.5t31 -200.5t-21 -239.5q-29 -163 -86.5 -294.5t-144 -228.5t-207.5 -150t-267 -53q-117 0 -207 34.5t-145.5 98t-87 153.5t-32 200.5zM275 703 q-103 -592 291 -592q396 0 499 592q104 594 -290 594q-70 0 -131 -19.5t-107 -52t-85.5 -79.5t-66.5 -98t-49 -112.5t-36 -116.5t-25 -116zM562 1523q-2 18 16 36l182 183q9 15 22 23.5t31 13t45 4.5q20 0 34.5 -2.5t25 -7.5t17.5 -12t15 -19l112 -183q13 -18 2 -36t-40 -24 q-40 -13 -72 25l-114 144l-163 -144q-44 -36 -88 -25q-23 6 -25 24z" />
<glyph unicode="&#xd5;" horiz-adv-x="1296" d="M72.5 463.5q-0.5 110.5 19.5 239.5q29 163 86.5 294t144 228.5t207.5 150.5t269 53q118 0 208 -34.5t145.5 -98t86.5 -153.5t31 -200.5t-21 -239.5q-29 -163 -86.5 -294.5t-144 -228.5t-207.5 -150t-267 -53q-117 0 -207 34.5t-145.5 98t-87 153.5t-32 200.5zM275 703 q-103 -592 291 -592q396 0 499 592q104 594 -290 594q-70 0 -131 -19.5t-107 -52t-85.5 -79.5t-66.5 -98t-49 -112.5t-36 -116.5t-25 -116zM517 1578q30 72 86 110t125 38q52 0 123 -36q3 -2 30.5 -19.5t47.5 -25t42 -7.5q56 0 90 64q17 27 61 24q40 0 34 -38 q-14 -46 -44.5 -80.5t-65 -52t-73.5 -23.5q-78 -10 -166 40q-4 2 -12 7t-11 6.5t-11 6t-11 6t-11.5 5.5t-11 4.5t-11 3.5t-11 2.5t-11 1t-11.5 -0.5q-52 0 -81 -55q-29 -37 -62 -29q-24 1 -33 15.5t-2 32.5z" />
<glyph unicode="&#xd6;" horiz-adv-x="1296" d="M72.5 463.5q-0.5 110.5 19.5 239.5q29 163 86.5 294t144 228.5t207.5 150.5t269 53q118 0 208 -34.5t145.5 -98t86.5 -153.5t31 -200.5t-21 -239.5q-29 -163 -86.5 -294.5t-144 -228.5t-207.5 -150t-267 -53q-117 0 -207 34.5t-145.5 98t-87 153.5t-32 200.5zM275 703 q-103 -592 291 -592q396 0 499 592q104 594 -290 594q-70 0 -131 -19.5t-107 -52t-85.5 -79.5t-66.5 -98t-49 -112.5t-36 -116.5t-25 -116zM571 1640q10 53 37.5 79.5t85.5 26.5q60 0 76 -25.5t6 -80.5q-3 -21 -8 -36.5t-14 -29.5t-21.5 -23t-32 -14t-44.5 -5q-59 0 -76 27 t-9 81zM893 1640q19 106 120 106q60 0 76 -26t7 -80q-8 -54 -35 -81t-86 -27t-74.5 26.5t-7.5 81.5z" />
<glyph unicode="&#xd8;" horiz-adv-x="1462" d="M-42 -6q-36 36 18 86l187 161q-77 169 -27 456q29 164 88.5 295.5t151 229t221.5 150.5t290 53q136 0 239 -40t165 -117l160 145q10 9 21.5 14t22 5t20.5 -2.5t18.5 -7.5t15.5 -11q32 -40 -17 -84l-185 -167q71 -175 20 -463q-23 -129 -64.5 -237.5t-105 -198.5 t-145 -152.5t-188.5 -97t-232 -34.5q-145 0 -245.5 41.5t-167.5 123.5l-163 -152q-27 -22 -56 -18.5t-42 22.5zM311 379l845 769q-38 69 -111 109t-182 40q-77 0 -144 -19.5t-117.5 -52t-93.5 -80t-73 -99t-54 -113t-38.5 -118t-24.5 -118.5q-29 -163 -7 -318zM351 259 q80 -148 304 -148q75 0 141 19t115.5 51t91.5 78.5t71.5 97t52.5 110.5t37.5 115t25.5 115q34 211 9 324z" />
<glyph unicode="&#xd9;" horiz-adv-x="1214" d="M100.5 261q-12.5 76 6.5 174l158 904q6 39 34 56.5t65 17.5q36 0 57 -17t14 -57l-165 -931q-2 -18 -4 -35t-0.5 -48t9 -56t25.5 -54t45.5 -48.5t74 -32.5t106.5 -13t111.5 13t86 33t63 48t44.5 54t28 56t16.5 48t7.5 35l165 931q6 40 33.5 57t64 17t58 -17t14.5 -57 l-159 -904q-10 -61 -29.5 -114.5t-45.5 -96.5t-58.5 -79t-70.5 -63t-79.5 -47.5t-87 -33.5t-92.5 -19t-96 -6q-80 0 -146 16t-121 50.5t-87.5 88.5t-45 130zM628 1690q-14 29 8.5 50.5t64.5 23.5q35 1 57 -6t28.5 -15.5t10.5 -22.5l50 -205q2 -10 -4 -20t-18.5 -17t-27.5 -7 q-29 -1 -43.5 6t-21.5 26z" />
<glyph unicode="&#xda;" horiz-adv-x="1214" d="M100.5 261q-12.5 76 6.5 174l158 904q6 39 34 56.5t65 17.5q36 0 57 -17t14 -57l-165 -931q-2 -18 -4 -35t-0.5 -48t9 -56t25.5 -54t45.5 -48.5t74 -32.5t106.5 -13t111.5 13t86 33t63 48t44.5 54t28 56t16.5 48t7.5 35l165 931q6 40 33.5 57t64 17t58 -17t14.5 -57 l-159 -904q-10 -61 -29.5 -114.5t-45.5 -96.5t-58.5 -79t-70.5 -63t-79.5 -47.5t-87 -33.5t-92.5 -19t-96 -6q-80 0 -146 16t-121 50.5t-87.5 88.5t-45 130zM720 1515l123 205q13 21 36.5 33t72.5 11q41 -2 56 -23t-8 -51l-169 -187q-17 -20 -32.5 -26.5t-43.5 -5.5 q-24 0 -34 14.5t-1 29.5z" />
<glyph unicode="&#xdb;" horiz-adv-x="1214" d="M100.5 261q-12.5 76 6.5 174l158 904q6 39 34 56.5t65 17.5q36 0 57 -17t14 -57l-165 -931q-2 -18 -4 -35t-0.5 -48t9 -56t25.5 -54t45.5 -48.5t74 -32.5t106.5 -13t111.5 13t86 33t63 48t44.5 54t28 56t16.5 48t7.5 35l165 931q6 40 33.5 57t64 17t58 -17t14.5 -57 l-159 -904q-10 -61 -29.5 -114.5t-45.5 -96.5t-58.5 -79t-70.5 -63t-79.5 -47.5t-87 -33.5t-92.5 -19t-96 -6q-80 0 -146 16t-121 50.5t-87.5 88.5t-45 130zM519 1502.5q-2 17.5 16 36.5l181 183q10 14 23 23t31 13t44 4q40 0 58.5 -8.5t33.5 -31.5l113 -183q13 -19 2 -36.5 t-40 -23.5q-41 -13 -73 24l-113 144l-163 -144q-44 -36 -88 -24q-23 6 -25 23.5z" />
<glyph unicode="&#xdc;" horiz-adv-x="1214" d="M100.5 261q-12.5 76 6.5 174l158 904q6 39 34 56.5t65 17.5q36 0 57 -17t14 -57l-165 -931q-2 -18 -4 -35t-0.5 -48t9 -56t25.5 -54t45.5 -48.5t74 -32.5t106.5 -13t111.5 13t86 33t63 48t44.5 54t28 56t16.5 48t7.5 35l165 931q6 40 33.5 57t64 17t58 -17t14.5 -57 l-159 -904q-10 -61 -29.5 -114.5t-45.5 -96.5t-58.5 -79t-70.5 -63t-79.5 -47.5t-87 -33.5t-92.5 -19t-96 -6q-80 0 -146 16t-121 50.5t-87.5 88.5t-45 130zM524 1599q10 54 37.5 80.5t84.5 26.5q60 0 76 -25.5t6 -81.5q-8 -54 -33.5 -80.5t-85.5 -26.5q-59 0 -76 26.5 t-9 80.5zM845 1599q19 107 120 107q60 0 76 -26t7 -81q-8 -53 -35 -80t-86 -27t-74.5 26.5t-7.5 80.5z" />
<glyph unicode="&#xdd;" horiz-adv-x="996" d="M153 1331q-13 36 14 59t66 23q43 0 64 -11t36 -54l167 -517q18 -50 26 -96q22 45 60 100l347 513q28 42 54 53.5t72 11.5q19 0 34 -4t25 -12.5t8 -25.5t-19 -40l-521 -733l-94 -540q-15 -76 -99 -76q-37 0 -58.5 17.5t-13.5 58.5l95 540zM624 1475l123 205q13 21 36 33 t72 11q41 -2 56.5 -23t-7.5 -52l-169 -186q-12 -14 -22 -21t-22.5 -9.5t-31.5 -1.5q-24 0 -34 14.5t-1 29.5z" />
<glyph unicode="&#xde;" horiz-adv-x="1185" d="M38 52l231 1304q5 37 33 53t64 16q21 0 36.5 -5.5t25 -21.5t5.5 -42l-46 -258h440q62 0 114 -12t89 -33.5t66 -50.5t45.5 -63.5t26.5 -72.5t9 -77.5t-7 -78.5q-9 -53 -32.5 -105.5t-64.5 -103t-94.5 -89t-128 -62t-159.5 -23.5h-440l-48 -275q-7 -40 -33 -57.5t-59 -17.5 q-36 0 -58 17.5t-15 57.5zM277 471h432q60 0 111.5 20.5t87 55t58 76.5t30.5 87q5 38 3.5 73.5t-16.5 67.5t-39 56t-62.5 38t-86.5 14h-431z" />
<glyph unicode="&#xdf;" horiz-adv-x="1045" d="M16 -76l197 1114q33 190 146.5 284t284.5 91q67 0 125 -20t99 -57t59 -93.5t6 -124.5q-14 -78 -53.5 -138t-98.5 -100t-143 -72q-12 -5 -17.5 -12.5t-0.5 -16.5t22 -15q16 -5 57 -18.5t59.5 -20t44.5 -19t44 -26.5q26 -17 46 -37t37 -49.5t25 -65t8 -83.5t-11 -104 q-30 -160 -141 -255.5t-261 -97.5q-107 -3 -182.5 44t-88.5 127q-3 11 -1 23t10.5 23t20.5 17q19 10 42.5 5t31.5 -24q56 -82 179 -82q87 1 151.5 69t77.5 174q4 27 4 51t-4 44t-9 36.5t-16.5 31t-20 25.5t-25 22.5t-27 18.5t-30.5 16t-31 13.5l-33 13.5q-11 5 -17 7 t-15.5 6t-16.5 8q-39 22 -62 57t-19 71q6 25 16 43t31 34.5t56 32.5q98 36 143.5 87t59.5 128q16 89 -35.5 136.5t-141.5 44.5q-62 -2 -110 -30.5t-81.5 -87.5t-48.5 -147l-195 -1097q-11 -67 -83 -67q-35 0 -52.5 14t-11.5 48z" />
<glyph unicode="&#xe0;" d="M12 280q-1 67 11 143q29 182 127.5 322t251.5 217.5t337 77.5h90q25 0 45.5 -4t34.5 -9.5t24 -15.5t16 -19t8.5 -24.5t3.5 -26t-1 -29t-3.5 -29t-4.5 -30.5l-103 -572q-16 -99 -16 -233q0 -38 -13.5 -54.5t-49.5 -17.5q-32 -2 -54 14t-25 46q-4 26 -5 50t-1 34.5 t1.5 37.5t1.5 33q-43 -91 -150 -155t-211 -64q-79 0 -139.5 22.5t-96.5 63.5t-57 98t-22 124zM174.5 343q-2.5 -45 6 -89t28.5 -74.5t58.5 -49.5t92.5 -19q51 0 99.5 21.5t87.5 58.5t72.5 84t58.5 99.5t41.5 103.5t25.5 98l50 285q5 28 -3 40t-39 12q-102 0 -194.5 -31.5 t-168.5 -90t-129.5 -149t-74.5 -202.5q-9 -52 -11.5 -97zM594 1356q-14 30 8.5 51.5t63.5 23.5q52 1 71.5 -11t24.5 -33l50 -205q4 -16 -11 -30t-39 -14q-28 -2 -42 5t-21 27z" />
<glyph unicode="&#xe1;" d="M12 280q-1 67 11 143q29 182 127.5 322t251.5 217.5t337 77.5h90q25 0 45.5 -4t34.5 -9.5t24 -15.5t16 -19t8.5 -24.5t3.5 -26t-1 -29t-3.5 -29t-4.5 -30.5l-103 -572q-16 -99 -16 -233q0 -38 -13.5 -54.5t-49.5 -17.5q-32 -2 -54 14t-25 46q-4 26 -5 50t-1 34.5 t1.5 37.5t1.5 33q-43 -91 -150 -155t-211 -64q-79 0 -139.5 22.5t-96.5 63.5t-57 98t-22 124zM174.5 343q-2.5 -45 6 -89t28.5 -74.5t58.5 -49.5t92.5 -19q51 0 99.5 21.5t87.5 58.5t72.5 84t58.5 99.5t41.5 103.5t25.5 98l50 285q5 28 -3 40t-39 12q-102 0 -194.5 -31.5 t-168.5 -90t-129.5 -149t-74.5 -202.5q-9 -52 -11.5 -97zM686 1182l122 205q13 21 36.5 33t72.5 11q42 -2 57 -23.5t-9 -51.5l-168 -186q-18 -20 -33.5 -27t-43.5 -5q-23 0 -33 14.5t-1 29.5z" />
<glyph unicode="&#xe2;" d="M12 280q-1 67 11 143q29 182 127.5 322t251.5 217.5t337 77.5h90q25 0 45.5 -4t34.5 -9.5t24 -15.5t16 -19t8.5 -24.5t3.5 -26t-1 -29t-3.5 -29t-4.5 -30.5l-103 -572q-16 -99 -16 -233q0 -38 -13.5 -54.5t-49.5 -17.5q-32 -2 -54 14t-25 46q-4 26 -5 50t-1 34.5 t1.5 37.5t1.5 33q-43 -91 -150 -155t-211 -64q-79 0 -139.5 22.5t-96.5 63.5t-57 98t-22 124zM174.5 343q-2.5 -45 6 -89t28.5 -74.5t58.5 -49.5t92.5 -19q51 0 99.5 21.5t87.5 58.5t72.5 84t58.5 99.5t41.5 103.5t25.5 98l50 285q5 28 -3 40t-39 12q-102 0 -194.5 -31.5 t-168.5 -90t-129.5 -149t-74.5 -202.5q-9 -52 -11.5 -97zM463 1169.5q-2 18.5 16 36.5l182 183q14 21 36.5 30.5t61.5 9.5t57.5 -9t34.5 -31l112 -183q13 -18 2 -36.5t-40 -23.5q-40 -13 -72 24l-114 144l-163 -144q-44 -36 -88 -24q-23 5 -25 23.5z" />
<glyph unicode="&#xe3;" d="M12 280q-1 67 11 143q29 182 127.5 322t251.5 217.5t337 77.5h90q25 0 45.5 -4t34.5 -9.5t24 -15.5t16 -19t8.5 -24.5t3.5 -26t-1 -29t-3.5 -29t-4.5 -30.5l-103 -572q-16 -99 -16 -233q0 -38 -13.5 -54.5t-49.5 -17.5q-32 -2 -54 14t-25 46q-4 26 -5 50t-1 34.5 t1.5 37.5t1.5 33q-43 -91 -150 -155t-211 -64q-79 0 -139.5 22.5t-96.5 63.5t-57 98t-22 124zM174.5 343q-2.5 -45 6 -89t28.5 -74.5t58.5 -49.5t92.5 -19q51 0 99.5 21.5t87.5 58.5t72.5 84t58.5 99.5t41.5 103.5t25.5 98l50 285q5 28 -3 40t-39 12q-102 0 -194.5 -31.5 t-168.5 -90t-129.5 -149t-74.5 -202.5q-9 -52 -11.5 -97zM381 1224q20 49 53 83t73 50t85 16q52 0 122 -36q4 -2 31 -19.5t47 -25t43 -7.5q56 0 90 63q17 28 61 25q39 0 33 -38q-21 -68 -71.5 -107.5t-110.5 -49.5q-78 -10 -167 40q-2 2 -8 5q-23 14 -35.5 20.5t-32.5 12.5 t-36 4q-53 0 -81 -54q-30 -38 -61 -30q-24 1 -33 15.5t-2 32.5z" />
<glyph unicode="&#xe4;" d="M12 280q-1 67 11 143q29 182 127.5 322t251.5 217.5t337 77.5h90q25 0 45.5 -4t34.5 -9.5t24 -15.5t16 -19t8.5 -24.5t3.5 -26t-1 -29t-3.5 -29t-4.5 -30.5l-103 -572q-16 -99 -16 -233q0 -38 -13.5 -54.5t-49.5 -17.5q-32 -2 -54 14t-25 46q-4 26 -5 50t-1 34.5 t1.5 37.5t1.5 33q-43 -91 -150 -155t-211 -64q-79 0 -139.5 22.5t-96.5 63.5t-57 98t-22 124zM174.5 343q-2.5 -45 6 -89t28.5 -74.5t58.5 -49.5t92.5 -19q51 0 99.5 21.5t87.5 58.5t72.5 84t58.5 99.5t41.5 103.5t25.5 98l50 285q5 28 -3 40t-39 12q-102 0 -194.5 -31.5 t-168.5 -90t-129.5 -149t-74.5 -202.5q-9 -52 -11.5 -97zM494 1287q6 35 19 57.5t38.5 35.5t64.5 13q61 0 76.5 -25.5t6.5 -80.5q-3 -21 -8 -36.5t-14 -30t-22 -23.5t-32 -14t-45 -5q-59 0 -75.5 27.5t-8.5 81.5zM814 1287q6 34 20 57t39 36t62 13q59 0 75.5 -26t6.5 -80 q-8 -54 -34.5 -81.5t-85.5 -27.5t-75 27t-8 82z" />
<glyph unicode="&#xe5;" d="M12 280q-1 67 11 143q29 182 127.5 322t251.5 217.5t337 77.5h90q25 0 45.5 -4t34.5 -9.5t24 -15.5t16 -19t8.5 -24.5t3.5 -26t-1 -29t-3.5 -29t-4.5 -30.5l-103 -572q-16 -99 -16 -233q0 -38 -13.5 -54.5t-49.5 -17.5q-32 -2 -54 14t-25 46q-4 26 -5 50t-1 34.5 t1.5 37.5t1.5 33q-43 -91 -150 -155t-211 -64q-79 0 -139.5 22.5t-96.5 63.5t-57 98t-22 124zM174.5 343q-2.5 -45 6 -89t28.5 -74.5t58.5 -49.5t92.5 -19q51 0 99.5 21.5t87.5 58.5t72.5 84t58.5 99.5t41.5 103.5t25.5 98l50 285q5 28 -3 40t-39 12q-102 0 -194.5 -31.5 t-168.5 -90t-129.5 -149t-74.5 -202.5q-9 -52 -11.5 -97zM574 1302q12 69 72 118t131 49q70 0 113 -49t31 -118q-13 -72 -73.5 -122t-131.5 -50t-113 50t-29 122zM644 1302q-5 -28 4.5 -52.5t31 -38.5t48.5 -14q42 0 77.5 31t43 74.5t-16.5 73t-66 29.5t-78.5 -30t-43.5 -73 z" />
<glyph unicode="&#xe6;" horiz-adv-x="1693" d="M18 285q9 53 28.5 98t48 78.5t62 60t75 45t83 32t89 21t90.5 11.5t90 5q123 0 176 -4q27 150 -21 229t-183 81q-123 5 -231 -79q-38 -23 -64.5 -20t-36.5 24q-49 50 25 104q132 97 353 97q119 0 196.5 -46.5t107.5 -126.5q47 52 104.5 90t130.5 60.5t152 22.5 q193 0 285.5 -117.5t55.5 -312.5q-5 -23 -10 -39t-18 -35.5t-31.5 -31.5t-51.5 -20t-77 -8h-535q-11 -63 -12 -118.5t11.5 -107.5t39.5 -89t76 -59.5t116 -22.5q54 0 104.5 20.5t93 60t69.5 93.5q36 58 104 52q30 -4 43 -25t1 -57q-37 -88 -110 -152t-162 -95.5t-183 -31.5 q-137 0 -227 64t-124 171q-87 -113 -205 -176t-237 -63q-74 1 -133 21t-100 57.5t-57 98.5t-1 140zM186 279q-16 -87 28 -134t129 -47q68 0 135 29.5t120 82t84 117.5q42 91 57 183q-30 5 -151 5q-46 0 -88.5 -4.5t-86 -15t-80 -28.5t-67 -43.5t-51.5 -62.5t-29 -82z M937 622h496q23 0 34 10t16 36q18 130 -35 204t-169 74q-62 0 -121 -29t-103 -75.5t-75 -104t-43 -115.5z" />
<glyph unicode="&#xe7;" horiz-adv-x="948" d="M44 317.5q-6 93.5 16 203.5q17 96 46 175.5t74.5 147.5t105 114.5t140 72.5t176.5 26q72 0 128.5 -20.5t89 -52t53.5 -73.5t28 -79.5t6 -74.5q2 -40 -15 -59.5t-57 -21.5q-36 -6 -58.5 8.5t-23.5 45.5q-4 205 -171 205q-68 0 -124 -26.5t-93 -67t-66 -98t-44.5 -110 t-26.5 -112.5q-73 -414 207 -414q172 0 241 194q25 59 103 59q40 -5 50 -25.5t-6 -59.5q-12 -34 -31 -69t-52.5 -75t-74.5 -71t-101 -53.5t-129 -26.5l-8 -20q-8 -12 -7 -18.5t15 -6.5q85 -4 129.5 -38.5t33.5 -101.5q-9 -53 -41 -90.5t-75.5 -54.5t-94.5 -22t-98 1.5 t-86 21.5q-43 20 -25 62q9 20 26.5 32t38.5 2q24 -7 47.5 -12.5t56.5 -9t57.5 -0.5t43.5 17.5t23 40.5q8 42 -29 61t-124 18q-19 0 -26.5 10.5t3.5 33.5l38 78q-96 12 -160 56.5t-93.5 114t-35.5 163z" />
<glyph unicode="&#xe8;" horiz-adv-x="1017" d="M51 375.5q-3 67.5 11 138.5q14 87 44.5 167t79 151t110.5 123t145.5 82.5t178.5 30.5q127 0 212.5 -53.5t118 -149.5t8.5 -221q-4 -25 -9.5 -42.5t-18.5 -37t-32.5 -31.5t-52 -19.5t-76.5 -7.5h-533q-7 -45 -10 -86t0.5 -81.5t13.5 -75t28.5 -64.5t44.5 -51t63.5 -32.5 t84.5 -11.5q87 0 161.5 47.5t115.5 133.5q9 17 24 29.5t34 18t38 2.5q33 -4 45 -24t-1 -56q-37 -89 -109.5 -154.5t-160 -97t-180.5 -31.5q-77 0 -140.5 20.5t-106 57t-73.5 87.5t-43 111t-15 127.5zM263 626h499q11 0 18.5 2.5t14.5 7.5t11 14.5t6 23.5q12 84 -8 144 t-71 93t-129 33q-63 0 -122.5 -28t-103 -73.5t-74 -102t-41.5 -114.5zM469 1356q-14 30 8.5 51.5t64.5 23.5q51 1 70.5 -11t25.5 -33l50 -205q3 -16 -12 -30t-38 -14q-29 -2 -42.5 5t-21.5 27z" />
<glyph unicode="&#xe9;" horiz-adv-x="1017" d="M51 375.5q-3 67.5 11 138.5q14 87 44.5 167t79 151t110.5 123t145.5 82.5t178.5 30.5q127 0 212.5 -53.5t118 -149.5t8.5 -221q-4 -25 -9.5 -42.5t-18.5 -37t-32.5 -31.5t-52 -19.5t-76.5 -7.5h-533q-7 -45 -10 -86t0.5 -81.5t13.5 -75t28.5 -64.5t44.5 -51t63.5 -32.5 t84.5 -11.5q87 0 161.5 47.5t115.5 133.5q9 17 24 29.5t34 18t38 2.5q33 -4 45 -24t-1 -56q-37 -89 -109.5 -154.5t-160 -97t-180.5 -31.5q-77 0 -140.5 20.5t-106 57t-73.5 87.5t-43 111t-15 127.5zM263 626h499q11 0 18.5 2.5t14.5 7.5t11 14.5t6 23.5q12 84 -8 144 t-71 93t-129 33q-63 0 -122.5 -28t-103 -73.5t-74 -102t-41.5 -114.5zM586 1202l123 205q12 22 35.5 34t72.5 10q42 -1 57 -22.5t-9 -51.5l-168 -187q-17 -20 -32.5 -26.5t-44.5 -5.5q-23 0 -33 14.5t-1 29.5z" />
<glyph unicode="&#xea;" horiz-adv-x="1017" d="M51 375.5q-3 67.5 11 138.5q14 87 44.5 167t79 151t110.5 123t145.5 82.5t178.5 30.5q127 0 212.5 -53.5t118 -149.5t8.5 -221q-4 -25 -9.5 -42.5t-18.5 -37t-32.5 -31.5t-52 -19.5t-76.5 -7.5h-533q-7 -45 -10 -86t0.5 -81.5t13.5 -75t28.5 -64.5t44.5 -51t63.5 -32.5 t84.5 -11.5q87 0 161.5 47.5t115.5 133.5q9 17 24 29.5t34 18t38 2.5q33 -4 45 -24t-1 -56q-37 -89 -109.5 -154.5t-160 -97t-180.5 -31.5q-77 0 -140.5 20.5t-106 57t-73.5 87.5t-43 111t-15 127.5zM263 626h499q11 0 18.5 2.5t14.5 7.5t11 14.5t6 23.5q12 84 -8 144 t-71 93t-129 33q-63 0 -122.5 -28t-103 -73.5t-74 -102t-41.5 -114.5zM381 1169.5q-2 18.5 17 36.5l180 183q15 21 37.5 30.5t60.5 9.5q40 0 58.5 -9t33.5 -31l113 -183q13 -18 2 -36.5t-40 -23.5q-41 -13 -73 24l-113 144l-163 -144q-44 -36 -88 -24q-23 5 -25 23.5z" />
<glyph unicode="&#xeb;" horiz-adv-x="1017" d="M51 375.5q-3 67.5 11 138.5q14 87 44.5 167t79 151t110.5 123t145.5 82.5t178.5 30.5q127 0 212.5 -53.5t118 -149.5t8.5 -221q-4 -25 -9.5 -42.5t-18.5 -37t-32.5 -31.5t-52 -19.5t-76.5 -7.5h-533q-7 -45 -10 -86t0.5 -81.5t13.5 -75t28.5 -64.5t44.5 -51t63.5 -32.5 t84.5 -11.5q87 0 161.5 47.5t115.5 133.5q9 17 24 29.5t34 18t38 2.5q33 -4 45 -24t-1 -56q-37 -89 -109.5 -154.5t-160 -97t-180.5 -31.5q-77 0 -140.5 20.5t-106 57t-73.5 87.5t-43 111t-15 127.5zM263 626h499q11 0 18.5 2.5t14.5 7.5t11 14.5t6 23.5q12 84 -8 144 t-71 93t-129 33q-63 0 -122.5 -28t-103 -73.5t-74 -102t-41.5 -114.5zM391 1287q9 53 37 79.5t86 26.5q60 0 76 -25.5t6 -80.5q-4 -26 -11 -44.5t-20.5 -34t-35.5 -23t-54 -7.5q-59 0 -75.5 27.5t-8.5 81.5zM712 1287q10 52 38.5 79t82.5 27q59 0 75.5 -26t6.5 -80 q-8 -54 -34.5 -81.5t-85.5 -27.5t-75 27t-8 82z" />
<glyph unicode="&#xec;" horiz-adv-x="448" d="M54 48l165 942q12 69 92 69q77 0 64 -69l-164 -942q-13 -68 -90 -68q-79 0 -67 68zM172 1377q-14 29 8.5 51t64.5 23q51 2 70.5 -10t25.5 -34l50 -205q3 -15 -12 -29.5t-38 -14.5q-20 -1 -31.5 1.5t-19.5 9.5t-13 21z" />
<glyph unicode="&#xed;" horiz-adv-x="448" d="M54 48l165 942q12 69 92 69q77 0 64 -69l-164 -942q-13 -68 -90 -68q-79 0 -67 68zM287 1222l123 205q13 21 36 33t71 11q42 -2 57.5 -23t-8.5 -52l-168 -186q-17 -20 -32.5 -26.5t-44.5 -5.5q-23 0 -33 14.5t-1 29.5z" />
<glyph unicode="&#xee;" horiz-adv-x="448" d="M54 48l165 942q12 69 92 69q77 0 64 -69l-164 -942q-13 -68 -90 -68q-79 0 -67 68zM79 1169.5q-2 18.5 17 36.5l181 183q15 21 37.5 30.5t60.5 9.5q40 0 58.5 -9t33.5 -31l113 -183q13 -18 2 -36.5t-40 -23.5q-41 -13 -73 24l-114 144l-162 -144q-44 -36 -89 -24 q-23 5 -25 23.5z" />
<glyph unicode="&#xef;" horiz-adv-x="448" d="M54 48l165 942q12 69 92 69q77 0 64 -69l-164 -942q-13 -68 -90 -68q-79 0 -67 68zM91 1250q-3 24 1 56q10 54 37.5 80.5t85.5 26.5q60 0 76 -25.5t6 -81.5q-8 -53 -34 -80t-87 -27q-40 0 -61 13.5t-24 37.5zM411.5 1250q-2.5 24 2.5 56q18 107 120 107q59 0 75.5 -26 t6.5 -81q-3 -26 -10.5 -44.5t-21 -33t-35.5 -22t-53 -7.5q-41 0 -61.5 13.5t-23 37.5z" />
<glyph unicode="&#xf0;" horiz-adv-x="1025" d="M31 322.5q0 77.5 15 167.5q20 114 61.5 203.5t106.5 156t159 101t211 33.5q39 0 84.5 -11t83 -30t55.5 -39q0 77 -37.5 153t-89.5 123l-255 -112q-41 -19 -59 28q-6 19 1 38t31 28l213 96q-71 61 -123 87q-20 11 -15 34.5t33 37.5q54 26 122 -6q58 -27 132 -86l175 76 q43 15 55 -28q17 -43 -33 -69l-128 -55q41 -53 69.5 -111.5t43.5 -120.5t21.5 -123t3 -131.5t-11 -133t-20.5 -139.5q-92 -510 -535 -510q-96 0 -167 24.5t-113.5 69t-65.5 108t-23 141zM203 313q3 -45 17.5 -81.5t38.5 -66t65.5 -45.5t96.5 -16q67 0 122 24t91.5 61 t64.5 90t43.5 103t25.5 108q8 44 9 86.5t-5 84.5t-22.5 77t-41.5 62.5t-64.5 43t-89.5 15.5q-274 0 -339 -369q-9 -47 -12 -89.5t0 -87.5z" />
<glyph unicode="&#xf1;" horiz-adv-x="1034" d="M38 48l167 944q10 67 86 67q70 0 60 -67l-28 -153q155 220 380 220q54 0 97 -13.5t70.5 -35.5t46 -52.5t27 -62.5t11 -68t0.5 -65.5t-7 -58.5l-115 -655q-12 -68 -90 -68q-79 0 -67 68l113 645q6 32 6.5 61.5t-7 61t-23.5 54t-47 37t-74 14.5q-55 0 -107 -20.5t-92.5 -56 t-74 -81.5t-55 -97.5t-30.5 -103.5l-90 -514q-12 -68 -91 -68q-78 0 -66 68zM349 1245q29 72 85.5 110t125.5 38q51 0 122 -37q4 -2 31 -19t47 -25t43 -8q55 0 90 65q16 27 61 24q39 0 34 -39q-21 -67 -72 -106.5t-111 -48.5q-78 -11 -167 40q-3 2 -11.5 6.5t-11.5 6.5 t-11 6.5t-11 6l-11 5.5t-11 4.5t-11 3.5t-11 2t-11.5 1t-11.5 0q-52 0 -80 -55q-30 -37 -63 -29q-23 1 -32.5 15.5t-1.5 32.5z" />
<glyph unicode="&#xf2;" horiz-adv-x="1029" d="M60 517q21 124 62 220t105.5 170t159 113t215.5 39q443 0 348 -542q-95 -537 -538 -537q-447 0 -352 537zM212 322q2 -50 15.5 -90t37.5 -73t66 -51t98 -18q67 0 123 27t93.5 68t66.5 100t45.5 114t27.5 118q7 39 10.5 74t5 73.5t-3 72.5t-13.5 66t-26 57.5t-40.5 45 t-58 30t-77.5 10.5q-67 0 -123 -27t-93 -68.5t-66.5 -100.5t-45.5 -114t-28 -119q-9 -51 -12.5 -98t-1.5 -97zM472 1384.5q3 13.5 13 23.5t27 16t37 7q51 1 70.5 -11t25.5 -33l50 -205q3 -16 -12 -30t-38 -14q-29 -2 -43.5 5t-21.5 27l-104 186q-7 15 -4 28.5z" />
<glyph unicode="&#xf3;" horiz-adv-x="1029" d="M60 517q21 124 62 220t105.5 170t159 113t215.5 39q443 0 348 -542q-95 -537 -538 -537q-447 0 -352 537zM212 322q2 -50 15.5 -90t37.5 -73t66 -51t98 -18q67 0 123 27t93.5 68t66.5 100t45.5 114t27.5 118q7 39 10.5 74t5 73.5t-3 72.5t-13.5 66t-26 57.5t-40.5 45 t-58 30t-77.5 10.5q-67 0 -123 -27t-93 -68.5t-66.5 -100.5t-45.5 -114t-28 -119q-9 -51 -12.5 -98t-1.5 -97zM564.5 1162q-1.5 10 3.5 20l123 205q13 21 36 33t72 11q41 -2 56 -23.5t-8 -51.5l-169 -186q-17 -20 -32.5 -27t-43.5 -5q-16 0 -26 7t-11.5 17z" />
<glyph unicode="&#xf4;" horiz-adv-x="1029" d="M60 517q21 124 62 220t105.5 170t159 113t215.5 39q443 0 348 -542q-95 -537 -538 -537q-447 0 -352 537zM212 322q2 -50 15.5 -90t37.5 -73t66 -51t98 -18q67 0 123 27t93.5 68t66.5 100t45.5 114t27.5 118q7 39 10.5 74t5 73.5t-3 72.5t-13.5 66t-26 57.5t-40.5 45 t-58 30t-77.5 10.5q-67 0 -123 -27t-93 -68.5t-66.5 -100.5t-45.5 -114t-28 -119q-9 -51 -12.5 -98t-1.5 -97zM365 1149.5q-2 17.5 16 36.5l182 183q10 15 22.5 23.5t30.5 12.5t45 4q39 0 57.5 -8.5t34.5 -31.5l112 -183q13 -18 2.5 -36t-40.5 -24q-40 -13 -72 25l-114 144 l-163 -144q-44 -36 -88 -25q-23 6 -25 23.5z" />
<glyph unicode="&#xf5;" horiz-adv-x="1029" d="M60 517q21 124 62 220t105.5 170t159 113t215.5 39q443 0 348 -542q-95 -537 -538 -537q-447 0 -352 537zM212 322q2 -50 15.5 -90t37.5 -73t66 -51t98 -18q67 0 123 27t93.5 68t66.5 100t45.5 114t27.5 118q7 39 10.5 74t5 73.5t-3 72.5t-13.5 66t-26 57.5t-40.5 45 t-58 30t-77.5 10.5q-67 0 -123 -27t-93 -68.5t-66.5 -100.5t-45.5 -114t-28 -119q-9 -51 -12.5 -98t-1.5 -97zM303 1224q29 73 85.5 111t125.5 38q51 0 122 -36q8 -4 25 -15t29 -18t30.5 -13t36.5 -6q56 0 90 63q17 28 60 25q40 0 35 -38q-22 -68 -73 -107.5t-110 -49.5 q-78 -10 -167 40q-3 2 -8 5q-23 14 -36 20.5t-32.5 12.5t-36.5 4q-29 0 -47 -13t-32 -41q-31 -38 -63 -30q-23 1 -32.5 15.5t-1.5 32.5z" />
<glyph unicode="&#xf6;" horiz-adv-x="1029" d="M60 517q21 124 62 220t105.5 170t159 113t215.5 39q443 0 348 -542q-95 -537 -538 -537q-447 0 -352 537zM212 322q2 -50 15.5 -90t37.5 -73t66 -51t98 -18q67 0 123 27t93.5 68t66.5 100t45.5 114t27.5 118q7 39 10.5 74t5 73.5t-3 72.5t-13.5 66t-26 57.5t-40.5 45 t-58 30t-77.5 10.5q-67 0 -123 -27t-93 -68.5t-66.5 -100.5t-45.5 -114t-28 -119q-9 -51 -12.5 -98t-1.5 -97zM376 1230q-3 24 1 57q10 53 37.5 80t85.5 27q60 0 76 -26t6 -81q-8 -54 -34 -81t-86 -27q-41 0 -62 13.5t-24 37.5zM699 1287q19 107 120 107q60 0 76 -26t7 -81 q-8 -53 -35 -80.5t-86 -27.5t-75 26.5t-7 81.5z" />
<glyph unicode="&#xf7;" d="M84 657q15 73 83 73h737q67 0 52 -73q-12 -69 -79 -69h-737q-67 0 -56 69zM368 302q-2 24 3 58q8 47 34.5 73.5t80.5 26.5q58 0 75 -24.5t7 -75.5q-9 -55 -34.5 -82t-83.5 -27q-41 0 -60.5 13.5t-21.5 37.5zM475 913.5q-1 24.5 4 57.5q8 48 33.5 72.5t79.5 24.5 q57 0 74.5 -24t9.5 -73q-10 -54 -36.5 -83t-83.5 -29q-41 0 -60.5 15t-20.5 39.5z" />
<glyph unicode="&#xf8;" horiz-adv-x="1065" d="M-4 -10q-39 39 2 81l94 98q-52 129 -12 352q97 536 536 536q193 0 277 -90l72 75q30 21 50.5 19.5t34.5 -17.5q20 -11 21 -30.5t-23 -46.5l-98 -98q57 -124 15 -348q-21 -125 -61.5 -221.5t-104 -169.5t-157.5 -111.5t-215 -38.5q-179 0 -274 93l-79 -79q-39 -42 -78 -4z M231 305l550 546q-56 97 -183 97q-66 0 -121.5 -27.5t-93 -69.5t-67.5 -100.5t-47 -113.5t-28 -116q-21 -135 -10 -216zM270 184q46 -90 178 -90q276 0 351 427q20 118 15 209z" />
<glyph unicode="&#xf9;" horiz-adv-x="1034" d="M63.5 213q-6.5 71 10.5 155l108 622q12 69 93 69q35 0 53 -17t11 -52l-106 -611q-9 -47 -12 -82t1.5 -71.5t20 -60t47.5 -38t79 -14.5q69 0 131.5 32.5t108 85t77 116.5t42.5 130l91 513q12 69 94 69q76 0 64 -69l-163 -930q-4 -26 -19 -42t-32.5 -22t-38.5 -6 q-33 0 -48 15.5t-8 54.5l25 139q-157 -219 -372 -219q-84 0 -141.5 29.5t-83.5 81t-32.5 122.5zM515 1337q-14 29 8.5 51t64.5 23q51 2 70.5 -10.5t25.5 -33.5l50 -205q3 -15 -12 -29.5t-38 -14.5q-29 -1 -43 6t-22 27z" />
<glyph unicode="&#xfa;" horiz-adv-x="1034" d="M63.5 213q-6.5 71 10.5 155l108 622q12 69 93 69q35 0 53 -17t11 -52l-106 -611q-9 -47 -12 -82t1.5 -71.5t20 -60t47.5 -38t79 -14.5q69 0 131.5 32.5t108 85t77 116.5t42.5 130l91 513q12 69 94 69q76 0 64 -69l-163 -930q-4 -26 -19 -42t-32.5 -22t-38.5 -6 q-33 0 -48 15.5t-8 54.5l25 139q-157 -219 -372 -219q-84 0 -141.5 29.5t-83.5 81t-32.5 122.5zM543.5 1147q-0.5 8 4.5 15l122 205q13 21 36.5 33.5t72.5 10.5q42 -1 56.5 -22.5t-8.5 -51.5l-168 -186q-18 -21 -33.5 -27.5t-43.5 -5.5q-12 0 -21 4t-13 10.5t-4.5 14.5z" />
<glyph unicode="&#xfb;" horiz-adv-x="1034" d="M63.5 213q-6.5 71 10.5 155l108 622q12 69 93 69q35 0 53 -17t11 -52l-106 -611q-9 -47 -12 -82t1.5 -71.5t20 -60t47.5 -38t79 -14.5q69 0 131.5 32.5t108 85t77 116.5t42.5 130l91 513q12 69 94 69q76 0 64 -69l-163 -930q-4 -26 -19 -42t-32.5 -22t-38.5 -6 q-33 0 -48 15.5t-8 54.5l25 139q-157 -219 -372 -219q-84 0 -141.5 29.5t-83.5 81t-32.5 122.5zM367 1149.5q-2 17.5 16 36.5l181 183q10 15 23 23.5t31 12.5t44 4q40 0 58.5 -8.5t34.5 -31.5l112 -183q13 -18 2 -36t-40 -24q-41 -13 -72 25l-114 144l-163 -144 q-44 -36 -88 -25q-23 6 -25 23.5z" />
<glyph unicode="&#xfc;" horiz-adv-x="1034" d="M63.5 213q-6.5 71 10.5 155l108 622q12 69 93 69q35 0 53 -17t11 -52l-106 -611q-9 -47 -12 -82t1.5 -71.5t20 -60t47.5 -38t79 -14.5q69 0 131.5 32.5t108 85t77 116.5t42.5 130l91 513q12 69 94 69q76 0 64 -69l-163 -930q-4 -26 -19 -42t-32.5 -22t-38.5 -6 q-33 0 -48 15.5t-8 54.5l25 139q-157 -219 -372 -219q-84 0 -141.5 29.5t-83.5 81t-32.5 122.5zM374 1209.5q-3 23.5 1 56.5q10 53 37.5 80t85.5 27q60 0 76 -26t6 -81q-8 -54 -34 -81t-86 -27q-41 0 -62 14t-24 37.5zM697 1266q19 107 120 107q60 0 76 -26t7 -81 q-8 -53 -35 -80.5t-86 -27.5t-74.5 27t-7.5 81z" />
<glyph unicode="&#xfd;" horiz-adv-x="918" d="M-41.5 -309q-5.5 19 3 46.5t26 41t35 12.5t33.5 -4q14 -3 27.5 -3t24 2t21 6.5t18.5 10t16.5 14t15 16.5t13.5 19.5t12.5 21t12.5 22.5l74 144l-180 952q-8 34 18.5 50.5t67.5 16.5q24 0 40 -6t26.5 -21.5t15.5 -39.5l112 -623q12 -70 15 -128q13 39 58 130l321 621 q18 36 42.5 51.5t61.5 15.5q42 0 65.5 -16.5t4.5 -50.5l-584 -1092q-15 -28 -25 -46t-27 -45.5t-30.5 -44.5t-33.5 -39t-39 -35t-44 -26t-51 -18t-58 -4.5t-67 7.5q-15 3 -25.5 13t-16 29zM506 1143l122 205q13 21 36 33t72 11q42 -2 57 -23.5t-8 -51.5l-169 -186 q-17 -20 -32.5 -27t-43.5 -5q-23 0 -33.5 14t-0.5 30z" />
<glyph unicode="&#xfe;" horiz-adv-x="1053" d="M-24 -305l291 1653q12 69 84 69q75 0 63 -69l-85 -473q156 188 355 188q87 0 149.5 -29t97 -78t49.5 -119.5t12 -147.5t-19 -168t-43.5 -170t-71 -149.5t-99 -120.5t-131 -78.5t-162.5 -28.5q-175 0 -257 164l-79 -443q-12 -68 -86 -68q-33 0 -54 15t-14 53zM261 399 q0 -43 7 -85t25 -78t44 -64t64.5 -43.5t86.5 -15.5q44 0 82.5 13t67.5 35t53.5 54.5t42 67t31.5 77.5t23 80.5t17 80.5q74 402 -173 402q-69 0 -130 -30t-104 -79.5t-71.5 -109t-39.5 -122.5l-18 -98q-8 -42 -8 -85z" />
<glyph unicode="&#xff;" horiz-adv-x="918" d="M-41.5 -309q-5.5 19 3 46.5t26 41t35 12.5t33.5 -4q14 -3 27.5 -3t24 2t21 6.5t18.5 10t16.5 14t15 16.5t13.5 19.5t12.5 21t12.5 22.5l74 144l-180 952q-8 34 18.5 50.5t67.5 16.5q24 0 40 -6t26.5 -21.5t15.5 -39.5l112 -623q12 -70 15 -128q13 39 58 130l321 621 q18 36 42.5 51.5t61.5 15.5q42 0 65.5 -16.5t4.5 -50.5l-584 -1092q-15 -28 -25 -46t-27 -45.5t-30.5 -44.5t-33.5 -39t-39 -35t-44 -26t-51 -18t-58 -4.5t-67 7.5q-15 3 -25.5 13t-16 29zM316 1209.5q-3 23.5 2 56.5q9 53 37 80t85 27q42 0 62 -13t22.5 -36.5t-3.5 -57.5 q-8 -54 -33.5 -81t-85.5 -27q-41 0 -62 14t-24 37.5zM638 1266q19 107 121 107q40 0 61 -13t23.5 -36.5t-2.5 -57.5q-8 -53 -34.5 -80.5t-86.5 -27.5q-58 0 -74 27t-8 81z" />
<glyph unicode="&#x152;" horiz-adv-x="1960" d="M71.5 459.5q-0.5 109.5 20.5 237.5q19 108 50.5 203t76.5 176.5t104 145.5t130 109.5t158 69.5t186 24q278 0 373 -205q7 43 19 73.5t33.5 57.5t57.5 40.5t87 13.5h600q37 0 49.5 -22t6.5 -56q-3 -15 -8.5 -28t-15.5 -24.5t-25.5 -18.5t-35.5 -7h-542q-27 0 -41 -14 t-20 -45l-69 -391h473q63 0 51 -71q-15 -77 -78 -77h-471l-79 -442q-5 -28 4.5 -39t37.5 -11h542q38 0 50.5 -24t5.5 -59q-5 -33 -24.5 -54.5t-57.5 -21.5h-600q-51 0 -82.5 14.5t-43 39.5t-13.5 58.5t7 71.5v7q-176 -214 -446 -214q-117 0 -207 34.5t-145.5 97.5t-86.5 152 t-31.5 198.5zM275 697q-103 -586 289 -586q70 0 132 19t108.5 51t86 78.5t67 96.5t50 110.5t36.5 115t24 115.5q102 600 -296 600q-394 0 -497 -600z" />
<glyph unicode="&#x153;" horiz-adv-x="1737" d="M60 521q17 96 46 175.5t74 147.5t104.5 114.5t140 72.5t177.5 26q252 0 315 -206q166 217 424 217q193 0 284.5 -117.5t52.5 -312.5q-5 -24 -9.5 -39.5t-17.5 -35t-32 -31.5t-52.5 -20t-78.5 -8h-529q-11 -63 -12 -118.5t11.5 -107.5t39 -89t74 -59.5t112.5 -22.5 q43 0 83.5 11.5t75.5 34t64.5 55t51.5 73.5q13 27 39.5 41t56.5 11q69 -9 46 -82q-38 -88 -110.5 -152t-159.5 -95.5t-179 -31.5q-257 0 -351 219q-64 -98 -161 -154.5t-226 -56.5q-448 0 -354 541zM226 521q-75 -427 207 -427q65 0 120 26.5t91.5 67.5t65.5 99t45.5 114.5 t27.5 119.5q9 50 12.5 96.5t1.5 96t-16 90.5t-37 74t-64 51.5t-96 18.5q-69 0 -125.5 -27.5t-94 -69t-66.5 -101t-44.5 -113t-27.5 -116.5zM981 622h498q45 0 53 46q10 64 0.5 115.5t-35 87.5t-69.5 55.5t-101 19.5q-63 0 -122 -29t-103 -76t-75.5 -103.5t-45.5 -115.5z" />
<glyph unicode="&#x178;" horiz-adv-x="996" d="M153 1331q-13 36 14 59t66 23q43 0 64 -11t36 -54l167 -517q18 -50 26 -96q22 45 60 100l347 513q28 42 54 53.5t72 11.5q19 0 34 -4t25 -12.5t8 -25.5t-19 -40l-521 -733l-94 -540q-15 -76 -99 -76q-37 0 -58.5 17.5t-13.5 58.5l95 540zM408 1502.5q-3 23.5 2 56.5 q9 53 37 80t85 27q61 0 76.5 -26t5.5 -81q-3 -26 -10.5 -44.5t-20.5 -33.5t-35.5 -22.5t-53.5 -7.5q-41 0 -62 14t-24 37.5zM730 1559q19 107 121 107q59 0 75.5 -26t6.5 -81q-8 -53 -34.5 -80.5t-86.5 -27.5q-58 0 -74 27t-8 81z" />
<glyph unicode="&#x2c6;" horiz-adv-x="628" d="M164.5 1149.5q-2.5 17.5 15.5 36.5l182 183q10 15 22.5 23.5t31 12.5t44.5 4q16 0 28.5 -1.5t22 -4t16.5 -8t12.5 -11.5t12.5 -15l112 -183q13 -18 2.5 -36t-40.5 -24q-40 -13 -72 25l-114 144l-163 -144q-44 -36 -88 -25q-22 6 -24.5 23.5z" />
<glyph unicode="&#x2c7;" horiz-adv-x="707" d="M245.5 1381.5q8.5 18.5 33.5 23.5q48 12 79 -24l111 -144l165 144q46 37 82 24q27 -5 31.5 -23.5t-14.5 -36.5l-177 -183q-17 -15 -29.5 -23t-31 -12.5t-45.5 -4.5q-26 0 -43 4t-26.5 13t-14.5 23l-117 183q-12 18 -3.5 36.5z" />
<glyph unicode="&#x2da;" horiz-adv-x="465" d="M174 1243q12 68 72 117t131 49q70 0 113 -49t31 -117q-13 -73 -73 -123t-130 -50q-72 0 -114.5 50t-29.5 123zM245 1243q-7 -44 17.5 -75.5t66.5 -31.5t77.5 31.5t43 75t-16 73t-65.5 29.5q-43 0 -79.5 -30t-43.5 -72z" />
<glyph unicode="&#x2dc;" horiz-adv-x="820" d="M220 1245q30 72 86 110t125 38q52 0 123 -37q3 -2 30.5 -19t47.5 -25t42 -8q56 0 90 65q17 27 61 24q40 0 34 -39q-21 -67 -72 -106.5t-111 -48.5q-78 -11 -166 40q-3 2 -11.5 6.5t-11.5 6.5t-11 6.5t-11 6l-11 5.5t-11 4.5t-11.5 3.5t-11 2t-11 1t-11.5 0q-52 0 -80 -55 q-30 -37 -63 -29q-24 1 -33 15.5t-2 32.5z" />
<glyph unicode="&#x401;" horiz-adv-x="1036" d="M56 113.5q-3 33.5 6 70.5l183 1036q7 41 19.5 72t34 58t58 41t85.5 14h604q69 0 54 -78q-5 -33 -25 -55t-58 -22h-544q-29 0 -43 -12.5t-20 -42.5l-69 -390h473q65 0 53 -75q-15 -73 -78 -73h-473l-79 -446q-6 -31 4 -43.5t40 -12.5h544q69 0 54 -79q-12 -76 -80 -76 h-604q-49 0 -80.5 14.5t-43.5 40t-15 59zM475 1632q8 50 35 76t84 26q56 0 72 -25.5t8 -76.5q-9 -54 -35.5 -81.5t-82.5 -27.5q-59 0 -75 27t-6 82zM797 1632q8 50 34.5 76t81.5 26q58 0 74.5 -25.5t8.5 -76.5q-5 -26 -12.5 -44.5t-21 -34t-35.5 -23t-52 -7.5 q-57 0 -72.5 27t-5.5 82z" />
<glyph unicode="&#x402;" horiz-adv-x="1440" d="M132 1323q5 33 25 56.5t56 23.5h789q68 0 55 -80q-5 -32 -25.5 -54t-58.5 -22h-307l-80 -452q91 47 197.5 73.5t193.5 22.5q77 -3 140.5 -22t107.5 -50.5t76 -74t46 -92t17.5 -105t-10.5 -112.5q-16 -85 -60 -164.5t-110 -143t-158.5 -102t-196.5 -39.5q-155 0 -239 68 q-20 19 -19 45t17 48q35 38 88 8q55 -33 165 -33q72 2 136 30.5t108 74.5t73.5 102.5t40.5 116.5q7 49 4 93.5t-22 83t-49 68t-77 47.5t-105 21q-93 1 -197.5 -24.5t-188.5 -73.5l-106 -599q-13 -74 -96 -74q-38 0 -61 17t-16 57l209 1185h-310q-64 0 -52 76z" />
<glyph unicode="&#x403;" horiz-adv-x="872" d="M40 65l203 1151q7 42 19 72.5t34 58t58 42t86 14.5h491q67 0 55 -80q-5 -32 -25 -54t-57 -22h-431q-30 0 -45.5 -14t-21.5 -45l-199 -1123q-12 -71 -94 -71q-37 0 -58.5 16t-14.5 55zM606 1511q-9 13 0 31l120 198q10 14 20 22.5t34.5 15t60.5 5.5q42 -2 57 -21t-7 -48 l-173 -184q-14 -19 -31.5 -27t-44.5 -8q-27 3 -36 16z" />
<glyph unicode="&#x404;" horiz-adv-x="1189" d="M71 500.5q2 93.5 21 202.5q20 108 50.5 202t74 176t102 145.5t129.5 109t159.5 69.5t191.5 24q94 0 167.5 -23.5t121.5 -64.5t77.5 -98t40 -123t4.5 -141q-1 -29 -21.5 -50t-66.5 -23q-76 0 -76 61q2 68 -12 125.5t-45 104t-85.5 73.5t-128.5 27q-87 0 -160 -28.5 t-122.5 -74t-89.5 -111.5t-63.5 -131t-42.5 -144h496q65 0 54 -75q-16 -78 -83 -78h-497q-9 -60 -13 -111.5t-1.5 -108t13 -102.5t33.5 -88.5t58 -71t88 -45.5t121 -17q74 0 138 26t111.5 72.5t82 104.5t56.5 126q10 31 35.5 46t60.5 14q45 -2 58 -23.5t4 -51.5 q-26 -95 -73 -173.5t-115.5 -141.5t-165.5 -98t-214 -35q-102 0 -182.5 24t-136 69.5t-91 109t-50.5 145.5t-13 175.5z" />
<glyph unicode="&#x405;" horiz-adv-x="1129" d="M-4 385q6 31 33.5 49t62.5 18q42 0 60 -19.5t15 -51.5q-13 -79 24 -141t110.5 -94.5t167.5 -32.5q84 0 160 30t132.5 92.5t71.5 145.5q9 52 -6.5 94t-40.5 67t-73 48t-80 32.5t-85 23.5q-5 1 -16 4q-82 22 -124.5 35.5t-108.5 46.5t-95.5 70.5t-47.5 101.5t-3 146 q13 75 50 139t88.5 108.5t115.5 75.5t132 45.5t137 14.5q96 0 172.5 -19t135.5 -58.5t91 -106t32 -155.5q-3 -79 -90 -79q-31 0 -53 15t-25 50q-3 57 -28.5 99.5t-67.5 67t-91.5 36.5t-105.5 12q-51 0 -101.5 -15.5t-94.5 -44.5t-75.5 -75t-41.5 -103q-8 -46 7.5 -84 t39.5 -61t71 -44t75.5 -29.5t80.5 -21.5q2 -1 3.5 -1t3 -0.5t2.5 -1.5q175 -45 247 -81q167 -83 172 -245q2 -42 -7 -90q-15 -85 -55 -156t-96.5 -120t-127 -83.5t-145.5 -50.5t-152 -16q-84 0 -157 14.5t-134 46.5t-101.5 79.5t-58 117.5t-5.5 155z" />
<glyph unicode="&#x406;" horiz-adv-x="461" d="M52 56l227 1281q3 17 10 30.5t16.5 22t22 14t24.5 7.5t25 2q37 0 58.5 -17.5t14.5 -58.5l-228 -1281q-12 -74 -98 -74q-36 0 -57.5 17t-14.5 57z" />
<glyph unicode="&#x407;" horiz-adv-x="539" d="M92 56l227 1281q13 76 100 76q37 0 57.5 -17.5t13.5 -58.5l-227 -1281q-13 -74 -96 -74q-38 0 -60 17t-15 57zM226 1632q8 50 35 76t84 26q56 0 72 -25.5t8 -76.5q-10 -54 -35.5 -81.5t-82.5 -27.5q-59 0 -74.5 27t-6.5 82zM488 1632q8 50 34.5 76t83.5 26q56 0 72 -25.5 t8 -76.5q-3 -17 -7 -30.5t-10.5 -26.5t-15.5 -22t-21 -16t-28 -10.5t-36 -3.5q-58 0 -74 27t-6 82z" />
<glyph unicode="&#x408;" horiz-adv-x="758" d="M-76.5 32q-8.5 22 2.5 56q9 34 34 51.5t56 7.5q78 -25 126 -25q51 0 91 9.5t69 29t50 44t36 61.5t24.5 74.5t18.5 88.5l161 910q7 39 35.5 56.5t65.5 17.5q36 0 56 -17t13 -57l-158 -906q-14 -77 -39 -143.5t-65 -125.5t-91.5 -100.5t-121 -65.5t-151.5 -24 q-80 0 -172 26q-32 10 -40.5 32z" />
<glyph unicode="&#x409;" horiz-adv-x="1840" d="M-86 76q8 30 35 56t59 23q85 -11 128 80q41 68 79 211q44 164 114.5 463.5t72.5 306.5q10 42 24 72.5t37 58t60.5 42t87.5 14.5h408q50 0 82 -15t43.5 -40.5t14 -59.5t-6.5 -72l-64 -373h329q182 0 276 -114.5t61 -297.5q-22 -128 -95 -226.5t-179 -151.5t-228 -53h-319 q-50 0 -82 14.5t-44 39t-14.5 58t6.5 70.5l176 1006q6 31 -3.5 45t-38.5 14h-297q-31 0 -45.5 -13.5t-22.5 -45.5q-58 -204 -193 -765q-30 -106 -52.5 -169t-47.5 -101q-95 -168 -269 -165q-52 0 -77 19t-15 69zM975 209q-6 -32 3.5 -44t40.5 -12h272q112 0 191 79.5 t100 198.5t-35 188t-174 69h-314z" />
<glyph unicode="&#x40a;" horiz-adv-x="1842" d="M38 54l227 1281q6 39 33 56.5t64 17.5t58.5 -17.5t14.5 -56.5l-88 -498h568l90 508q13 72 97 72q38 0 60.5 -16.5t15.5 -55.5l-90 -508h327q121 0 206 -50t121 -142.5t14 -213.5q-17 -96 -63.5 -177t-113 -136.5t-151.5 -86.5t-178 -31h-315q-50 0 -82 14.5t-44 39 t-14.5 58t6.5 70.5l86 498h-568l-110 -626q-12 -70 -98 -70q-38 0 -59 15.5t-14 54.5zM977 209q-6 -32 3 -44t39 -12h270q113 0 193.5 80t101.5 198t-37 183.5t-178 65.5h-310z" />
<glyph unicode="&#x40b;" horiz-adv-x="1422" d="M132 1323q6 34 25 57t58 23h789q62 0 50 -80q-6 -32 -24.5 -54t-54.5 -22h-307l-80 -452q86 47 193 73.5t196 22.5q213 -7 297 -119t45 -330l-67 -380q-6 -40 -34.5 -57t-65.5 -17q-84 0 -72 74l68 386q13 74 10.5 130.5t-24 95.5t-67.5 60t-119 25q-61 1 -127 -9.5 t-133.5 -33.5t-121.5 -55l-106 -599q-7 -40 -35.5 -57t-64.5 -17q-83 0 -71 74l209 1185h-312q-66 0 -54 76z" />
<glyph unicode="&#x40c;" horiz-adv-x="1025" d="M38 54l227 1281q6 39 33 56.5t64 17.5q35 0 55.5 -17.5t13.5 -56.5l-90 -508q47 1 88 10t75.5 27.5t63 38.5t57.5 50.5t50 56.5t49 64q26 33 92.5 132t110.5 148q61 62 132 53q42 -9 45.5 -35t-34.5 -72q-67 -79 -207 -285q-56 -77 -133.5 -141.5t-159.5 -94.5 q63 -14 112 -50t81 -87t51.5 -107.5t30.5 -122.5q2 -15 7.5 -59.5t7 -55t6.5 -44t7 -44.5t7 -36t9 -39t10 -32.5t12 -36.5q10 -33 -6 -51t-54 -28q-32 -5 -57.5 3.5t-34.5 24.5q-12 19 -22 44.5t-16 45.5t-13 56.5t-10 53.5t-9.5 61t-8.5 56q-8 54 -17.5 94t-23.5 81 t-32.5 69.5t-45.5 54t-61 40.5t-79.5 22.5t-101.5 6.5l-114 -645q-12 -70 -94 -70q-38 0 -59 15.5t-14 54.5zM623.5 1511.5q-9.5 13.5 2.5 30.5l123 198q13 22 35 33.5t69 9.5q45 -2 60 -21t-7 -48l-167 -184q-28 -35 -80 -35q-26 3 -35.5 16.5z" />
<glyph unicode="&#x40e;" horiz-adv-x="1091" d="M144 69q8 37 25 54t55 13q39 -3 70 3t50.5 15.5t38 29t26.5 32.5t22 37l2 4l-270 1080q-5 22 -0.5 37t19.5 23.5t31.5 12t35.5 3.5q20 0 34.5 -3t22.5 -5.5t14 -12t8 -14t6.5 -20t6.5 -21.5l178 -759l29 -134l70 136l412 757q13 22 20 32.5t21 22.5t34.5 16.5t50.5 4.5 q25 0 39 -6.5t18 -23.5t-14 -46l-595 -1067q-51 -88 -89 -139.5t-84.5 -87.5t-98.5 -47.5t-125 -5.5q-12 0 -22 2.5t-22.5 9.5t-18 24t-0.5 43zM452.5 1692q0.5 12 5.5 22t13.5 17.5t20.5 10.5q54 21 80 -18q21 -33 44.5 -52t51.5 -26.5t69 -7.5q61 0 105 18.5t93 67.5 q39 39 88 18q21 -7 23.5 -28t-14.5 -48q-18 -27 -47 -53.5t-69 -50.5t-93 -38.5t-109 -14.5q-55 0 -102 14.5t-78 38.5t-51 50.5t-27 53.5q-4 14 -3.5 26z" />
<glyph unicode="&#x40f;" horiz-adv-x="1203" d="M56 111.5q-3 33.5 6 70.5l203 1153q6 38 35 56t64 18t59 -18t17 -56l-199 -1126q-6 -33 2 -44.5t40 -11.5h492q31 0 44.5 12t19.5 44l199 1126q7 38 35 56t63 18t57 -18t15 -56l-203 -1153q-7 -41 -19 -71t-34 -56.5t-58 -40.5t-86 -14h-224l-52 -289q-12 -73 -97 -73 q-14 0 -26 3.5t-22 11t-14.5 22.5t-1.5 36l52 289h-224q-50 0 -82 14.5t-45 39t-16 58z" />
<glyph unicode="&#x410;" horiz-adv-x="1143" d="M-65.5 11q-5.5 16 9.5 45l654 1281q42 76 122 76q83 0 94 -76l201 -1281q10 -74 -73 -74q-48 0 -73 15.5t-30 58.5l-52 354h-490l-176 -354q-21 -43 -50.5 -58.5t-78.5 -15.5q-23 0 -37.5 6.5t-20 22.5zM364 542h404l-59 427q-5 31 -9 67.5t-5.5 60t-4.5 69t-4 62.5 q-73 -183 -110 -259z" />
<glyph unicode="&#x411;" horiz-adv-x="1095" d="M56 113.5q-3 33.5 6 70.5l183 1036q7 41 19.5 72t34 58t58 41t85.5 14h573q38 0 50 -22t5 -56q-5 -33 -25 -55t-57 -22h-521q-20 0 -32.5 -5.5t-19.5 -17.5t-11 -32l-65 -370h337q184 0 279.5 -109t63.5 -293q-22 -127 -95 -223.5t-179.5 -148t-230.5 -51.5h-319 q-49 0 -80.5 14.5t-43.5 40t-15 59zM231 211q-6 -31 4 -43.5t40 -12.5h277q113 0 193 76t102 192q21 119 -37 183t-180 64h-319z" />
<glyph unicode="&#x412;" horiz-adv-x="1167" d="M56 113.5q-3 33.5 6 70.5l183 1036q7 41 19.5 72t34 58t58 41t85.5 14h372q80 0 146 -21.5t113 -63t67 -108t6 -149.5q-22 -120 -96 -201.5t-191 -114.5q122 -35 175.5 -129t30.5 -229q-22 -127 -94.5 -216t-175 -131t-227.5 -42h-373q-49 0 -80.5 14.5t-43.5 40t-15 59z M228 205q-4 -31 6 -46t39 -15h311q116 0 203 66.5t108 184.5q24 138 -43 205.5t-201 67.5h-340zM335 803h297q299 0 341 243q10 56 -2.5 98.5t-44.5 67.5t-75 37.5t-96 12.5h-286q-19 0 -32 -6.5t-20 -20t-11 -35.5z" />
<glyph unicode="&#x413;" horiz-adv-x="864" d="M40 69l205 1151q7 41 19.5 72t34.5 58t58.5 41t86.5 14h489q37 0 49.5 -22t5.5 -56q-5 -33 -25 -55t-57 -22h-431q-30 0 -44.5 -12.5t-20.5 -42.5l-199 -1126q-13 -77 -96 -77q-37 0 -59.5 18t-15.5 59z" />
<glyph unicode="&#x414;" horiz-adv-x="1205" d="M-140 -228l42 246q18 100 94 129q58 21 107.5 84.5t82.5 168.5q15 46 31 104.5t30.5 112t31 121.5t28.5 117t27.5 115.5t23 100t19.5 87.5t14 62q11 42 24.5 72t36.5 57.5t60 41.5t88 14h409q50 0 82 -14.5t44 -40t14.5 -59t-5.5 -71.5l-188 -1065q81 3 113 -30t19 -107 l-44 -246q-7 -43 -29 -59t-59 -16q-36 0 -54 16.5t-11 58.5l36 196q0 6 1 10.5t-1.5 8t-3 6t-4 4t-4.5 2t-5 1t-5.5 0.5h-5.5h-4h-805h-5h-6t-6 -0.5t-7 -2t-6 -4t-6 -5.5t-4.5 -8.5t-3.5 -11.5l-36 -196q-12 -75 -90 -75q-72 0 -60 75zM239 155h546l182 1040q4 20 1 32.5 t-14 18.5t-31 6h-299q-31 0 -47 -13.5t-23 -43.5q-6 -22 -50 -204t-83 -334.5t-72 -265.5q-37 -136 -110 -236z" />
<glyph unicode="&#x415;" horiz-adv-x="1036" d="M56 113.5q-3 33.5 6 70.5l183 1036q7 41 19.5 72t34 58t58 41t85.5 14h604q69 0 54 -78q-5 -33 -25 -55t-58 -22h-544q-29 0 -43 -12.5t-20 -42.5l-69 -390h473q65 0 53 -75q-15 -73 -78 -73h-473l-79 -446q-6 -31 4 -43.5t40 -12.5h544q69 0 54 -79q-12 -76 -80 -76 h-604q-49 0 -80.5 14.5t-43.5 40t-15 59z" />
<glyph unicode="&#x416;" horiz-adv-x="1528" d="M-28 67q25 35 48.5 78.5t35.5 69.5t43.5 102t44.5 106q134 314 358 360q-35 16 -63.5 42.5t-49 62t-34.5 67.5t-28 75q-11 33 -26.5 90.5t-30 101.5t-33.5 80q-23 50 -10 77.5t60 31.5q82 9 113 -50q17 -31 31 -67.5t21.5 -62t19.5 -71t20 -70.5q66 -238 236 -255l89 502 q13 76 96 76q81 0 68 -76l-88 -502q175 17 325 255q17 25 45.5 70.5t45 71t43.5 62t55 67.5q52 59 129 50q47 -4 51 -31.5t-38 -77.5q-41 -48 -105 -148t-81 -124q-31 -44 -55 -75t-58 -67.5t-71.5 -62.5t-78.5 -42q209 -46 233 -360q1 -24 3.5 -65t3.5 -61t3.5 -51.5t5 -50 t6.5 -43t9.5 -45t12.5 -40.5q23 -66 -54 -81q-35 -7 -61 1.5t-38 28.5q-20 33 -31 81t-14 85t-6 99.5t-5 89.5q-5 83 -22 141t-50.5 102.5t-89.5 65.5t-137 21l-114 -645q-13 -74 -94 -74q-83 0 -71 74l115 645q-81 0 -145 -21t-113.5 -65.5t-86.5 -103t-71 -140.5 q-10 -22 -36 -88.5t-41 -101.5t-43.5 -83.5t-59.5 -81.5q-19 -20 -49 -28.5t-62 -1.5q-74 16 -26 81z" />
<glyph unicode="&#x417;" horiz-adv-x="1087" d="M16 368q2 27 22.5 49t70.5 23q37 0 50 -13.5t13 -39.5q-5 -135 72 -203.5t218 -68.5q83 0 154.5 29.5t124 93.5t67.5 153q5 45 6.5 80.5t-11.5 63t-26.5 47.5t-39.5 34t-49.5 22.5t-57.5 13.5t-63 7t-65 2q-61 0 -48 72q6 33 24.5 53.5t47.5 20.5q51 0 94 5t89 21t80 42 t60.5 70t37.5 103q10 58 -4.5 105.5t-47.5 76t-77.5 44t-96.5 15.5q-131 0 -218 -60t-118 -181q-8 -29 -33.5 -41.5t-56.5 -12.5q-26 0 -42 8t-19.5 19t-5 22.5t2.5 17.5q31 122 107 207t178 125t224 40q65 0 126 -14t114 -43.5t90 -72.5t52.5 -106t2.5 -138 q-45 -241 -314 -316q133 -19 197.5 -109t39.5 -232q-15 -86 -55 -157.5t-95.5 -121t-124.5 -84.5t-142.5 -51t-149.5 -16q-124 0 -220.5 48.5t-147 140t-37.5 207.5z" />
<glyph unicode="&#x418;" horiz-adv-x="1251" d="M38 56l227 1281q12 76 101 76q82 0 69 -76l-184 -1050q51 78 118 163l731 925q30 38 84 38q85 0 72 -76l-226 -1281q-12 -74 -99 -74q-37 0 -57.5 17t-14.5 57l187 1054q-38 -65 -102 -147l-751 -947q-22 -34 -80 -34q-38 0 -60 17t-15 57z" />
<glyph unicode="&#x419;" horiz-adv-x="1251" d="M38 56l227 1281q4 28 21 46t36.5 24t43.5 6q82 0 69 -76l-184 -1050q51 78 118 163l731 925q30 38 86 38q36 0 56.5 -17.5t13.5 -58.5l-226 -1281q-12 -74 -97 -74q-86 0 -74 74l187 1054q-38 -65 -102 -147l-749 -947q-25 -34 -82 -34q-37 0 -59.5 17t-15.5 57z M543 1692q1 12 5.5 22t13 17.5t20.5 10.5q54 21 80 -18q31 -49 68 -67.5t97 -18.5q62 0 106 18.5t93 67.5q39 39 88 18q21 -7 23 -28t-15 -48t-46.5 -53.5t-69.5 -50.5t-92.5 -38.5t-108.5 -14.5t-103 14.5t-78 38.5t-50.5 50.5t-27.5 53.5q-4 14 -3 26z" />
<glyph unicode="&#x41a;" horiz-adv-x="1065" d="M38 56l227 1281q6 41 34 58.5t65 17.5q36 0 57 -17.5t14 -58.5l-90 -508q56 1 105 15.5t85 34.5t72.5 55t61 64.5t57.5 75.5q20 27 90.5 129.5t116.5 154.5q58 65 130 51q40 -7 44 -33.5t-33 -73.5q-17 -19 -36 -43.5t-33.5 -43.5t-36.5 -49.5t-33 -46t-36 -52t-34 -48.5 q-54 -77 -132 -142.5t-161 -97.5q63 -14 112.5 -49.5t81.5 -86.5t51.5 -107t29.5 -120q1 -11 4 -30q19 -133 30.5 -194.5t33.5 -124.5q12 -32 -5 -52.5t-55 -28.5q-34 -7 -60 1.5t-38 28.5q-13 22 -23 49.5t-17.5 64.5t-12 63t-11 73t-9.5 67q-8 53 -17.5 93t-24 81 t-33 69.5t-45.5 54t-61 41t-79 23t-101 6.5l-114 -645q-13 -74 -98 -74q-37 0 -58.5 17t-14.5 57z" />
<glyph unicode="&#x41b;" horiz-adv-x="1191" d="M-65 80q7 29 35 54t58 21q85 -11 129 82q37 69 78 213q79 290 188 770q12 43 26 72.5t37 57.5t59.5 41.5t86.5 13.5h410q50 0 81.5 -14.5t43.5 -39.5t14.5 -59t-5.5 -72l-205 -1153q-7 -41 -34 -59t-64 -18q-36 0 -58.5 18.5t-15.5 58.5l201 1130q4 30 -5.5 42.5 t-38.5 12.5h-297q-20 0 -33 -5.5t-22 -17.5t-14 -32q-45 -171 -195 -768q-44 -184 -98 -276q-99 -170 -273 -167q-50 0 -75.5 20t-13.5 74z" />
<glyph unicode="&#x41c;" horiz-adv-x="1350" d="M40 58l225 1279q7 38 34.5 57t66.5 19q41 0 62.5 -17.5t35.5 -58.5l229 -667l463 667q31 41 58 58.5t69 17.5q38 0 58 -19t13 -57l-224 -1279q-8 -42 -30.5 -59t-57.5 -17q-83 0 -71 74l191 1076q-56 -98 -74 -123l-326 -463q-48 -73 -103 -73q-31 0 -50.5 19t-32.5 54 l-160 463q-13 40 -31 123l-190 -1076q-12 -74 -95 -74q-35 0 -51.5 17t-8.5 59z" />
<glyph unicode="&#x41d;" horiz-adv-x="1205" d="M38 56l227 1281q4 28 21 46t36.5 24t43.5 6q36 0 57 -17.5t14 -58.5l-90 -514h603l90 514q7 41 34 58.5t64 17.5q85 0 72 -76l-226 -1281q-13 -74 -99 -74q-37 0 -58 17t-15 57l109 612h-602l-108 -612q-13 -74 -98 -74q-37 0 -59.5 17t-15.5 57z" />
<glyph unicode="&#x41e;" horiz-adv-x="1296" d="M72.5 463.5q-0.5 110.5 19.5 239.5q29 163 86.5 294t144 228.5t207.5 150.5t269 53q118 0 208 -34.5t145.5 -98t86.5 -153.5t31 -200.5t-21 -239.5q-29 -163 -86.5 -294.5t-144 -228.5t-207.5 -150t-267 -53q-117 0 -207 34.5t-145.5 98t-87 153.5t-32 200.5zM275 703 q-103 -592 291 -592q396 0 499 592q104 594 -290 594q-70 0 -131 -19.5t-107 -52t-85.5 -79.5t-66.5 -98t-49 -112.5t-36 -116.5t-25 -116z" />
<glyph unicode="&#x41f;" horiz-adv-x="1205" d="M40 58l205 1162q7 41 19 71.5t34 58t58 41.5t86 14h613q50 0 82 -14.5t44 -40t14.5 -59t-5.5 -71.5l-204 -1162q-15 -76 -101 -76q-37 0 -59 17.5t-14 58.5l199 1137q6 30 -4 42.5t-40 12.5h-494q-29 0 -43 -12.5t-20 -42.5l-199 -1137q-15 -76 -100 -76q-37 0 -58 17.5 t-13 58.5z" />
<glyph unicode="&#x420;" horiz-adv-x="1093" d="M38 56l207 1164q7 41 19 71.5t34 58t58 41.5t86 14h317q93 0 167.5 -29t122.5 -82.5t66 -132.5t1 -175q-31 -184 -166.5 -300t-319.5 -116h-329l-92 -514q-13 -74 -98 -74q-37 0 -58.5 17t-14.5 57zM325 716h313q119 0 201.5 74.5t104.5 195.5q20 117 -32 194.5 t-165 77.5h-272q-30 0 -43.5 -13t-19.5 -45z" />
<glyph unicode="&#x421;" horiz-adv-x="1189" d="M71 500.5q2 93.5 21 202.5q17 92 41.5 174.5t59.5 156t79 134.5t99.5 109.5t120 82t142 51.5t165.5 18q67 0 126 -14t107 -40.5t84.5 -66t60 -89t32 -110.5t1.5 -130q-2 -34 -26.5 -52t-61.5 -21q-76 0 -76 61q2 68 -12 125.5t-45 104t-85.5 73.5t-128.5 27 q-72 0 -134 -19.5t-108.5 -52t-85 -80t-65 -97.5t-48.5 -112.5t-35 -116.5t-24 -116q-11 -63 -16.5 -117t-6 -116t8.5 -112t31 -97.5t57 -79.5t90 -51t127 -19q74 0 138 26t111.5 72.5t82 104.5t56.5 126q10 31 35.5 46t60.5 14q35 -2 53.5 -20.5t8.5 -54.5 q-25 -95 -77.5 -177t-125 -142t-167 -94.5t-198.5 -34.5q-102 0 -182 24t-135.5 69.5t-91.5 109t-51 145.5t-13 175.5z" />
<glyph unicode="&#x422;" horiz-adv-x="986" d="M163 1327q15 78 82 78h791q69 0 54 -78q-5 -33 -25 -55t-58 -22h-308l-211 -1194q-12 -74 -99 -74q-84 0 -71 74l210 1194h-311q-66 0 -54 77z" />
<glyph unicode="&#x423;" horiz-adv-x="1091" d="M144 69q8 37 25 54t55 13q39 -3 70 3t50.5 15.5t38 29t26.5 32.5t22 37l2 4l-270 1080q-5 22 -0.5 37t19.5 23.5t31.5 12t35.5 3.5q20 0 34.5 -3t22.5 -5.5t14 -12t8 -14t6.5 -20t6.5 -21.5l178 -759l29 -134l70 136l412 757q13 22 20 32.5t21 22.5t34.5 16.5t50.5 4.5 q25 0 39 -6.5t18 -23.5t-14 -46l-595 -1067q-51 -88 -89 -139.5t-84.5 -87.5t-98.5 -47.5t-125 -5.5q-12 0 -22 2.5t-22.5 9.5t-18 24t-0.5 43z" />
<glyph unicode="&#x424;" horiz-adv-x="1392" d="M65 701q27 159 123 287.5t240.5 202t308.5 73.5l18 105q6 40 32.5 57.5t61.5 17.5q37 0 58 -17.5t14 -57.5l-17 -105q123 0 222 -43t160.5 -118t85.5 -179t3 -223t-79.5 -222t-145 -179t-202 -121t-245.5 -49l-19 -96q-13 -74 -96 -74q-35 0 -56 17.5t-15 56.5l19 96 q-128 4 -228 49t-160 121t-82 179t-1 222zM241 701q-34 -200 51.5 -320t265.5 -126l154 883q-181 -2 -308 -118.5t-163 -318.5zM724 255q183 6 312.5 126.5t163.5 319.5q36 201 -51.5 318t-269.5 119z" />
<glyph unicode="&#x425;" horiz-adv-x="1069" d="M-67.5 20q0.5 14 15.5 36l514 674l-247 607q-8 22 -5.5 37t15.5 23.5t28.5 12t33.5 3.5q63 0 89.5 -15t42.5 -61l169 -462l331 462q31 45 64.5 60.5t96.5 15.5q84 0 27 -76l-446 -590l276 -691q7 -22 3.5 -36t-19 -22.5t-32.5 -12t-36 -3.5h-20.5t-17.5 1.5t-19 4 t-16 7.5t-17.5 13t-14.5 20t-15 28l-203 534l-394 -534q-16 -22 -30.5 -37t-24 -22t-24.5 -10.5t-21.5 -4t-25.5 -0.5t-35.5 3.5t-29.5 12t-12.5 22.5z" />
<glyph unicode="&#x426;" horiz-adv-x="1281" d="M55.5 113.5q-2.5 33.5 6.5 70.5l203 1153q6 41 34 58.5t65 17.5q36 0 57 -17.5t14 -58.5l-198 -1126q-6 -31 4 -43.5t40 -12.5h558l209 1182q6 41 34.5 58.5t65.5 17.5q23 0 39.5 -6t26 -24t4.5 -46l-209 -1182h31q74 0 100.5 -34.5t13.5 -102.5l-42 -244 q-15 -77 -91 -77q-77 0 -62 77l35 192q-1 6 0.5 11t-1.5 8.5t-3 6t-4 4t-5.5 2.5t-6 1.5t-5.5 0.5h-5h-5h-764q-50 0 -81.5 14.5t-43.5 40t-14.5 59z" />
<glyph unicode="&#x427;" horiz-adv-x="1133" d="M133.5 726q-5.5 53 4.5 121l86 490q7 41 35 58.5t64 17.5q37 0 58 -17.5t14 -58.5l-86 -490q-18 -98 33 -158.5t160 -60.5q339 0 383 241l82 468q7 41 35.5 58.5t65.5 17.5q82 0 70 -76l-227 -1281q-12 -74 -97 -74q-36 0 -58 17t-15 57l98 556q-118 -126 -375 -126 q-45 0 -87.5 8t-84.5 25.5t-74 45.5t-55.5 68t-29 93z" />
<glyph unicode="&#x428;" horiz-adv-x="1739" d="M55.5 113.5q-2.5 33.5 6.5 70.5l203 1153q6 41 34 58.5t65 17.5q84 0 71 -76l-198 -1126q-6 -31 4 -43.5t40 -12.5h429l209 1182q13 76 100 76q36 0 57 -17.5t14 -58.5l-209 -1182h429q30 0 44.5 12.5t20.5 43.5l199 1126q7 41 35 58.5t65 17.5q36 0 56.5 -17.5 t13.5 -58.5l-202 -1153q-8 -41 -20 -71.5t-33.5 -57.5t-58 -41t-85.5 -14h-1150q-50 0 -81.5 14.5t-43.5 40t-14.5 59z" />
<glyph unicode="&#x429;" horiz-adv-x="1823" d="M56 113.5q-3 33.5 6 70.5l203 1153q4 28 21 46t36.5 24t43.5 6q82 0 69 -76l-198 -1126q-6 -30 5 -43t41 -13h429l209 1182q7 41 34.5 58.5t64 17.5t57.5 -17.5t15 -58.5l-209 -1182h484l209 1182q7 41 34 58.5t64 17.5q85 0 72 -76l-208 -1182h44q75 0 101 -34t13 -103 l-42 -244q-15 -77 -89 -77q-79 0 -64 77l35 192q2 12 -0.5 19.5t-9.5 10.5t-11.5 3.5t-11.5 0.5h-1306q-50 0 -82 14.5t-44 40t-15 59z" />
<glyph unicode="&#x42a;" horiz-adv-x="1302" d="M142 1327q15 78 82 78h282q37 0 62.5 -9t38.5 -26.5t16.5 -43t-3.5 -58.5l-74 -423h331q183 0 277.5 -114.5t61.5 -299.5q-21 -127 -94 -225.5t-180.5 -152t-231.5 -53.5h-319q-49 0 -80.5 14.5t-43.5 40t-14.5 59t6.5 70.5l181 1030q2 13 -0.5 21t-9.5 11t-11.5 3.5 t-10.5 0.5h-211q-67 0 -55 77zM433 211q-6 -30 5 -43t41 -13h270q112 0 193 79.5t102 196.5q22 121 -35 190.5t-178 69.5h-314z" />
<glyph unicode="&#x42b;" horiz-adv-x="1524" d="M56 113.5q-3 33.5 6 70.5l205 1163q12 76 101 76q82 0 69 -76l-88 -502h319q183 0 276.5 -114.5t60.5 -299.5q-21 -127 -93.5 -225.5t-179.5 -152t-230 -53.5h-307q-49 0 -80.5 14.5t-43.5 40t-15 59zM237 211q-6 -31 4.5 -43.5t41.5 -12.5h257q112 0 192 79.5t101 196.5 q23 121 -33.5 190.5t-177.5 69.5h-301zM1130 56l226 1281q7 41 35.5 58.5t65.5 17.5t58.5 -17.5t14.5 -58.5l-228 -1281q-12 -74 -98 -74q-37 0 -59 17t-15 57z" />
<glyph unicode="&#x42c;" horiz-adv-x="1103" d="M55.5 113.5q-2.5 33.5 6.5 70.5l205 1163q6 41 34 58.5t65 17.5q36 0 57 -17.5t14 -58.5l-88 -502h329q183 0 277.5 -114.5t61.5 -299.5q-21 -127 -93.5 -225.5t-180 -152t-231.5 -53.5h-317q-50 0 -81.5 14.5t-43.5 40t-14.5 59zM237 211q-6 -31 4 -43.5t40 -12.5h271 q112 0 192 79.5t101 196.5q23 121 -33.5 190.5t-177.5 69.5h-313z" />
<glyph unicode="&#x42d;" horiz-adv-x="1189" d="M26 425q2 30 22 51.5t65 23.5q37 1 57.5 -14t18.5 -46q-1 -68 13.5 -126t46.5 -104.5t87.5 -72.5t129.5 -26q68 0 127 17t103.5 45.5t82 71.5t64 88.5t48 102.5t35.5 108t26 111h-498q-69 0 -54 78q5 33 25 54t57 21h493q7 55 8.5 103t-3 98.5t-16.5 91.5t-35.5 78.5 t-57 62.5t-84 40t-113.5 15q-73 0 -138 -27t-113.5 -73.5t-83.5 -104t-58 -125.5q-16 -61 -97 -61q-80 4 -60 73q26 95 73.5 174.5t117.5 142t168.5 98t215.5 35.5q102 0 182 -24t134.5 -69.5t89 -109t48.5 -145.5t11 -176t-22 -202q-23 -132 -61.5 -240.5t-97.5 -199.5 t-135.5 -153.5t-179 -97.5t-224.5 -35q-94 0 -168.5 23.5t-123.5 64t-79.5 97.5t-41.5 122.5t-5 140.5z" />
<glyph unicode="&#x42e;" horiz-adv-x="1751" d="M38 56l227 1281q6 41 34 58.5t65 17.5q84 0 71 -76l-90 -514h261q36 139 92.5 248t137.5 190t191 124.5t243 43.5q118 0 206.5 -34.5t142 -98t82 -153.5t26.5 -200.5t-23 -239.5q-19 -109 -49.5 -203t-73.5 -175.5t-100 -145t-126.5 -109t-155.5 -69.5t-184 -24 q-113 0 -199.5 33t-140 93t-83.5 145.5t-32.5 191t14.5 228.5h-256l-109 -612q-13 -74 -98 -74q-37 0 -58.5 17t-14.5 57zM738 470q-1 -63 7 -112t28.5 -97t54 -79.5t87 -51t123.5 -19.5t130.5 19.5t105 51t81.5 79.5t62.5 97.5t46.5 112t33.5 116t23.5 116.5t17 116.5 t7.5 116t-6.5 112.5t-28.5 98t-54 80t-86.5 51.5t-123.5 19.5t-130.5 -19.5t-104.5 -51.5t-82 -80t-63 -98t-46.5 -112.5t-34 -116t-24 -116.5q-11 -64 -17 -117t-7 -116z" />
<glyph unicode="&#x42f;" horiz-adv-x="1133" d="M-46 67q41 52 78.5 107.5t86.5 134.5t70 110q52 82 106 136.5t126 86.5q-143 30 -212.5 119.5t-41.5 242.5q17 95 62.5 172t111.5 126.5t149.5 76t177.5 26.5h318q50 0 81.5 -14.5t43 -40t14 -59t-6.5 -71.5l-207 -1164q-12 -74 -97 -74q-86 0 -73 74l98 550h-132 q-122 0 -207 -57t-173 -194q-16 -26 -64.5 -108.5t-85.5 -134t-83 -96.5q-19 -19 -54 -28t-66 -2q-71 15 -20 81zM338.5 906q10.5 -42 33.5 -71.5t61 -48t81.5 -27t94.5 -8.5h254l81 449q6 32 -4 45t-40 13h-272q-114 0 -191.5 -69.5t-97.5 -184.5q-11 -56 -0.5 -98z" />
<glyph unicode="&#x430;" d="M12 280q-1 67 11 143q29 182 127.5 322t251.5 217.5t337 77.5h90q25 0 45.5 -4t34.5 -9.5t24 -15.5t16 -19t8.5 -24.5t3.5 -26t-1 -29t-3.5 -29t-4.5 -30.5l-103 -572q-16 -99 -16 -233q0 -38 -13.5 -54.5t-49.5 -17.5q-32 -2 -54 14t-25 46q-4 26 -5 50t-1 34.5 t1.5 37.5t1.5 33q-43 -91 -150 -155t-211 -64q-79 0 -139.5 22.5t-96.5 63.5t-57 98t-22 124zM174.5 343q-2.5 -45 6 -89t28.5 -74.5t58.5 -49.5t92.5 -19q51 0 99.5 21.5t87.5 58.5t72.5 84t58.5 99.5t41.5 103.5t25.5 98l50 285q5 28 -3 40t-39 12q-102 0 -194.5 -31.5 t-168.5 -90t-129.5 -149t-74.5 -202.5q-9 -52 -11.5 -97z" />
<glyph unicode="&#x431;" horiz-adv-x="1032" d="M74 419q3 56 12 117q10 65 23 124t32 125.5t44.5 126t58.5 120.5t76 114.5t94 102t116.5 89.5t139.5 71q30 12 95.5 34t115 43.5t88.5 51.5q34 23 62.5 14t40.5 -45q10 -34 -5 -61.5t-60 -54.5q-14 -8 -37.5 -18t-58.5 -22.5t-62.5 -22t-73.5 -25t-68 -22.5 q-287 -96 -398 -384l4 -2q66 74 153 119t178 45q97 0 166 -26t108.5 -72t57.5 -115t16.5 -148t-19.5 -179q-95 -539 -538 -539q-72 0 -130 17t-97.5 45.5t-67.5 70.5t-43 89.5t-20.5 104t-2.5 112.5zM238.5 330q2.5 -49 16.5 -88t38 -71t66 -49.5t99 -17.5q66 0 121.5 26 t92 66.5t65 97.5t44 110.5t26.5 114.5q8 50 11.5 95.5t1.5 94.5t-16 88t-37.5 71t-65 49.5t-97.5 17.5q-67 0 -123 -26t-93 -66.5t-66 -97.5t-44.5 -111t-26.5 -115q-9 -50 -12 -95t-0.5 -94z" />
<glyph unicode="&#x432;" horiz-adv-x="923" d="M58 519q94 538 540 538q58 0 105.5 -11t78.5 -31t53.5 -46t32 -56t13.5 -61.5t-2 -62.5q-9 -68 -83.5 -144t-134.5 -83q33 -5 65.5 -23t59.5 -47t40.5 -75t6.5 -99q-9 -71 -51 -135t-102 -107.5t-131.5 -69.5t-140.5 -26q-445 0 -350 539zM199 360.5 q-1 -52.5 10.5 -101.5t36.5 -83t70 -54t107 -20q92 0 164.5 61.5t80.5 154.5q8 83 -42.5 125.5t-156.5 50.5q-51 3 -129.5 -2.5t-128.5 -16.5q-11 -62 -12 -114.5zM237 604q97 3 217 18q39 6 70 12.5t65 20t58 31.5t44 46.5t29 64.5q11 41 -2.5 72t-50 47.5t-91.5 16.5 q-57 0 -107 -18.5t-86 -49.5t-65.5 -74.5t-48 -89t-32.5 -97.5z" />
<glyph unicode="&#x433;" horiz-adv-x="914" d="M-4 291q7 40 21 74t30.5 60.5t41 49t47 38.5t55.5 30.5t58 23t63.5 18t64 14t65.5 12.5l21 3q29 5 45 8t45.5 10.5t47.5 15t42 20.5t38.5 28t27 37t17.5 48q8 42 -7.5 74.5t-46.5 51t-67 28t-73 9.5q-90 0 -152.5 -36t-86.5 -105q-17 -48 -90 -48q-49 0 -63.5 17.5 t4.5 62.5q54 121 156.5 177t261.5 56q54 0 104.5 -11.5t94.5 -36.5t74 -60t42.5 -86.5t1.5 -113.5q-8 -44 -26.5 -81.5t-39 -63t-56 -47t-62 -34t-73 -25t-72.5 -18t-76 -15.5q-18 -3 -26 -5l-34.5 -6t-34.5 -7t-37 -9.5t-35 -11.5t-35 -15t-31 -18.5t-29 -23t-23.5 -28 t-18.5 -34.5t-11 -41q-14 -79 41.5 -129t138.5 -50q124 0 196 47t111 144q29 65 107 58q31 -3 44 -24.5t2 -57.5q-46 -138 -164.5 -215.5t-295.5 -77.5q-59 0 -113 10.5t-101.5 35t-80 60.5t-46.5 90.5t-2 122.5z" />
<glyph unicode="&#x434;" horiz-adv-x="1034" d="M52 384q1 68 15 142q15 84 44.5 162.5t77.5 151t108.5 125t143 79.5t175.5 17q80 -7 141 -57.5t88 -124.5q9 70 0 140q-6 44 -19 83t-35 74t-52 60.5t-71.5 41.5t-91.5 19q-110 3 -189 -31q-16 -7 -31 -10.5t-32 -3.5t-28.5 10t-14.5 31q-11 78 56 103q124 43 235 41 q80 -3 144.5 -25t108.5 -57.5t76 -86.5t49.5 -106.5t25.5 -122.5t8 -129.5t-7 -132t-16.5 -126t-21.5 -115.5q-9 -44 -23 -89t-38 -101t-54 -106t-73.5 -98.5t-93.5 -83.5t-116.5 -56.5t-140.5 -21.5t-133.5 20t-99.5 57t-66.5 86.5t-38 111t-10.5 129.5zM224 341 q1 -48 13 -86.5t33.5 -70t60 -48.5t90.5 -17q53 0 102.5 25t88 66.5t70 95t52.5 109t32 109.5q10 50 13 99t-5 103t-28.5 95.5t-62.5 70t-103 31.5q-60 3 -112.5 -21t-89 -64t-66 -94.5t-46.5 -108t-27 -109.5q-9 -49 -12.5 -93t-2.5 -92z" />
<glyph unicode="&#x435;" horiz-adv-x="1017" d="M49 377q-2 68 13 138q15 88 45 167.5t78 150.5t109.5 123t144.5 82t179 30q127 0 212.5 -53.5t118 -149.5t8.5 -221q-5 -31 -13.5 -52t-28 -43t-56.5 -32.5t-91 -10.5h-533q-11 -63 -11.5 -118.5t12 -108t39 -90t73.5 -60t112 -22.5q57 0 109.5 20.5t95.5 61t72 96.5 q13 27 40 41t56 11q32 -4 44.5 -25t-0.5 -55q-37 -90 -109.5 -156t-160 -97.5t-180.5 -31.5q-78 0 -141.5 20.5t-106 57t-73.5 87.5t-43 111.5t-14 128.5zM261 626h499q23 2 34.5 12t15.5 36q9 63 -0.5 113t-35 85.5t-69 54.5t-101.5 19q-63 0 -122.5 -28.5t-103.5 -74.5 t-75 -102.5t-42 -114.5z" />
<glyph unicode="&#x436;" horiz-adv-x="1322" d="M-36 46q40 68 65 117t71 148q24 51 50 92t61 80t81.5 65t100.5 36q-66 29 -101.5 79t-58.5 124q-6 21 -17.5 60t-22 72t-21.5 60q-17 37 1 58.5t60 25.5q64 7 90 -35q14 -27 24.5 -58.5t22.5 -73.5t17 -59q13 -41 28 -71.5t38.5 -61.5t59 -51t81.5 -27l65 366q9 67 88 67 q73 0 63 -67l-63 -366q161 24 281 211q10 16 29 46.5t32 50.5t32.5 46.5t38.5 47.5q37 42 100 35q40 -4 50.5 -24.5t-15.5 -59.5q-22 -27 -44 -60.5t-46 -71.5t-39 -60q-50 -75 -102.5 -124.5t-130.5 -78.5q171 -35 197 -273q9 -92 17 -142.5t25 -122.5q12 -53 -50 -66 q-29 -4 -54 1.5t-34 18.5q-11 16 -18.5 38t-12 49.5t-7 50t-5.5 56t-5 51.5q-4 42 -8 71t-12.5 60t-20.5 50.5t-31 37.5t-45 27.5t-62 14.5t-83 4l-80 -460q-12 -70 -88 -70t-64 70l80 460q-52 2 -93.5 -4t-74.5 -22.5t-57.5 -36.5t-48 -54t-40.5 -66t-39 -82 q-4 -9 -16 -36.5t-17.5 -40t-16.5 -37t-19 -39t-19 -33.5t-22 -33t-23 -26q-13 -13 -40.5 -18.5t-53.5 -1.5q-61 13 -28 66z" />
<glyph unicode="&#x437;" horiz-adv-x="886" d="M0 277q1 37 27 54.5t61 17.5q23 0 37.5 -5.5t22.5 -19t7 -37.5q-9 -97 44.5 -147t147.5 -50q103 0 171.5 56.5t85.5 152.5q7 44 -2.5 77.5t-31.5 54t-55 33t-68 16.5t-74 2q-32 -1 -45 14.5t-9 49.5q7 35 27.5 47.5t55.5 12.5q45 0 85.5 8.5t78 27.5t64 54.5t34.5 84.5 q13 78 -30.5 122.5t-125.5 44.5q-100 0 -166 -42t-93 -142q-13 -46 -73 -50q-34 0 -55 16.5t-12 44.5q36 146 147 219.5t272 73.5q70 0 128.5 -16t102.5 -48.5t63 -87.5t7 -125q-26 -160 -229 -241q203 -61 166 -255q-17 -102 -79.5 -176t-152.5 -110.5t-199 -36.5 q-164 0 -253 77t-82 228z" />
<glyph unicode="&#x438;" horiz-adv-x="1019" d="M52.5 208.5q-5.5 71.5 12.5 159.5l107 622q13 69 91 69t66 -69l-107 -611q-8 -46 -11 -81.5t2 -72t20.5 -60t47 -38t79.5 -14.5q68 0 132 36t110 93.5t78.5 125.5t43.5 134l86 488q13 69 92 69q77 0 65 -69l-164 -930q-10 -70 -91 -70q-31 0 -45.5 15.5t-7.5 54.5l23 139 q-157 -219 -371 -219q-87 0 -144 28t-83 78.5t-31.5 122z" />
<glyph unicode="&#x439;" horiz-adv-x="1019" d="M52.5 208.5q-5.5 71.5 12.5 159.5l107 622q13 69 91 69t66 -69l-107 -611q-8 -46 -11 -81.5t2 -72t20.5 -60t47 -38t79.5 -14.5q68 0 132 36t110 93.5t78.5 125.5t43.5 134l86 488q13 69 92 69q77 0 65 -69l-164 -930q-10 -70 -91 -70q-31 0 -45.5 15.5t-7.5 54.5l23 139 q-157 -219 -371 -219q-87 0 -144 28t-83 78.5t-31.5 122zM377 1339q-15 52 29 70q19 10 41 5.5t35 -23.5q29 -44 62 -61.5t84 -17.5q49 0 86.5 16.5t90.5 62.5q17 19 41.5 23.5t38.5 -5.5q39 -17 4 -70q-41 -65 -119 -102t-161 -37q-94 0 -155 43t-77 96z" />
<glyph unicode="&#x43a;" horiz-adv-x="918" d="M38 50l167 942q10 67 90 67q76 0 67 -67l-67 -368q72 7 130 33t96 61t81 90q20 26 71 99.5t86 113.5q42 43 100 36q41 -3 50.5 -22t-18.5 -58q-19 -24 -74.5 -99.5t-88.5 -117.5q-101 -130 -220 -176q40 -8 72 -27.5t53 -45t37 -60t24.5 -68t14.5 -72.5q8 -60 16.5 -98.5 t24 -92.5t20.5 -74q9 -53 -52 -66q-29 -4 -54 1.5t-32 18.5q-10 13 -18 31.5t-13.5 36t-10.5 42.5t-8 42t-8 45.5t-8 43.5q-8 48 -17 81.5t-23.5 66.5t-35 54t-50 37t-70.5 22t-95 4l-80 -456q-12 -70 -91 -70q-78 0 -66 70z" />
<glyph unicode="&#x43b;" horiz-adv-x="960" d="M-90 48q16 71 64 71q19 0 35.5 4.5t28 10t22 18t16.5 22t14 29t11.5 31.5t11.5 37l6 18q35 116 83 316.5t53 219.5q5 23 7.5 32t9.5 31.5t12 33.5t14.5 30t19.5 29t24.5 23t31.5 19.5t38.5 11.5t47.5 5h299q24 0 44 -3.5t33.5 -9t23.5 -15.5t16 -18.5t8.5 -23.5t3.5 -25 t-1 -28t-3.5 -28.5t-5.5 -29.5q-1 -4 -1 -6l-140 -805q-12 -68 -91 -68q-78 0 -66 68l142 813q3 17 1.5 28t-11.5 16.5t-32 5.5h-192q-63 0 -76 -60q-3 -11 -36 -148t-60 -240.5t-53 -192.5q-44 -145 -113.5 -219.5t-179.5 -66.5q-39 2 -53 20t-7 44z" />
<glyph unicode="&#x43c;" horiz-adv-x="1191" d="M38 50l165 940q13 67 98 67q35 0 54 -16.5t32 -50.5l191 -519l372 519q27 35 51 51t60 16q38 0 59 -15.5t14 -51.5l-165 -940q-7 -39 -28 -54.5t-54 -15.5q-72 0 -60 70l134 760q-37 -77 -74 -130l-245 -337q-27 -34 -49 -51t-49 -17q-51 0 -75 68l-128 337 q-21 77 -25 130l-136 -760q-12 -70 -84 -70q-33 0 -49 15.5t-9 54.5z" />
<glyph unicode="&#x43d;" horiz-adv-x="1017" d="M38 50l167 942q10 67 90 67q76 0 67 -67l-69 -381h444l68 381q9 67 90 67q76 0 66 -67l-166 -942q-12 -70 -90 -70q-34 0 -54 16t-13 54l76 434h-444l-75 -434q-12 -70 -91 -70q-78 0 -66 70z" />
<glyph unicode="&#x43e;" horiz-adv-x="1029" d="M60 517q21 124 62 220t105.5 170t159 113t215.5 39q443 0 348 -542q-95 -537 -538 -537q-447 0 -352 537zM212 322q2 -50 15.5 -90t37.5 -73t66 -51t98 -18q67 0 123 27t93.5 68t66.5 100t45.5 114t27.5 118q7 39 10.5 74t5 73.5t-3 72.5t-13.5 66t-26 57.5t-40.5 45 t-58 30t-77.5 10.5q-67 0 -123 -27t-93 -68.5t-66.5 -100.5t-45.5 -114t-28 -119q-9 -51 -12.5 -98t-1.5 -97z" />
<glyph unicode="&#x43f;" horiz-adv-x="1021" d="M32 48l165 931q12 69 86 69q72 0 60 -69l-24 -140q155 220 380 220q54 0 96.5 -13.5t69.5 -35.5t45.5 -53t27 -62.5t11.5 -67.5t1 -65.5t-6 -58.5l-117 -655q-12 -68 -90 -68q-34 0 -53.5 15.5t-13.5 52.5l115 645q5 32 5.5 61.5t-6.5 61t-23 54t-47 37t-74 14.5 q-68 0 -131.5 -33.5t-109.5 -87.5t-78 -119t-44 -131l-88 -502q-10 -68 -91 -68q-71 0 -66 68z" />
<glyph unicode="&#x440;" horiz-adv-x="1059" d="M-24 -305l229 1297q10 67 88 67q70 0 60 -67l-20 -113q151 186 351 186q88 0 151.5 -29t98.5 -78t50.5 -120t13 -149t-18.5 -170q-16 -90 -43.5 -169t-71 -149t-99 -120t-131.5 -78.5t-165 -28.5q-90 0 -155 45t-103 117l-77 -441q-12 -68 -92 -68q-33 0 -53 15.5 t-13 52.5zM266 401q0 -43 7 -85t24 -78.5t42 -64.5t63.5 -44t85.5 -16q62 0 113 25.5t83.5 64.5t58 96t39 108t25.5 112q7 43 11.5 80t5.5 79.5t-4 77t-18 67.5t-34.5 55t-56 35.5t-79.5 13.5q-69 0 -130 -30t-103 -80t-69.5 -109.5t-38.5 -123.5l-18 -98q-7 -42 -7 -85z " />
<glyph unicode="&#x441;" horiz-adv-x="950" d="M60 517q17 98 46 179t74 149.5t104 115t139 72.5t177 26q74 0 131 -21t90 -52.5t54 -73.5t28 -78.5t6 -73.5q0 -26 -7 -43.5t-23 -27.5t-42 -13q-37 -1 -58 13t-22 44q-3 44 -12.5 78.5t-29.5 63t-55 43.5t-84 15q-66 0 -121.5 -26t-92 -66.5t-65 -97.5t-44.5 -111 t-27 -115q-8 -50 -11.5 -95t-1.5 -94t16 -88t37.5 -71t65 -49.5t97.5 -17.5q94 0 153 53.5t98 147.5q26 63 101 57q38 -3 47.5 -23.5t-3.5 -61.5q-13 -36 -33 -72.5t-55.5 -78t-79.5 -72t-108.5 -51.5t-138.5 -21q-445 0 -350 537z" />
<glyph unicode="&#x442;" horiz-adv-x="1586" d="M32 48l165 931q12 69 88 69q33 0 49 -15.5t9 -53.5l-24 -140q85 120 170 170t187 50q56 0 102 -20t75 -52.5t45.5 -70t18.5 -75.5q25 34 52.5 64.5t63 59t72.5 49t81.5 33t90.5 12.5q54 0 95.5 -13.5t67.5 -35.5t43 -53t24 -62.5t8 -68t-1.5 -65t-8.5 -58.5l-114 -655 q-13 -68 -93 -68q-75 0 -63 68l112 645q5 28 7 51t1 51t-9 49t-22.5 39.5t-41.5 28t-64 9.5q-63 0 -134 -42t-126 -115.5t-69 -154.5l-98 -561q-12 -68 -92 -68q-77 0 -65 68l109 616q4 25 6 46t2.5 48t-3 49t-12.5 44t-23.5 36.5t-38.5 24t-56 9.5q-77 0 -149 -47.5 t-120.5 -124.5t-63.5 -163l-94 -538q-12 -68 -93 -68q-34 0 -53 15.5t-13 52.5z" />
<glyph unicode="&#x443;" horiz-adv-x="888" d="M-67.5 -306q-6.5 21 2.5 51q5 17 15 28t18.5 15t23.5 4t21.5 -1t20.5 -4q17 -3 31 -3.5t26.5 3t23 8.5t20 14t17 17.5t15.5 21.5t14 23t14 25l88 166l-176 928q-13 69 67 69q79 0 93 -69l104 -582q17 -94 20 -171q47 117 80 182l289 571q20 38 45 53.5t60 15.5 q43 0 63.5 -16.5t0.5 -52.5l-571 -1090q-15 -27 -25.5 -46.5t-27 -46t-31 -45t-35 -39.5t-40 -35t-45 -26.5t-52 -17.5t-58.5 -4.5t-67 7.5q-14 3 -26 14.5t-18.5 32.5z" />
<glyph unicode="&#x444;" horiz-adv-x="1264" d="M27.5 368q-3.5 68 12.5 151q20 114 63 203t99 148t129 98.5t148.5 58.5t162.5 25l51 291q12 70 88 70q72 0 60 -70l-50 -291q114 -7 200 -43.5t142 -102.5t74.5 -162.5t-3.5 -224.5q-42 -243 -195.5 -375.5t-406.5 -155.5l-50 -291q-13 -70 -86 -70q-33 0 -51 16.5 t-11 53.5l50 291q-60 4 -111 14.5t-100 30.5t-85.5 49t-67 70.5t-45 94.5t-18 121zM209 519q-35 -201 37 -307t227 -118l149 843q-159 -11 -268 -114t-145 -304zM622 94q86 7 158 42t122.5 92.5t84.5 131t49 159.5q17 84 9 156.5t-37 127t-89.5 89.5t-148.5 45z" />
<glyph unicode="&#x445;" horiz-adv-x="890" d="M-64.5 -0.5q-12.5 19.5 20.5 60.5l397 496l-192 428q-9 19 -7 33.5t13.5 23.5t29 13.5t39 4.5t31.5 -0.5t22.5 -5.5t20.5 -16t15 -30l135 -337l254 337q15 19 27.5 30t27 16t24.5 5.5t32 0.5q20 0 35 -3t25 -10.5t8.5 -21.5t-16.5 -32l-351 -436l231 -508q15 -36 -9 -52 t-68 -16q-39 0 -57 9t-35 45l-169 408l-312 -408q-28 -36 -49 -45t-60 -9q-50 0 -62.5 19.5z" />
<glyph unicode="&#x446;" horiz-adv-x="1075" d="M54.5 95.5q3.5 40.5 9.5 87.5q1 2 1 3l142 806q10 67 90 67q76 0 67 -67l-145 -814q-5 -28 3 -40t41 -12h390l152 866q9 67 90 67q76 0 66 -67l-153 -866h49q60 0 80 -27t11 -85l-33 -183q-13 -70 -84 -70q-32 0 -46.5 15.5t-7.5 54.5l24 139q2 6 0.5 10.5t-1 8t-3 5.5 t-4 3.5t-4.5 2t-5 0.5h-4.5h-4.5h-591q-70 0 -101.5 27.5t-28 68z" />
<glyph unicode="&#x447;" horiz-adv-x="921" d="M84 655l60 337q4 25 19 41t33 21t39 5q76 0 66 -67l-52 -289q-22 -125 6.5 -176.5t127.5 -51.5q117 0 185 54t83 133l58 330q9 67 90 67q76 0 66 -67l-166 -942q-12 -70 -90 -70q-34 0 -54 16t-13 54l70 396q-49 -43 -121 -65.5t-142 -22.5q-316 0 -265 297z" />
<glyph unicode="&#x448;" horiz-adv-x="1488" d="M52 97q-1 10 1 29t3.5 29t5.5 31l143 806q10 67 90 67q76 0 67 -67l-145 -814q-5 -27 4 -39.5t42 -12.5h325l153 866q10 67 90 67q76 0 66 -67l-152 -866h325q32 0 43.5 12t16.5 40l144 814q4 25 19 41t33 21t39 5q76 0 66 -67l-142 -806q-4 -20 -6 -31t-6.5 -29.5 t-9 -29t-12 -25.5t-17 -24t-22.5 -19t-29 -15.5t-37.5 -9t-46.5 -3.5h-919q-25 0 -45 3.5t-34.5 9t-24.5 16t-16 18.5t-8.5 24t-3.5 26z" />
<glyph unicode="&#x449;" horiz-adv-x="1567" d="M54.5 95.5q3.5 40.5 9.5 87.5q1 2 1 3l142 806q10 67 90 67q76 0 67 -67l-145 -814q-5 -28 3 -40t41 -12h325l153 866q10 67 90 67q76 0 66 -67l-152 -866h379l153 866q10 67 90 67q76 0 66 -67l-152 -866h67q61 0 80.5 -27t10.5 -85l-32 -183q-13 -70 -84 -70 q-32 0 -47 15.5t-8 54.5l25 139q2 6 0.5 10.5t-1 8t-3 5.5t-4 3.5t-5 2t-5.5 0.5h-5h-4h-1082q-70 0 -101.5 27.5t-28 68z" />
<glyph unicode="&#x44a;" horiz-adv-x="1057" d="M90 975q12 65 69 65h212q61 0 81.5 -28t11.5 -85l-50 -287h295q148 0 218.5 -87.5t45.5 -231.5q-25 -138 -134.5 -229.5t-246.5 -91.5h-291q-118 0 -131 76q-5 31 8 110l123 697q2 6 0.5 11t-1 8.5t-2.5 5.5t-4 3t-5 1.5t-5 1t-4.5 0t-4.5 -0.5h-139q-54 0 -46 62z M331 176q-5 -31 7 -40.5t41 -9.5h211q88 0 141 49.5t68 140.5q34 198 -140 198h-268z" />
<glyph unicode="&#x44b;" horiz-adv-x="1296" d="M52 97.5q-1 10.5 1 29t3.5 29t5.5 30.5l141 804q12 69 92 69q75 0 63 -69l-61 -350h293q149 0 219 -87t46 -230q-26 -141 -134.5 -232t-247.5 -91h-291q-25 0 -44.5 3.5t-34 9t-24 16t-15.5 19t-8.5 24t-3.5 26zM215 176q-6 -31 6.5 -40.5t41.5 -9.5h210q87 0 140.5 50 t68.5 142q11 63 -1 106t-47.5 65.5t-93.5 22.5h-267zM919 48l165 942q7 38 32 53.5t58 15.5q77 0 65 -69l-165 -942q-12 -68 -90 -68q-32 0 -51.5 15.5t-13.5 52.5z" />
<glyph unicode="&#x44c;" horiz-adv-x="940" d="M52 97q-1 10 1 29t3.5 29t5.5 31l143 806q10 67 90 67q76 0 67 -67l-63 -352h293q148 0 218.5 -87.5t46.5 -229.5q-26 -141 -134.5 -232t-247.5 -91h-291q-25 0 -45 3.5t-34.5 9t-24.5 16t-16 18.5t-8.5 24t-3.5 26zM217 178q-5 -27 4 -39.5t42 -12.5h210q88 0 141 50 t68 142q35 196 -140 196h-265z" />
<glyph unicode="&#x44d;" horiz-adv-x="948" d="M23 275q0 42 15.5 62t53.5 23q24 2 41.5 -3.5t28 -19t10.5 -34.5q5 -90 52.5 -145.5t143.5 -55.5q38 0 72.5 8.5t62.5 25t51.5 37.5t42 48.5t33.5 56t27.5 62.5t21 65t16.5 66h-342q-54 0 -46 63q11 64 68 64h339q4 50 5 98t-11 91t-33 75.5t-62.5 51.5t-98.5 19 q-95 0 -161 -55t-104 -145q-26 -60 -100 -57q-38 4 -46.5 25t4.5 59q12 36 33 73.5t58 79t82.5 73.5t111 52.5t138.5 20.5q97 0 167 -26t111 -72.5t60.5 -115.5t19 -149t-18 -178.5t-45 -178t-71 -148t-101.5 -114t-137 -71.5t-176 -26q-73 0 -131 20.5t-92.5 52t-56.5 72.5 t-30 78t-6 72z" />
<glyph unicode="&#x44e;" horiz-adv-x="1474" d="M38 50l167 942q10 67 90 67q76 0 67 -67l-67 -368h233q23 78 55.5 143.5t78.5 120t102.5 92.5t128.5 58.5t155 20.5q442 0 347 -540q-95 -537 -538 -537q-93 0 -161.5 24.5t-110.5 69t-66 108.5t-26 142.5t9 171.5h-229l-78 -448q-12 -70 -91 -70q-78 0 -66 70z M660.5 330.5q2.5 -50.5 16.5 -91.5t37.5 -75t65 -53t97.5 -19q48 0 90.5 14t74.5 37t59.5 57t47 70.5t35.5 80.5t26 84t18 84q9 52 13 99t2 97t-15.5 90.5t-37 73.5t-65 51t-97.5 18q-64 0 -119 -27t-93 -69t-68 -100t-47.5 -114.5t-28.5 -118.5q-8 -48 -11 -93t-0.5 -95.5z " />
<glyph unicode="&#x44f;" horiz-adv-x="988" d="M-42.5 10q-9.5 24 12.5 48q57 64 151 221q21 36 39.5 63t39 50t43.5 40.5t50 31.5q-93 18 -145 92.5t-35 169.5q26 151 135.5 232.5t265.5 81.5h273q47 0 76 -12.5t40.5 -35.5t13 -56t-7.5 -75l-143 -811q-12 -70 -90 -70t-65 70l65 371h-136q-55 0 -105 -18.5t-97.5 -63 t-82.5 -111.5q-78 -149 -144 -212q-26 -25 -51.5 -33t-59.5 -3q-33 6 -42.5 30zM283 724q-9 -57 14 -98t66 -59.5t99 -18.5h237l54 315q4 28 -4 39t-40 11h-201q-89 0 -148.5 -48t-76.5 -141z" />
<glyph unicode="&#x451;" horiz-adv-x="1015" d="M47 377q-2 68 13 138q15 88 45 167.5t78 150.5t109.5 123t145 82t178.5 30q127 0 212.5 -53.5t118 -149.5t9.5 -221q-6 -31 -14.5 -52t-28 -43t-56.5 -32.5t-91 -10.5h-533q-11 -63 -11.5 -118.5t12 -108t39 -90t73.5 -60t112 -22.5q43 0 83.5 11.5t76 34t66 56.5 t51.5 76q13 27 40 41t56 11q32 -4 44.5 -25t-0.5 -55q-37 -90 -109.5 -156t-160 -97.5t-180.5 -31.5q-78 0 -141.5 20.5t-106 57t-73.5 87.5t-43 111.5t-14 128.5zM259 626h500q22 2 33.5 12t15.5 36q12 84 -8 144.5t-70.5 94t-127.5 33.5q-63 0 -122.5 -28.5t-103.5 -74.5 t-75 -102.5t-42 -114.5zM390.5 1261.5q-1.5 23.5 2.5 52.5q8 48 34 73.5t79 25.5q51 0 66.5 -25t7.5 -74q-8 -50 -32 -77t-79 -27q-38 0 -57.5 14t-21 37.5zM724 1314q5 32 16.5 53t35 33.5t59.5 12.5q53 0 68.5 -25t7.5 -74q-8 -50 -32.5 -77t-79.5 -27q-54 0 -68.5 27 t-6.5 77z" />
<glyph unicode="&#x452;" horiz-adv-x="1087" d="M104 46l197 1118h-106q-30 0 -37.5 15.5t-2.5 40.5q3 26 15.5 40t42.5 14h106l12 65q7 36 30.5 53t54.5 17q34 0 55.5 -16t14.5 -54l-13 -65h291q46 0 39 -54q-12 -56 -56 -56h-291l-54 -301q50 66 109 112t121.5 69.5t126.5 23.5q58 0 102 -13t73 -35t47 -55.5t25.5 -70 t8 -83.5t-4.5 -90.5t-14 -96.5l-125 -710q-14 -82 -51 -145.5t-86 -99.5t-107 -50.5t-117 -3.5q-22 3 -35.5 15t-17 31.5t4.5 45.5q8 27 29.5 37t48.5 7q77 -4 120 34t56 121l135 758q11 54 9 101.5t-14.5 83t-47 56t-88.5 20.5q-55 0 -107 -20.5t-93 -55.5t-74 -80.5 t-54.5 -96t-30.5 -102.5l-92 -524q-12 -64 -94 -64q-73 0 -61 64z" />
<glyph unicode="&#x453;" horiz-adv-x="912" d="M-4 291q7 40 21 74t30.5 60.5t41 49t47 38.5t55.5 30.5t58 23t63.5 18t64 14t65.5 12.5l21 3q29 5 45 8t45.5 10.5t47.5 15t42 20.5t38.5 28t27 37t17.5 48q8 42 -7.5 74.5t-46.5 51t-67 28t-73 9.5q-90 0 -152.5 -36t-86.5 -105q-17 -48 -90 -48q-49 0 -63.5 17.5 t4.5 62.5q54 121 156.5 177t261.5 56q54 0 104.5 -11.5t94.5 -36.5t74 -60t42.5 -86.5t1.5 -113.5q-8 -44 -26.5 -81.5t-39 -63t-56 -47t-62 -34t-73 -25t-72.5 -18t-76 -15.5q-18 -3 -26 -5l-34.5 -6t-34.5 -7t-37 -9.5t-35 -11.5t-35 -15t-31 -18.5t-29 -23t-23.5 -28 t-18.5 -34.5t-11 -41q-14 -79 41.5 -129t138.5 -50q124 0 196 47t111 144q29 65 107 58q31 -3 44 -24.5t2 -57.5q-46 -138 -164.5 -215.5t-295.5 -77.5q-59 0 -113 10.5t-101.5 35t-80 60.5t-46.5 90.5t-2 122.5zM538 1188l117 195q19 27 45.5 38t74.5 10q39 -2 56 -15.5 t13 -31.5t-23 -39l-162 -169q-27 -38 -77 -30q-29 0 -42 11t-2 31z" />
<glyph unicode="&#x454;" horiz-adv-x="950" d="M60 517q21 124 62 220t105.5 170t159 113t215.5 39q73 0 130 -21t90 -52.5t53.5 -73.5t27.5 -78.5t6 -73.5q0 -26 -7 -43.5t-23 -27.5t-42 -13q-36 -1 -57.5 13.5t-22.5 43.5q-11 200 -187 200q-57 0 -105.5 -19.5t-82.5 -50.5t-62 -76.5t-45.5 -90t-31.5 -98.5h341 q54 0 42 -64q-7 -63 -64 -63h-343q-48 -369 204 -369q174 0 257 201q27 63 101 57q38 -3 47.5 -23.5t-3.5 -61.5q-13 -36 -33 -72.5t-55.5 -77.5t-79 -72t-108 -52t-137.5 -21q-447 0 -352 537z" />
<glyph unicode="&#x455;" horiz-adv-x="929" d="M18 265q0 36 21.5 59t52.5 23q25 0 41.5 -4t30 -17t14.5 -37q8 -98 62.5 -144.5t178.5 -46.5q52 0 104 21t91 63t48 95q21 113 -123 158q-33 11 -102 25t-105 23t-92 32t-82.5 51.5t-42.5 78.5t-4 115q14 76 57 136.5t103.5 97t128.5 55.5t138 19q157 0 241 -56t94 -177 q4 -43 -18 -61.5t-70 -18.5q-73 0 -73 48q0 69 -50 105t-141 36q-23 0 -48.5 -4t-52.5 -12t-51.5 -21.5t-44.5 -31t-34.5 -42t-19.5 -52.5q-4 -25 2.5 -46t17.5 -36t32.5 -27.5t39.5 -20t47 -15t45.5 -10.5t43.5 -8q65 -11 109 -22.5t96 -36t80.5 -57.5t43 -87t2.5 -124 q-12 -67 -44.5 -122t-77.5 -91t-101.5 -60.5t-114 -35t-116.5 -10.5q-176 0 -268 77.5t-89 215.5z" />
<glyph unicode="&#x456;" horiz-adv-x="441" d="M50 48l165 942q12 69 92 69q77 0 64 -69l-164 -942q-13 -68 -90 -68q-79 0 -67 68zM258.5 1265q-1.5 23 2.5 51q8 47 31.5 71t75 24t67 -24t7.5 -71q-8 -48 -32 -75t-77 -27q-36 0 -54.5 14t-20 37z" />
<glyph unicode="&#x457;" horiz-adv-x="479" d="M69 48l164 942q7 37 33 53t59 16q77 0 64 -69l-165 -942q-12 -71 -90 -71q-33 0 -52.5 16.5t-12.5 54.5zM158.5 1261q-1.5 23 2.5 51q8 48 31 71.5t75 23.5q26 0 43 -6.5t24.5 -19t9 -30t-2.5 -39.5q-8 -48 -31.5 -75t-76.5 -27q-36 0 -54.5 14t-20 37zM400 1312 q5 31 15.5 51t33 32t57.5 12q26 0 43 -6.5t24.5 -19t9 -30t-2.5 -39.5q-8 -48 -32 -75t-76.5 -27t-66.5 26.5t-5 75.5z" />
<glyph unicode="&#x458;" horiz-adv-x="454" d="M-257 -309q-7 22 8 52q26 56 80 42q37 -9 56 -7q34 1 61.5 16t44 35.5t29.5 52.5t19 57.5t13 60.5l172 990q13 69 93 69q76 0 64 -69l-172 -990q-12 -63 -26 -109.5t-40.5 -96t-63 -81t-93.5 -51.5t-130 -20q-39 0 -80 17q-28 10 -35 32zM269 1316q7 48 33 73.5t79 25.5 q36 0 55 -12.5t21.5 -34.5t-1.5 -52q-9 -51 -33 -77.5t-78 -26.5q-56 0 -70.5 26.5t-5.5 77.5z" />
<glyph unicode="&#x459;" horiz-adv-x="1500" d="M-71 46q12 71 67 71q20 0 36 5t27.5 11t22 18.5t16.5 22t14 29.5t12 32t11 37q1 3 2 5t1.5 5t1.5 5q27 90 54 198t50 207.5t31 130.5q7 31 12 49t15 46.5t24 46t34 36t50 27t67 8.5h295q26 0 46.5 -4t34.5 -9.5t24.5 -16t16.5 -19.5t9 -24.5t3.5 -26t-1.5 -29t-3.5 -29 t-4.5 -29.5l-38 -213h287q150 0 221 -85t46 -232q-25 -138 -133.5 -228.5t-245.5 -90.5h-289q-117 0 -130 78q-6 31 7 108l119 671q5 28 -3.5 39t-42.5 11h-193q-31 0 -48 -15.5t-27 -42.5q-9 -36 -27.5 -116t-35 -149t-39.5 -158t-44 -157q-43 -145 -112.5 -219t-178.5 -66 q-76 5 -61 62zM779 176q-5 -27 3 -38.5t39 -11.5h211q87 0 140.5 48.5t68.5 138.5q17 96 -19 148.5t-122 52.5h-261z" />
<glyph unicode="&#x45a;" horiz-adv-x="1532" d="M38 46l165 942q12 66 88 66q32 0 51 -15.5t13 -50.5l-64 -364h444l64 364q12 66 84 66q37 0 56 -15t13 -51l-65 -364h291q148 0 220.5 -84t47.5 -227q-24 -138 -132.5 -225.5t-248.5 -87.5h-288q-25 0 -44.5 3.5t-33 9t-23.5 16t-16 18.5t-8 24t-3 26t1 29t3.5 29t5.5 31 l53 312h-443l-78 -452q-12 -62 -89 -62q-35 0 -53 13t-11 49zM808 176q-5 -32 7 -41t42 -9h206q179 0 209 181q37 191 -144 191h-263z" />
<glyph unicode="&#x45b;" horiz-adv-x="1091" d="M111 46l196 1118h-112q-52 0 -40 56q7 54 58 54h112l12 65q5 24 18.5 40.5t30.5 23t37 6.5q34 0 54 -16t13 -54l-13 -65h287q50 0 43 -54q-12 -56 -60 -56h-287l-54 -301q51 66 110.5 112t121 69.5t122.5 23.5q59 0 103.5 -13t73 -35t47 -55.5t26.5 -70t8 -83.5 t-4.5 -90.5t-13.5 -96.5l-100 -570q-6 -34 -32 -50t-60 -16q-75 0 -65 66l108 610q11 54 9.5 101.5t-13.5 83t-46.5 56t-90.5 20.5q-66 0 -128 -31.5t-107.5 -82t-77 -113.5t-42.5 -128l-92 -524q-12 -64 -91 -64q-73 0 -61 64z" />
<glyph unicode="&#x45c;" horiz-adv-x="908" d="M38 46l165 942q12 66 90 66q36 0 55.5 -15t13.5 -51l-65 -364q103 9 174 54.5t133 128.5q18 23 46 63.5t54.5 77.5t54.5 67q9 18 35.5 31.5t60.5 7.5q87 -14 34 -83q-89 -113 -161 -211q-100 -130 -218 -176q39 -8 70 -28t51.5 -45.5t36 -61t24 -68.5t15.5 -74 q4 -27 8.5 -49t9 -43t8 -35.5t9 -34.5t8.5 -31t10 -35t10 -37q3 -17 -2.5 -29.5t-18 -19.5t-31.5 -9q-27 -4 -54.5 0.5t-33.5 15.5q-6 9 -12 19t-11 23.5t-9 23.5t-8 28.5t-6 26.5t-6 30.5t-5 28t-5 31t-4 28.5q-8 48 -16.5 81t-22.5 66.5t-34 54.5t-49.5 37.5t-70 23.5 t-94.5 6l-80 -462q-12 -62 -93 -62q-36 0 -54 13t-12 49zM484 1182l116 193q18 28 44.5 36.5t77.5 5.5q38 0 54 -11t12 -28t-22 -39l-155 -175l-9 -6t-8.5 -6t-8.5 -5.5t-9 -5t-10 -4t-11 -2.5t-12.5 -1.5t-14.5 0.5q-29 1 -41.5 14t-2.5 34z" />
<glyph unicode="&#x45e;" horiz-adv-x="918" d="M-41.5 -309q-5.5 19 3 46.5t26 41t35 12.5t33.5 -4q14 -3 27.5 -3t24 2t21 6.5t18.5 10t16.5 14t15 16.5t13.5 19.5t12.5 21t12.5 22.5l74 144l-180 952q-8 34 18.5 50.5t67.5 16.5q24 0 40 -6t26.5 -21.5t15.5 -39.5l112 -623q12 -70 15 -128q13 39 58 130l321 621 q18 36 42.5 51.5t61.5 15.5q42 0 65.5 -16.5t4.5 -50.5l-584 -1092q-15 -28 -25 -46t-27 -45.5t-30.5 -44.5t-33.5 -39t-39 -35t-44 -26t-51 -18t-58 -4.5t-67 7.5q-15 3 -25.5 13t-16 29zM343 1341q-12 51 28 70q20 9 43 3.5t34 -23.5q30 -44 62.5 -60.5t85.5 -16.5t92 17 t82 60q19 17 40.5 23t40.5 -3q37 -19 6 -70q-30 -44 -76 -76.5t-98.5 -48.5t-106.5 -16q-95 0 -156.5 43.5t-76.5 97.5z" />
<glyph unicode="&#x45f;" horiz-adv-x="1013" d="M52 97q-1 10 1 29t3.5 29t5.5 31l141 802q12 66 90 66q32 0 50 -15t12 -51l-142 -812q-5 -27 4 -38.5t40 -11.5h341q32 0 44 11t17 39l142 812q12 66 90 66q32 0 50.5 -15.5t12.5 -50.5l-142 -802v-4l-7.5 -39t-9 -36t-14 -35t-21 -28t-30.5 -24t-42 -14t-56 -6h-153 l-37 -211q-12 -66 -87.5 -66t-63.5 66l38 211h-149q-24 0 -44 3.5t-33.5 9t-23.5 16t-15.5 18.5t-8 24t-3.5 26z" />
<glyph unicode="&#x490;" horiz-adv-x="954" d="M40 65l203 1151q6 33 14 58.5t23.5 50.5t36 41.5t52.5 26.5t73 10h429q17 0 27 2.5t15.5 12t7.5 16t6 25.5l46 265q12 64 84 64q73 0 61 -64l-57 -323q-13 -74 -55.5 -114t-114.5 -40h-416q-32 0 -45.5 -13.5t-19.5 -45.5l-199 -1123q-12 -71 -98 -71q-39 0 -59.5 16 t-13.5 55z" />
<glyph unicode="&#x491;" horiz-adv-x="764" d="M40 46l140 803q1 2 2 7q4 25 6.5 38t9.5 35t14.5 34.5t21.5 28.5t31.5 24t43.5 14t59 6h285q30 0 39.5 11.5t14.5 42.5l48 271q8 52 70 52q32 0 47.5 -10t10.5 -42l-56 -321q-4 -22 -13 -42.5t-25.5 -42t-46 -35t-68.5 -13.5h-274q-31 0 -42.5 -11t-16.5 -39l-142 -811 q-12 -62 -92 -62q-35 0 -54 13.5t-13 48.5z" />
<glyph unicode="&#x2000;" horiz-adv-x="902" />
<glyph unicode="&#x2001;" horiz-adv-x="1804" />
<glyph unicode="&#x2002;" horiz-adv-x="902" />
<glyph unicode="&#x2003;" horiz-adv-x="1804" />
<glyph unicode="&#x2004;" horiz-adv-x="601" />
<glyph unicode="&#x2005;" horiz-adv-x="451" />
<glyph unicode="&#x2006;" horiz-adv-x="300" />
<glyph unicode="&#x2007;" horiz-adv-x="300" />
<glyph unicode="&#x2008;" horiz-adv-x="225" />
<glyph unicode="&#x2009;" horiz-adv-x="360" />
<glyph unicode="&#x200a;" horiz-adv-x="100" />
<glyph unicode="&#x2010;" horiz-adv-x="686" d="M84 536q12 73 75 73h381q33 0 44 -21t6 -52q-5 -29 -24 -49.5t-52 -20.5h-382q-60 0 -48 70z" />
<glyph unicode="&#x2011;" horiz-adv-x="686" d="M84 536q12 73 75 73h381q33 0 44 -21t6 -52q-5 -29 -24 -49.5t-52 -20.5h-382q-60 0 -48 70z" />
<glyph unicode="&#x2012;" horiz-adv-x="686" d="M84 536q12 73 75 73h381q33 0 44 -21t6 -52q-5 -29 -24 -49.5t-52 -20.5h-382q-60 0 -48 70z" />
<glyph unicode="&#x2013;" horiz-adv-x="1119" d="M92 705q15 70 77 70h854q34 0 45 -20t4 -50q-5 -31 -23 -51t-51 -20h-856q-61 0 -50 71z" />
<glyph unicode="&#x2014;" horiz-adv-x="1733" d="M60 517q12 61 68 61h1477q32 0 43 -17.5t6 -43.5q-11 -61 -68 -61h-1477q-60 0 -49 61z" />
<glyph unicode="&#x2018;" horiz-adv-x="391" d="M128.5 962q-14.5 31 11.5 78l185 327q11 18 20 28t22.5 14t32.5 2q12 -1 20.5 -5t13.5 -12t5.5 -18.5t-4.5 -23.5l-117 -352q-22 -73 -125 -73q-50 4 -64.5 35z" />
<glyph unicode="&#x2019;" horiz-adv-x="391" d="M165 986l118 353q27 77 125 72q49 -4 63.5 -35t-9.5 -78l-185 -327q-15 -27 -31 -37t-45 -7q-25 2 -35 17.5t-1 41.5z" />
<glyph unicode="&#x201a;" horiz-adv-x="473" d="M-46 -209l120 353q27 77 127 73q47 -5 61 -36t-11 -77l-182 -324q-15 -28 -31.5 -38t-47.5 -9q-23 2 -33 17.5t-3 40.5z" />
<glyph unicode="&#x201c;" horiz-adv-x="659" d="M144 1041.5q-14 31.5 13 76.5l182 328q14 26 30.5 36t46.5 8q23 -2 33 -18t3 -41l-121 -351q-22 -80 -124 -73q-49 3 -63 34.5zM410.5 1041.5q-14.5 31.5 12.5 76.5l181 328q15 26 32 36t46 8q11 -1 19.5 -5.5t13.5 -12t6 -18t-3 -23.5l-120 -351q-23 -80 -125 -73 q-48 3 -62.5 34.5z" />
<glyph unicode="&#x201d;" horiz-adv-x="659" d="M165 986l118 353q30 77 125 72q50 -4 64.5 -35t-10.5 -78l-185 -327q-14 -27 -30 -37t-46 -7q-24 2 -34.5 18t-1.5 41zM431 986l119 353q30 77 124 72q50 -4 65 -35t-11 -78l-184 -327q-14 -26 -30.5 -36.5t-46.5 -7.5q-23 2 -33.5 18t-2.5 41z" />
<glyph unicode="&#x201e;" horiz-adv-x="659" d="M-46 -209l119 353q30 77 126 73q49 -5 63 -36t-11 -77l-184 -326q-14 -27 -30 -37t-47 -8q-23 2 -34 17.5t-2 40.5zM220 -209l119 353q30 77 127 73q48 -5 62.5 -36t-11.5 -77l-184 -326q-13 -27 -30 -37t-46 -8q-24 2 -34.5 17.5t-2.5 40.5z" />
<glyph unicode="&#x2020;" horiz-adv-x="1027" d="M128 967q16 71 77 71h305l52 303q3 20 13 34.5t24 22t28 10.5t30 3q38 0 57 -15.5t12 -54.5l-52 -303h312q65 0 50 -71q-4 -28 -21.5 -46.5t-53.5 -18.5h-310l-207 -1171q-13 -76 -97 -76q-33 0 -53.5 18.5t-14.5 57.5l207 1171h-306q-60 0 -52 65z" />
<glyph unicode="&#x2021;" horiz-adv-x="1025" d="M-28 71q5 31 23 51t53 20h307l135 760h-308q-62 0 -54 65q16 71 79 71h307l52 303q13 70 95 70q36 0 58.5 -16t15.5 -54l-53 -303h306q16 0 27.5 -6t15.5 -16t5 -22.5t-2 -26.5q-2 -17 -9.5 -31t-23.5 -24t-38 -10h-304l-135 -760h305q60 0 48 -71q-14 -71 -72 -71h-305 l-48 -269q-7 -39 -36.5 -57.5t-65 -18.5t-55 18t-12.5 58l48 269h-307q-35 0 -47 19.5t-5 51.5z" />
<glyph unicode="&#x2022;" horiz-adv-x="655" d="M147 670q10 54 45 99.5t84.5 70.5t102.5 25q84 0 131 -56t32 -139q-13 -82 -81 -140.5t-150 -58.5q-53 0 -94 27t-60 73t-10 99z" />
<glyph unicode="&#x2026;" horiz-adv-x="1703" d="M50 117q9 56 39 85t93 29q68 0 87.5 -28t9.5 -86q-11 -65 -41 -96t-98 -31q-66 0 -83.5 30.5t-6.5 96.5zM650 48q-2 28 5 69q9 57 38.5 85.5t95.5 28.5t86 -28.5t10 -85.5q-11 -65 -41 -96t-97 -31q-49 0 -72 15t-25 43zM1260 117q10 56 40 85t95 29q67 0 87.5 -28.5 t11.5 -85.5q-12 -65 -42.5 -96t-99.5 -31q-67 0 -85 30.5t-7 96.5z" />
<glyph unicode="&#x202f;" horiz-adv-x="360" />
<glyph unicode="&#x2030;" horiz-adv-x="1875" d="M128 15.5q-3 13.5 14 36.5l965 1296q42 59 103 59q12 0 22 -2.5t17 -9t5.5 -18.5t-13.5 -29l-964 -1296q-43 -62 -105 -62q-18 0 -29.5 6t-14.5 19.5zM171 1140q22 130 96 204.5t202 74.5q66 0 111.5 -20.5t67.5 -57.5t28.5 -88.5t-6.5 -112.5q-24 -130 -99 -206.5 t-200 -76.5q-126 0 -175 76.5t-25 206.5zM287 1076q0 -30 8 -58.5t31.5 -45t60.5 -16.5q132 0 167 184q7 30 5.5 63t-9 60.5t-32.5 45.5t-64 18q-37 0 -66.5 -17.5t-48 -46.5t-29.5 -59.5t-17 -63.5q-6 -34 -6 -64zM660.5 148.5q-6.5 51.5 5.5 112.5q25 130 98 205.5 t203 75.5q64 0 109 -21t67.5 -58.5t29 -89t-6.5 -112.5q-22 -129 -97 -205t-200 -76q-66 0 -111.5 21t-68 58.5t-29 89zM781.5 198q1.5 -33 8.5 -60t31.5 -44.5t63.5 -17.5q38 0 67.5 17t47 46t28 58.5t16.5 63.5q31 181 -94 181q-32 0 -58 -11.5t-43 -29t-30 -42.5 t-20.5 -48.5t-11.5 -49.5q-7 -30 -5.5 -63zM1246.5 148.5q-6.5 51.5 5.5 112.5q25 130 96.5 205.5t198.5 75.5q67 0 113 -21t68.5 -58.5t28.5 -89t-7 -112.5q-22 -129 -97 -205t-204 -76q-63 0 -107.5 21t-66.5 58.5t-28.5 89zM1361.5 198q1.5 -33 9.5 -60t32 -44.5 t62 -17.5t68.5 17t49.5 46t30 58.5t17 63.5q7 30 5 62t-10 58.5t-32.5 43.5t-62.5 17t-68 -16.5t-48.5 -44.5t-29.5 -57.5t-17 -62.5q-7 -30 -5.5 -63z" />
<glyph unicode="&#x2039;" horiz-adv-x="611" d="M98 471q-21 37 13 71l322 367q39 39 91 28q29 -2 40 -13t-2 -29l-285 -367q-18 -26 -7 -38l153 -379q5 -9 2 -16.5t-10.5 -13.5t-19.5 -10.5t-26 -5.5q-31 -4 -51 5t-27 24z" />
<glyph unicode="&#x203a;" horiz-adv-x="609" d="M22.5 81q-13.5 13 1.5 30l285 379q7 6 9.5 17t-2.5 21l-153 367q-10 17 8 28.5t49 13.5q30 7 49.5 -3t23.5 -25l197 -367q19 -30 -13 -71l-326 -377q-10 -15 -32.5 -24t-51.5 -5q-31 3 -44.5 16z" />
<glyph unicode="&#x205f;" horiz-adv-x="451" />
<glyph unicode="&#x20ac;" horiz-adv-x="1368" d="M14 580q22 62 78 62h151q12 84 22 126h-125q-21 0 -29.5 9.5t-8 21.5t6.5 30q22 62 77 62h111q38 124 96.5 221.5t139 169t188 109.5t236.5 38q94 0 168 -23.5t121.5 -64t77.5 -97.5t40 -122.5t5 -140.5q-2 -30 -22 -51t-66 -23q-77 -3 -77 60q3 69 -11 126.5t-45.5 104 t-86 73t-128.5 26.5q-78 0 -144 -22.5t-113.5 -59.5t-87 -91t-65 -110t-46.5 -123h330q52 0 30 -62q-20 -61 -77 -61h-314l-23 -126h289q53 0 31 -62q-20 -61 -77 -61h-254q-23 -408 312 -408q74 0 138 26.5t112 73t82.5 104t55.5 125.5q10 32 35.5 46.5t60.5 13.5 q83 -3 62 -75q-20 -75 -53 -140t-83 -122t-112 -98t-143.5 -64.5t-175.5 -23.5q-129 0 -223.5 38.5t-150.5 110.5t-80 170t-18 223h-185q-52 0 -32 61z" />
<glyph unicode="&#x2122;" horiz-adv-x="1647" d="M178 1354q9 51 57 51h550q44 0 36 -51q-5 -23 -19 -39.5t-36 -16.5h-220l-111 -620q-7 -46 -67 -46q-23 0 -35 12t-8 34l110 620h-218q-23 0 -33 17t-6 39zM801 678l120 678q10 57 75 57q68 0 76 -50l130 -586l342 586q23 50 90 50q62 0 52 -57l-121 -678 q-4 -22 -22.5 -34t-41.5 -12q-53 0 -46 46l87 494q-6 -14 -13.5 -29t-14 -26t-14 -23.5t-10.5 -21.5l-232 -388q-26 -46 -82 -52q-18 0 -32 7t-23.5 19.5t-13.5 29.5l-81 384q-2 7 -9 26.5t-12 37.5t-7 36l-87 -494q-7 -46 -64 -46q-24 0 -37.5 12t-8.5 34z" />
<glyph unicode="&#x25fc;" horiz-adv-x="1063" d="M0 0v1063h1063v-1063h-1063z" />
</font>
</defs>
</svg>
